<svg xmlns="http://www.w3.org/2000/svg" width="30.597" height="79.999" viewBox="0 0 30.597 79.999">
  <g id="Grupo_155226" data-name="Grupo 155226" transform="translate(0 -18.388)">
    <g id="Grupo_152551" data-name="Grupo 152551" transform="translate(0 98.387) rotate(-90)">
      <rect id="Rectángulo_45220" data-name="Rectángulo 45220" width="71.055" height="21.159" transform="translate(71.055 21.159) rotate(180)" fill="#fff"/>
      <g id="Grupo_152556" data-name="Grupo 152556" transform="translate(0 11.721)">
        <rect id="Rectángulo_45221" data-name="Rectángulo 45221" width="3.596" height="3.595" transform="translate(76.403 15.281)" fill="#2194e5"/>
        <rect id="Rectángulo_45222" data-name="Rectángulo 45222" width="3.595" height="3.595" transform="translate(68.763 15.281)" fill="#2194e5"/>
        <rect id="Rectángulo_45223" data-name="Rectángulo 45223" width="3.595" height="3.595" transform="translate(61.122 15.281)" fill="#2194e5"/>
        <rect id="Rectángulo_45224" data-name="Rectángulo 45224" width="3.595" height="3.595" transform="translate(53.482 15.281)" fill="#2194e5"/>
        <rect id="Rectángulo_45225" data-name="Rectángulo 45225" width="3.595" height="3.595" transform="translate(45.842 15.281)" fill="#2194e5"/>
        <rect id="Rectángulo_45226" data-name="Rectángulo 45226" width="3.595" height="3.595" transform="translate(38.202 15.281)" fill="#2194e5"/>
        <rect id="Rectángulo_45227" data-name="Rectángulo 45227" width="3.595" height="3.595" transform="translate(30.561 15.281)" fill="#2194e5"/>
        <rect id="Rectángulo_45228" data-name="Rectángulo 45228" width="3.595" height="3.595" transform="translate(22.921 15.281)" fill="#2194e5"/>
        <rect id="Rectángulo_45229" data-name="Rectángulo 45229" width="3.596" height="3.595" transform="translate(15.281 15.281)" fill="#2194e5"/>
        <rect id="Rectángulo_45230" data-name="Rectángulo 45230" width="3.595" height="3.595" transform="translate(7.64 15.281)" fill="#2194e5"/>
        <rect id="Rectángulo_45231" data-name="Rectángulo 45231" width="3.596" height="3.595" transform="translate(0 15.281)" fill="#2194e5"/>
        <rect id="Rectángulo_45232" data-name="Rectángulo 45232" width="3.596" height="3.596" transform="translate(76.403 7.64)" fill="#2194e5"/>
        <rect id="Rectángulo_45233" data-name="Rectángulo 45233" width="3.595" height="3.596" transform="translate(68.763 7.64)" fill="#2194e5"/>
        <rect id="Rectángulo_45234" data-name="Rectángulo 45234" width="3.595" height="3.596" transform="translate(61.122 7.64)" fill="#2194e5"/>
        <rect id="Rectángulo_45235" data-name="Rectángulo 45235" width="3.595" height="3.596" transform="translate(53.482 7.64)" fill="#2194e5"/>
        <rect id="Rectángulo_45236" data-name="Rectángulo 45236" width="3.595" height="3.596" transform="translate(45.842 7.64)" fill="#2194e5"/>
        <rect id="Rectángulo_45237" data-name="Rectángulo 45237" width="3.595" height="3.596" transform="translate(38.202 7.64)" fill="#2194e5"/>
        <rect id="Rectángulo_45238" data-name="Rectángulo 45238" width="3.595" height="3.596" transform="translate(30.561 7.64)" fill="#2194e5"/>
        <rect id="Rectángulo_45239" data-name="Rectángulo 45239" width="3.595" height="3.596" transform="translate(22.921 7.64)" fill="#2194e5"/>
        <rect id="Rectángulo_45240" data-name="Rectángulo 45240" width="3.596" height="3.596" transform="translate(15.281 7.64)" fill="#2194e5"/>
        <rect id="Rectángulo_45241" data-name="Rectángulo 45241" width="3.595" height="3.596" transform="translate(7.64 7.64)" fill="#2194e5"/>
        <rect id="Rectángulo_45242" data-name="Rectángulo 45242" width="3.596" height="3.596" transform="translate(0 7.64)" fill="#2194e5"/>
        <rect id="Rectángulo_45243" data-name="Rectángulo 45243" width="3.596" height="3.595" transform="translate(76.403)" fill="#2194e5"/>
        <rect id="Rectángulo_45244" data-name="Rectángulo 45244" width="3.595" height="3.595" transform="translate(68.763)" fill="#2194e5"/>
        <rect id="Rectángulo_45245" data-name="Rectángulo 45245" width="3.595" height="3.595" transform="translate(61.122)" fill="#2194e5"/>
        <rect id="Rectángulo_45246" data-name="Rectángulo 45246" width="3.595" height="3.595" transform="translate(53.482)" fill="#2194e5"/>
        <rect id="Rectángulo_45247" data-name="Rectángulo 45247" width="3.595" height="3.595" transform="translate(45.842)" fill="#2194e5"/>
        <rect id="Rectángulo_45248" data-name="Rectángulo 45248" width="3.595" height="3.595" transform="translate(38.202)" fill="#2194e5"/>
        <rect id="Rectángulo_45249" data-name="Rectángulo 45249" width="3.595" height="3.595" transform="translate(30.561)" fill="#2194e5"/>
        <rect id="Rectángulo_45250" data-name="Rectángulo 45250" width="3.595" height="3.595" transform="translate(22.921)" fill="#2194e5"/>
        <rect id="Rectángulo_45251" data-name="Rectángulo 45251" width="3.596" height="3.595" transform="translate(15.281)" fill="#2194e5"/>
        <rect id="Rectángulo_45252" data-name="Rectángulo 45252" width="3.595" height="3.595" transform="translate(7.64)" fill="#2194e5"/>
        <rect id="Rectángulo_45253" data-name="Rectángulo 45253" width="3.596" height="3.595" fill="#2194e5"/>
      </g>
    </g>
  </g>
</svg>
