<svg xmlns="http://www.w3.org/2000/svg" width="81" height="24" viewBox="0 0 81 24">
  <g id="Grupo_154270" data-name="Grupo 154270" transform="translate(-694 -1314)">
    <path id="Polígono_4" data-name="Polígono 4" d="M5.5,0,11,7H0Z" transform="translate(701 1314) rotate(90)" fill="#3cafff"/>
    <path id="Polígono_13" data-name="Polígono 13" d="M5.5,0,11,7H0Z" transform="translate(712 1314) rotate(90)" fill="#3cafff"/>
    <path id="Polígono_18" data-name="Polígono 18" d="M5.5,0,11,8H0Z" transform="translate(726 1314) rotate(90)" fill="#3cafff"/>
    <path id="Polígono_5" data-name="Polígono 5" d="M5.5,0,11,7H0Z" transform="translate(701 1327) rotate(90)" fill="#3cafff"/>
    <path id="Polígono_12" data-name="Polígono 12" d="M5.5,0,11,7H0Z" transform="translate(712 1327) rotate(90)" fill="#3cafff"/>
    <path id="Polígono_17" data-name="Polígono 17" d="M5.5,0,11,8H0Z" transform="translate(726 1327) rotate(90)" fill="#3cafff"/>
    <path id="Polígono_4-2" data-name="Polígono 4" d="M5.5,0,11,7H0Z" transform="translate(737 1314) rotate(90)" fill="#3cafff"/>
    <path id="Polígono_13-2" data-name="Polígono 13" d="M5.5,0,11,7H0Z" transform="translate(750 1314) rotate(90)" fill="#3cafff"/>
    <path id="Polígono_18-2" data-name="Polígono 18" d="M5.5,0,11,8H0Z" transform="translate(762 1314) rotate(90)" fill="#3cafff"/>
    <path id="Polígono_26" data-name="Polígono 26" d="M5.5,0,11,8H0Z" transform="translate(775 1314) rotate(90)" fill="#3cafff"/>
    <path id="Polígono_5-2" data-name="Polígono 5" d="M5.5,0,11,7H0Z" transform="translate(737 1327) rotate(90)" fill="#3cafff"/>
    <path id="Polígono_12-2" data-name="Polígono 12" d="M5.5,0,11,7H0Z" transform="translate(750 1327) rotate(90)" fill="#3cafff"/>
    <path id="Polígono_17-2" data-name="Polígono 17" d="M5.5,0,11,8H0Z" transform="translate(762 1327) rotate(90)" fill="#3cafff"/>
    <path id="Polígono_27" data-name="Polígono 27" d="M5.5,0,11,8H0Z" transform="translate(775 1327) rotate(90)" fill="#3cafff"/>
  </g>
</svg>
