<svg xmlns="http://www.w3.org/2000/svg" width="60" height="61" viewBox="0 0 60 61">
  <g id="Grupo_142438" data-name="Grupo 142438" transform="translate(-0.397 0.499)">
    <ellipse id="Elipse_4775" data-name="Elipse 4775" cx="30" cy="30.5" rx="30" ry="30.5" transform="translate(0.397 -0.499)" fill="#cdb8f1"/>
    <g id="bB6J8T.tif" transform="translate(2859.513 -1108.69)">
      <g id="Grupo_154941" data-name="Grupo 154941" transform="translate(-2848.836 1118)">
        <path id="Trazado_195330" data-name="Trazado 195330" d="M-2573.53,1400.691a7.778,7.778,0,0,1-.754-.592q-5.557-5.55-11.1-11.112a1.142,1.142,0,0,1-.457-.938.861.861,0,0,1,.588-.752.869.869,0,0,1,.958.24c.413.393.811.8,1.21,1.209.118.12.218.256.345.409.13-.112.219-.179.3-.257.66-.659,1.3-1.337,1.987-1.971a1.7,1.7,0,0,1,.8-.388.715.715,0,0,1,.75.451.8.8,0,0,1-.035.88,3.481,3.481,0,0,1-.379.44c-.686.688-1.377,1.371-2.029,2.02l2.088,2.089c.646-.649,1.346-1.356,2.052-2.057a2.61,2.61,0,0,1,.445-.373.864.864,0,0,1,1.068.154.878.878,0,0,1,.107,1.073,2.738,2.738,0,0,1-.352.412c-.7.705-1.408,1.407-2.09,2.086l4.69,4.7,4.633-4.639a2.038,2.038,0,0,1-.322-.232q-5.238-5.238-10.469-10.482a1.03,1.03,0,0,1-.415-1.054.864.864,0,0,1,1.317-.527,2.035,2.035,0,0,1,.356.3q5.634,5.639,11.264,11.281a.978.978,0,0,1,.01,1.634q-2.773,2.781-5.553,5.554a4.733,4.733,0,0,1-.621.448Z" transform="translate(2606.321 -1360.838)" fill="#fff"/>
        <path id="Trazado_195331" data-name="Trazado 195331" d="M-2841.843,1118a6,6,0,0,1,.706.528q5.6,5.59,11.182,11.191a1.017,1.017,0,0,1,.395,1.1.866.866,0,0,1-1.314.472,2.63,2.63,0,0,1-.41-.353q-5.206-5.211-10.407-10.428a2.935,2.935,0,0,1-.282-.4l-4.611,4.688,4.693,4.688c.04-.037.135-.116.222-.2.669-.668,1.333-1.342,2.007-2.006a.921.921,0,0,1,1.154-.242.89.89,0,0,1,.135,1.48c-.658.679-1.331,1.344-2,2.009a1.865,1.865,0,0,1-.3.2l2.186,2.194c.176-.212.365-.474.588-.7q.8-.824,1.621-1.623a.9.9,0,0,1,1.315-.067.9.9,0,0,1-.044,1.32c-.748.771-1.517,1.522-2.4,2.4.276.222.551.414.791.644a11.787,11.787,0,0,1,1.019,1.065.834.834,0,0,1-.078,1.132.882.882,0,0,1-1.132.1,2.45,2.45,0,0,1-.353-.3q-5.6-5.61-11.2-11.227a5.444,5.444,0,0,1-.481-.648v-.467c.215-.255.413-.527.648-.762q2.595-2.6,5.206-5.181a8.384,8.384,0,0,1,.751-.595Z" transform="translate(2848.836 -1118)" fill="#fff"/>
        <path id="Trazado_195332" data-name="Trazado 195332" d="M-2812.336,1118.947a4.217,4.217,0,0,1,3.759,2.578,4.31,4.31,0,0,1-.6,4.738,5.8,5.8,0,0,1-.474.514q-12.839,12.864-25.683,25.723a2.9,2.9,0,0,1-.675.512q-5.119,2.723-10.25,5.424a1.529,1.529,0,0,1-.614.2.863.863,0,0,1-.852-1.165,2.868,2.868,0,0,1,.192-.423q2.678-5.083,5.365-10.162a2.913,2.913,0,0,1,.5-.681q12.862-12.9,25.73-25.787A4.744,4.744,0,0,1-2812.336,1118.947Zm-26.2,31.72c.6.131,1.135.22,1.651.371a.624.624,0,0,0,.7-.22q9.4-9.432,18.812-18.854c.1-.1.192-.2.255-.268l-1.239-1.291c-.111.124-.217.256-.335.375q-7.086,7.1-14.175,14.2a2.765,2.765,0,0,1-.473.4.863.863,0,0,1-1.04-.13.867.867,0,0,1-.148-1.071,2.566,2.566,0,0,1,.371-.446q7.126-7.144,14.255-14.284c.106-.107.208-.218.264-.276l-1.259-1.335a2.7,2.7,0,0,1-.254.354q-9.405,9.428-18.815,18.852a.783.783,0,0,0-.161.167.549.549,0,0,0-.1.306c.121.6.263,1.2.41,1.854.128-.118.223-.2.311-.287q1.374-1.375,2.748-2.751a2.463,2.463,0,0,1,.354-.3.863.863,0,0,1,1.1.091.868.868,0,0,1,.107,1.132,2.772,2.772,0,0,1-.328.381C-2836.506,1148.629-2837.494,1149.618-2838.541,1150.667Zm25.848-23.582c.707-.661,1.489-1.29,2.146-2.03a2.57,2.57,0,0,0-.119-3.468,2.575,2.575,0,0,0-3.386-.39,31.3,31.3,0,0,0-2.335,2.186Zm-1.3,1.382-3.644-3.649-1.8,1.814,3.632,3.646Zm-27.607,21.18c-.628,1.19-1.21,2.283-1.774,3.384a.375.375,0,0,0,.087.318c.241.269.518.507.758.777a.318.318,0,0,0,.464.066c.9-.487,1.8-.96,2.7-1.438.165-.088.329-.177.56-.3-.6-.13-1.1-.245-1.6-.348a.993.993,0,0,1-.842-.844C-2841.353,1150.755-2841.468,1150.252-2841.6,1149.647Zm-3.071,5.825.05.067.632-.351-.359-.328Z" transform="translate(2847.861 -1118.873)" fill="#fff"/>
        <path id="Trazado_195333" data-name="Trazado 195333" d="M-2781.226,1185.8a1.758,1.758,0,0,1-1.761-1.783,1.787,1.787,0,0,1,1.77-1.791,1.825,1.825,0,0,1,1.8,1.819A1.79,1.79,0,0,1-2781.226,1185.8Z" transform="translate(2788.113 -1177.228)" fill="#fff"/>
        <path id="Trazado_195334" data-name="Trazado 195334" d="M-2447.839,1519.873a1.788,1.788,0,0,1,1.756-1.8,1.807,1.807,0,0,1,1.811,1.8,1.8,1.8,0,0,1-1.786,1.777A1.774,1.774,0,0,1-2447.839,1519.873Z" transform="translate(2479.052 -1486.93)" fill="#fff"/>
      </g>
    </g>
  </g>
</svg>
