<svg xmlns="http://www.w3.org/2000/svg" width="106.805" height="87.65" viewBox="0 0 106.805 87.65">
  <g id="Grupo_155293" data-name="Grupo 155293" transform="translate(-866 -1127.55)">
    <path id="Polígono_50" data-name="Polígono 50" d="M12.5,0,25,19H0Z" transform="translate(885 1162.277) rotate(90)" fill="#3cafff"/>
    <g id="xoLwEa" transform="translate(4193.112 3790.982)">
      <g id="Grupo_154945" data-name="Grupo 154945" transform="translate(-3307.957 -2663.432)">
        <path id="Trazado_195353" data-name="Trazado 195353" d="M-3207.952-2663.432a1.9,1.9,0,0,1,.912,1.83q-.028,26.912-.015,53.823c0,1.459-.411,1.877-1.853,1.877q-39.216,0-78.433,0c-1.445,0-1.857-.417-1.857-1.875q0-26.875-.014-53.75a1.961,1.961,0,0,1,.914-1.905Zm-78.46,10.981v43.759h35.537v-.826c0-1.777-.017-3.554,0-5.332a4.132,4.132,0,0,1,2.455-3.909q4.177-2.086,8.334-4.214a1.718,1.718,0,0,0,.621-.476c.533-.75,1.028-1.529,1.528-2.283a.706.706,0,0,0-.1-.151,2.776,2.776,0,0,0-.243-.161,6.682,6.682,0,0,1-3.355-5.5c-.191-3.061-.381-6.125-.431-9.19a8.977,8.977,0,0,1,8.822-8.968,9.021,9.021,0,0,1,9.194,9.623q-.209,4.121-.411,8.241a6.88,6.88,0,0,1-3.194,5.683c-.174.117-.344.242-.554.391.376.568.758,1.073,1.063,1.621a3.34,3.34,0,0,0,1.592,1.415c2.614,1.243,5.207,2.529,7.8,3.808a4.148,4.148,0,0,1,2.495,4.031c-.012,1.655,0,3.311,0,4.966v1.239h5.426v-43.763Zm76.589-8.2h-76.589v5.378h76.589Zm-38.3,51.952h30.1c0-2.234.039-4.421-.037-6.6a1.62,1.62,0,0,0-.806-1.087c-1.65-.883-3.347-1.675-5.031-2.495a3.616,3.616,0,0,0-.495-.141c.722,1.443,1.391,2.762,2.043,4.089a1.389,1.389,0,0,1-1.348,2.179q-9.382.014-18.763-.016a1.928,1.928,0,0,1-1.171-.451,1.284,1.284,0,0,1-.168-1.672c.666-1.311,1.312-2.631,1.981-3.977-.132-.014-.185-.038-.218-.021-1.8.9-3.625,1.775-5.4,2.739a1.536,1.536,0,0,0-.663,1.111C-3248.155-2612.956-3248.121-2610.864-3248.121-2608.7Zm9.078-25.988h-.016c.046.923.1,1.845.137,2.769a4.114,4.114,0,0,0,4.024,4.091c1.239.049,2.482.052,3.721,0a4.049,4.049,0,0,0,3.925-3.557c.159-1.938.2-3.885.315-5.828.025-.427-.132-.583-.536-.687-2.117-.544-4.25-1.046-6.329-1.715a3.424,3.424,0,0,0-3.451.474,6.452,6.452,0,0,1-1.39.8.877.877,0,0,0-.559,1.034C-3239.124-2636.436-3239.094-2635.56-3239.043-2634.686Zm12.179-5.914c.4-3.055-2.5-6.209-5.76-6.351-3.548-.154-6.734,2.587-6.616,5.8.834-.469,1.642-.9,2.42-1.371a2.068,2.068,0,0,1,1.737-.224c2.505.683,5.019,1.335,7.531,2C-3227.328-2640.692-3227.1-2640.651-3226.865-2640.6Zm-6.113,21.752q1.355-1.374,2.711-2.748c.913-.919.916-.918.228-1.97a8.477,8.477,0,0,0-.741-1.081,1.241,1.241,0,0,0-.747-.424c-1.044-.048-2.092-.032-3.137-.009a.779.779,0,0,0-.552.246c-.534.746-1.028,1.521-1.528,2.272Zm-7.424,3.3h5.906c.084-.649-2.57-3.637-3.778-4.272Zm12.476-4.43c-1.244,1.257-2.416,2.418-3.55,3.614-.168.177-.162.521-.244.811h6Z" transform="translate(3291.949 2663.432)" fill="#fff"/>
        <path id="Trazado_195354" data-name="Trazado 195354" d="M-3307.957-2233.318c.616-1.063,1.677-.87,2.726-.889v-16.353h2.734v16.366h.935c7.716,0,15.432.008,23.147-.013a2.115,2.115,0,0,1,1.925.795c1.2,1.693,2.8,2.073,4.838,2.022,5.716-.143,11.438-.057,17.158-.039a1.373,1.373,0,0,0,1.263-.542c1.32-1.856,3.083-2.329,5.35-2.279,7.031.152,14.067.055,21.1.055h.983v-16.383h2.713v16.335c1.041.094,2.159-.169,2.776.924v7.6l-2.775,2.483h-82.1a8.866,8.866,0,0,1-1.009-1.268c-.628-1.163-1.182-2.366-1.766-3.553Zm2.812,1.907a7.03,7.03,0,0,0,.748,4.438,1.591,1.591,0,0,0,1.641,1.006q38.99-.037,77.981-.02c.146,0,.336.058.431-.012.441-.328,1.181-.659,1.221-1.05a42.769,42.769,0,0,0,.059-4.344h-5.454v2.6h-2.767v-2.606h-2.753v2.619h-2.722v-2.666h-.9c-3.188,0-6.384.132-9.562-.049a4.755,4.755,0,0,0-4.567,1.957,2.141,2.141,0,0,1-1.917.823c-6.814-.021-13.63-.033-20.444.01a2.979,2.979,0,0,1-2.61-1.111c-.33-.417-.771-.744-1.12-1.149a1.439,1.439,0,0,0-1.216-.493c-5.7.015-11.391.009-17.086.011-.257,0-.513.024-.835.04v2.684c-.7,0-1.327-.033-1.95.01-.589.04-.841-.133-.789-.765s.012-1.29.012-1.936Z" transform="translate(3307.957 2310.888)" fill="#fff"/>
        <path id="Trazado_195355" data-name="Trazado 195355" d="M-3102.939-2250.517h2.707c.013.288.032.525.033.762q0,5.514,0,11.028c0,1.4-.437,1.83-1.829,1.83h-55.662v-2.71h54.751Z" transform="translate(3179.641 2310.837)" fill="#fff"/>
        <path id="Trazado_195356" data-name="Trazado 195356" d="M-3251.784-2250.584h2.738v10.911h8.174V-2237c-.224.018-.434.048-.644.049q-4.271,0-8.542,0c-1.266,0-1.723-.456-1.724-1.712C-3251.787-2242.609-3251.784-2246.55-3251.784-2250.584Z" transform="translate(3259.991 2310.894)" fill="#fff"/>
        <path id="Trazado_195357" data-name="Trazado 195357" d="M-3230.184-2566.806v19.131h.868c6.061,0,12.122.01,18.182-.014a2.629,2.629,0,0,1,1.9.721c1.134,1.025,2.315,2,3.663,3.15v-1.287c0-2.461.118-2.572,2.611-2.572h2.862v-8.175h2.7c.017.212.044.4.044.585q0,4.271,0,8.543c0,1.3-.479,1.768-1.755,1.767h-3.745v3.112c0,.292-.008.584,0,.876a1.337,1.337,0,0,1-.791,1.36,1.343,1.343,0,0,1-1.55-.277c-1.774-1.519-3.562-3.023-5.317-4.564a2.006,2.006,0,0,0-1.445-.515q-9.53.025-19.059.01c-1.563,0-1.956-.386-1.956-1.925q0-10.442,0-20.884c0-1.406.419-1.823,1.827-1.823h31.91c1.459,0,1.881.414,1.882,1.85q0,4.126,0,8.251v.787h-2.713v-8.107Z" transform="translate(3243.919 2583.297)" fill="#fff"/>
        <path id="Trazado_195358" data-name="Trazado 195358" d="M-3195.454-2473.3c0-.779-.02-1.53.018-2.278.007-.138.23-.29.384-.387.088-.055.237-.013.359-.012q10.188,0,20.375,0c.215,0,.43.019.7.033v2.64Z" transform="translate(3211.893 2503.377)" fill="#fff"/>
        <path id="Trazado_195359" data-name="Trazado 195359" d="M-3176.927-2344.26h16.419v2.632c-.32.015-.6.039-.888.039-4.891,0-9.783-.013-14.674.018-.723,0-.934-.224-.868-.909C-3176.884-2343.053-3176.927-2343.636-3176.927-2344.26Z" transform="translate(3196.088 2390.885)" fill="#fff"/>
        <path id="Trazado_195360" data-name="Trazado 195360" d="M-3090.966-2513.06v2.652c-.254.016-.466.042-.678.042-3.157,0-6.315-.014-9.472.015-.61.006-.815-.171-.767-.776.049-.623.011-1.252.011-1.932Z" transform="translate(3131.993 2535.027)" fill="#fff"/>
        <path id="Trazado_195361" data-name="Trazado 195361" d="M-3184.143-2510.369h-10.808v-2.651h10.808Z" transform="translate(3211.459 2534.993)" fill="#fff"/>
        <path id="Trazado_195362" data-name="Trazado 195362" d="M-3227.275-2344.179v2.6h-5.379v-2.6Z" transform="translate(3243.655 2390.816)" fill="#fff"/>
        <path id="Trazado_195363" data-name="Trazado 195363" d="M-2819.9-2635.052h8.1v2.638h-8.1Z" transform="translate(2891.195 2639.198)" fill="#fff"/>
        <path id="Trazado_195364" data-name="Trazado 195364" d="M-3251.517-2632.35V-2635h2.663v2.65Z" transform="translate(3259.762 2639.153)" fill="#fff"/>
        <path id="Trazado_195365" data-name="Trazado 195365" d="M-3173.74-2632.285h-2.632v-2.66h2.632Z" transform="translate(3195.594 2639.107)" fill="#fff"/>
        <path id="Trazado_195366" data-name="Trazado 195366" d="M-3211.018-2635.069v2.653h-2.619v-2.653Z" transform="translate(3227.415 2639.212)" fill="#fff"/>
      </g>
    </g>
  </g>
</svg>
