<svg xmlns="http://www.w3.org/2000/svg" width="79" height="79" viewBox="0 0 79 79">
  <g id="Grupo_155271" data-name="Grupo 155271" transform="translate(9391.403 9003.324)">
    <g id="Icon" transform="translate(-9391.096 -9003.562)">
      <circle id="Base" cx="39.5" cy="39.5" r="39.5" transform="translate(-0.308 0.238)" fill="#fff"/>
      <g id="_5Yn4xZ.tif" data-name="5Yn4xZ.tif" transform="translate(628.135 -77.573)">
        <g id="Grupo_154293" data-name="Grupo 154293" transform="translate(-613.775 94.846)">
          <path id="Trazado_194620" data-name="Trazado 194620" d="M-599.384,211.786a7.114,7.114,0,0,1-.9-1,17.861,17.861,0,0,0-5.791-5.6.563.563,0,0,0-.442,0,3.55,3.55,0,0,1-4.745-1.735q-1.028-1.931-2.034-3.875a3.544,3.544,0,0,1,1.556-5.018c2.527-1.357,5.127-2.594,7.57-4.088a20.5,20.5,0,0,0,8.864-10.407c.184-.489.286-1.009.471-1.5a2.03,2.03,0,0,0-.21-1.9,1.181,1.181,0,0,1,.4-1.777,1.211,1.211,0,0,1,1.695.683q4.659,8.856,9.314,17.715,1.865,3.547,3.731,7.094a1.136,1.136,0,0,1,.019,1.295,1.268,1.268,0,0,1-1.189.556.937.937,0,0,1-.865-.633,2.533,2.533,0,0,0-1.913-1.552,19.049,19.049,0,0,0-8.944-.62,23.8,23.8,0,0,0-5.876,1.718c-.1.045-.2.1-.335.162.319.612.627,1.206.939,1.8q1.35,2.568,2.7,5.135c.554,1.054.384,1.58-.684,2.145l-2.644,1.4Zm-.749-12.616a24.12,24.12,0,0,1,15.994-1.721l-8.816-16.777c-2,5.41-5.727,9.251-10.485,12.206ZM-605.541,194c-1.711.9-3.377,1.768-5.039,2.645a1.2,1.2,0,0,0-.581,1.87q.987,1.894,1.989,3.78a1.224,1.224,0,0,0,1.9.6q2.351-1.225,4.695-2.464c.1-.051.187-.12.311-.2Zm1.7,9.79a21.076,21.076,0,0,1,5.268,5.231l.714-.4-3.285-6.245Z" transform="translate(613.775 -166.856)" fill="#12263f"/>
          <path id="Trazado_194621" data-name="Trazado 194621" d="M-319.465,121.872c-.085.344-.161.69-.256,1.031a10.294,10.294,0,0,1-6.716,7.049,12.643,12.643,0,0,1-7.067.541,1.2,1.2,0,0,0-.7.094c-1.051.5-2.09,1.023-3.126,1.553a1.19,1.19,0,0,1-1.38-.075,1.18,1.18,0,0,1-.4-1.365c.182-.663.331-1.335.509-2a.624.624,0,0,0-.232-.748,9.17,9.17,0,0,1-3.291-5.282,8.724,8.724,0,0,1,2.472-8.261,11.892,11.892,0,0,1,10.144-3.493,11.5,11.5,0,0,1,7.56,3.688,9,9,0,0,1,2.388,4.921,1.577,1.577,0,0,0,.092.276ZM-336.18,128.9a12.069,12.069,0,0,0,1.1-.553,2.4,2.4,0,0,1,1.927-.235A9.954,9.954,0,0,0-325,126.528a6.745,6.745,0,0,0,.693-10.933,10.308,10.308,0,0,0-13.238.057,6.6,6.6,0,0,0-.826,9.387,12.711,12.711,0,0,0,1.813,1.649,1.276,1.276,0,0,1,.543,1.452C-336.078,128.358-336.112,128.582-336.18,128.9Z" transform="translate(369.131 -109.262)" fill="#12263f"/>
          <path id="Trazado_194622" data-name="Trazado 194622" d="M-226.517,384.454a1.562,1.562,0,0,1-.795-1.644c.045-.484.008-.976.008-1.457a9.565,9.565,0,0,1-1.152-.163,2.718,2.718,0,0,1-2-2.666,1.174,1.174,0,0,1,1.057-1.159,1.141,1.141,0,0,1,1.279.965c.051.511.295.627.742.613.64-.02,1.281,0,1.921-.008a1.218,1.218,0,0,0,1.3-1.19,1.233,1.233,0,0,0-1.315-1.177,14.061,14.061,0,0,1-2.2-.1,3.452,3.452,0,0,1-2.779-3.412,3.528,3.528,0,0,1,2.716-3.479c.127-.031.253-.068.436-.117,0-.609,0-1.227,0-1.845a1.172,1.172,0,0,1,1.179-1.286,1.174,1.174,0,0,1,1.181,1.284c.005.574,0,1.149.009,1.724a.334.334,0,0,0,.032.094,8.948,8.948,0,0,1,1.1.156,2.716,2.716,0,0,1,2.012,2.657,1.172,1.172,0,0,1-1.1,1.172,1.143,1.143,0,0,1-1.247-1c-.05-.452-.261-.584-.675-.574-.656.017-1.313,0-1.97.007a1.221,1.221,0,0,0-1.312,1.178,1.23,1.23,0,0,0,1.3,1.189,14.415,14.415,0,0,1,2.252.11,3.446,3.446,0,0,1,2.741,3.393A3.534,3.534,0,0,1-224.5,381.2c-.141.035-.28.078-.445.124,0,.519-.039,1.031.009,1.534a1.531,1.531,0,0,1-.8,1.595Z" transform="translate(268.3 -339.524)" fill="#12263f"/>
          <path id="Trazado_194623" data-name="Trazado 194623" d="M-578.629,97.974c0-.642,0-1.249,0-1.855a1.17,1.17,0,0,1,1.193-1.272,1.167,1.167,0,0,1,1.165,1.25c.006.62,0,1.239,0,1.85a9.318,9.318,0,0,1,1.157.161,2.72,2.72,0,0,1,2,2.671,1.175,1.175,0,0,1-1.064,1.154,1.14,1.14,0,0,1-1.273-.973c-.051-.516-.306-.619-.748-.605-.623.02-1.248,0-1.872.007a1.228,1.228,0,0,0-1.342,1.2,1.237,1.237,0,0,0,1.325,1.17,13.84,13.84,0,0,1,2.2.1,3.451,3.451,0,0,1,2.769,3.422,3.532,3.532,0,0,1-2.729,3.471c-.127.031-.252.07-.422.117,0,.616,0,1.237,0,1.857a1.172,1.172,0,0,1-1.194,1.272,1.17,1.17,0,0,1-1.164-1.253c-.006-.619,0-1.239,0-1.847a9.482,9.482,0,0,1-1.159-.162,2.72,2.72,0,0,1-1.993-2.673,1.172,1.172,0,0,1,1.065-1.152,1.143,1.143,0,0,1,1.272.974c.051.474.262.616.7.6.656-.019,1.314,0,1.97-.008a1.217,1.217,0,0,0,1.291-1.2,1.223,1.223,0,0,0-1.277-1.165,14.555,14.555,0,0,1-2.159-.082,3.468,3.468,0,0,1-2.862-3.4A3.521,3.521,0,0,1-579,98.081C-578.892,98.054-578.783,98.018-578.629,97.974Z" transform="translate(584.942 -94.846)" fill="#12263f"/>
          <path id="Trazado_194624" data-name="Trazado 194624" d="M-261.81,168.01a3.028,3.028,0,0,1-.436.727q-3.062,3.1-6.159,6.168a1.133,1.133,0,0,1-1.734.018,1.127,1.127,0,0,1,.054-1.7q3.073-3.091,6.162-6.166a1.167,1.167,0,0,1,1.388-.315A1.265,1.265,0,0,1-261.81,168.01Z" transform="translate(304.39 -159.546)" fill="#12263f"/>
          <path id="Trazado_194625" data-name="Trazado 194625" d="M-265.168,173.059a1.171,1.171,0,0,1-1.2-1.156,1.168,1.168,0,0,1,1.156-1.2,1.167,1.167,0,0,1,1.2,1.155A1.171,1.171,0,0,1-265.168,173.059Z" transform="translate(300.669 -163.211)" fill="#12263f"/>
          <path id="Trazado_194626" data-name="Trazado 194626" d="M-208.121,227.748a1.171,1.171,0,0,1-1.156,1.2,1.171,1.171,0,0,1-1.2-1.157,1.168,1.168,0,0,1,1.156-1.2A1.167,1.167,0,0,1-208.121,227.748Z" transform="translate(250.295 -213.586)" fill="#12263f"/>
        </g>
      </g>
    </g>
  </g>
</svg>
