<svg xmlns="http://www.w3.org/2000/svg" width="112" height="112" viewBox="0 0 112 112">
  <g id="Grupo_155286" data-name="Grupo 155286" transform="translate(3221.951 8648.766)">
    <circle id="Elipse_5904" data-name="Elipse 5904" cx="56" cy="56" r="56" transform="translate(-3221.951 -8648.766)" fill="#baa1e1"/>
    <g id="VIJ9vr.tif" transform="translate(143.819 -7609.986)">
      <g id="Grupo_154926" data-name="Grupo 154926" transform="translate(-3347.685 -1017.836)">
        <path id="Trazado_195291" data-name="Trazado 195291" d="M-3327.162-1017.836h45.009a1.139,1.139,0,0,0,.239.13,5.624,5.624,0,0,1,4.428,5.709q0,14.607,0,29.214a5.618,5.618,0,0,1-5.678,5.706c-2.381.009-4.763,0-7.144,0h-.727v4.506c.147.013.26.025.373.033a5.465,5.465,0,0,1,5.029,4.175,35.812,35.812,0,0,1,.3,4.874h-1.008c-6.673,0-13.345-.008-20.018.016a3.713,3.713,0,0,0-1.534.365,18.6,18.6,0,0,1-7.331,1.876A18,18,0,0,1-3325.639-964a.662.662,0,0,0-.591-.044c-.787.7-1.537,1.441-2.454,2.318l1.837,1.555c-3.724,3.753-7.283,7.5-11.021,11.055a5.848,5.848,0,0,1-9.263-1.966c-.224-.485-.372-1-.555-1.508v-1.982a9.106,9.106,0,0,1,2.9-4.4c3.031-2.972,6.012-5.995,9.015-9,.175-.175.359-.34.654-.617l1.491,1.618,2.456-2.471s-.042-.081-.09-.162a17.915,17.915,0,0,1-.8-18.114,2.545,2.545,0,0,0,.216-1.08q.018-11.675.011-23.349a5.625,5.625,0,0,1,3.75-5.376C-3327.775-1017.623-3327.468-1017.728-3327.162-1017.836Zm40.6,27.2h-15.256a17.864,17.864,0,0,1,3.182,6.15c.147.522.378.637.875.635,4.27-.018,8.539-.01,12.809-.01h.637v-27.13h-40.688v15.9q10.76-5.481,20.449,1.617c1.408-3.407,1.408-3.407,4.812-5.73a5.7,5.7,0,0,1,.156-7.928,5.67,5.67,0,0,1,7.487-.435A5.531,5.531,0,0,1-3290-1004a5.7,5.7,0,0,1-1.489,4.813A8.174,8.174,0,0,1-3286.565-990.639Zm-11.257,11.3h.6q6.9,0,13.8,0a3.441,3.441,0,0,0,3.676-3.672q.008-14.435,0-28.869a3.446,3.446,0,0,0-3.724-3.695q-21.192,0-42.384,0a3.446,3.446,0,0,0-3.715,3.7q-.007,9.906,0,19.812c0,.2.028.392.047.646.625-.6,1.16-1.162,1.757-1.651a1.244,1.244,0,0,0,.472-1.091q-.019-8.35-.007-16.7a2.248,2.248,0,0,1,2.46-2.451q20.167,0,40.332,0a2.249,2.249,0,0,1,2.492,2.491q0,13.338,0,26.676a2.261,2.261,0,0,1-2.524,2.532q-6.333,0-12.666,0h-.786Zm-18.163,15.851a15.926,15.926,0,0,0,15.858-15.834,15.922,15.922,0,0,0-15.815-15.874,15.922,15.922,0,0,0-15.892,15.867A15.925,15.925,0,0,0-3315.985-963.484Zm-19.266-1.7c-3.1,3.085-6.214,6.132-9.26,9.248a3.291,3.291,0,0,0-.687,3.557,3.642,3.642,0,0,0,6.093,1.33c2.934-2.9,5.838-5.827,8.753-8.745a2.216,2.216,0,0,0,.214-.283Zm31.559-.624h16.02c0-.389.009-.719,0-1.048a3.4,3.4,0,0,0-3.422-3.417c-2.923-.03-5.846-.015-8.768,0a.916.916,0,0,0-.625.317C-3301.58-968.571-3302.644-967.169-3303.692-965.807ZM-3289-992.949a5.344,5.344,0,0,0-4.363-4.351,17.486,17.486,0,0,0-3.868-.1,5.4,5.4,0,0,0-4.965,4.454Zm-3.207-10.182a3.447,3.447,0,0,0-3.392-3.381,3.449,3.449,0,0,0-3.4,3.444,3.452,3.452,0,0,0,3.427,3.347A3.45,3.45,0,0,0-3292.2-1003.13Zm-1.174,30.569v-4.476h-4.539l-1.158,4.476Zm-36.174,5.3-2.085,2.1,1.5,1.7,2.2-2.219Z" transform="translate(3347.685 1017.836)" fill="#fff"/>
        <path id="Trazado_195292" data-name="Trazado 195292" d="M-3152.486-919.475h-19.127v-2.2h19.127Z" transform="translate(3196.584 935.313)" fill="#fff"/>
        <path id="Trazado_195293" data-name="Trazado 195293" d="M-3125.2-953.6v2.174h-14.648V-953.6Z" transform="translate(3169.324 962.712)" fill="#fff"/>
        <path id="Trazado_195294" data-name="Trazado 195294" d="M-3169.495-951.414h-2.146v-2.2h2.146Z" transform="translate(3196.608 962.719)" fill="#fff"/>
        <path id="Trazado_195295" data-name="Trazado 195295" d="M-3206.368-815a13.569,13.569,0,0,1-13.554-13.651,13.565,13.565,0,0,1,13.616-13.518,13.564,13.564,0,0,1,13.553,13.651A13.571,13.571,0,0,1-3206.368-815Zm-11.294-13.607a11.39,11.39,0,0,0,11.267,11.347,11.392,11.392,0,0,0,11.382-11.3,11.386,11.386,0,0,0-11.268-11.345A11.386,11.386,0,0,0-3217.662-828.608Z" transform="translate(3238.042 867.084)" fill="#fff"/>
        <path id="Trazado_195296" data-name="Trazado 195296" d="M-3189.905-787.828l4.866-4.852,2.08,2.164,6.685-6.7,4.939,4.938-11.521,11.521Zm7,4.015,8.406-8.41-1.724-1.775-6.717,6.732-2.028-2.134-1.771,1.725Z" transform="translate(3212.282 828.505)" fill="#fff"/>
      </g>
    </g>
  </g>
</svg>
