<svg xmlns="http://www.w3.org/2000/svg" width="112" height="112" viewBox="0 0 112 112">
  <g id="Grupo_155287" data-name="Grupo 155287" transform="translate(2917.197 8648.928)">
    <circle id="Elipse_5905" data-name="Elipse 5905" cx="56" cy="56" r="56" transform="translate(-2917.197 -8648.928)" fill="#baa1e1"/>
    <g id="LGw7fX.tif" transform="translate(673.127 -7546.429)">
      <g id="Grupo_154927" data-name="Grupo 154927" transform="translate(-3571.255 -1086.719)">
        <path id="Trazado_195297" data-name="Trazado 195297" d="M-3548.878-1009.964c-.7-2.817.623-4.612,2.339-6.274.8-.773,1.383-1.789,2.244-2.469,3.029-2.394,3.939-5.705,4.2-9.308a2.09,2.09,0,0,0-.493-1.517c-2.527-2.293-2.885-4.992-1.7-8.042a6.734,6.734,0,0,1,.278-.733c1.019-1.911.828-3.556-.951-4.955a6.185,6.185,0,0,1-1.238-1.519,3.267,3.267,0,0,1,1.411-4.933c.767-.356,1.6-.576,2.388-.882a7.17,7.17,0,0,0,3.968-2.824,5.812,5.812,0,0,1,9.906.1c2.567,4.567,5.887,6.413,11.065,5.647a3.924,3.924,0,0,1,4.481,4.1,4.164,4.164,0,0,1-4.34,4.114c-3.343.065-6.691.083-10.032-.021a10.793,10.793,0,0,1-2.8-.921l-1.727,4.715c2.069.855,4.027,1.726,6.031,2.475a5.273,5.273,0,0,1,3.547,4.3c.767,3.98,1.66,7.935,2.445,11.911.21,1.068.218,2.176.33,3.385h2.094a1.464,1.464,0,0,0,.2-.4c.37-3.821.369-3.821,4.193-3.821h9.634c0-2.727,0-5.263,0-7.8,0-2.768,0-2.766,2.841-2.873.259-.01.516-.059,1-.116.032-.688.09-1.382.092-2.077.009-3.672-.107-7.349.051-11.016a3.5,3.5,0,0,0-2.111-3.695c-2.3-1.237-4.484-2.7-6.709-4.088-2.053-1.277-2.074-2.136-.069-3.4,2.273-1.428,4.586-2.8,6.835-4.261.79-.515,1.4-1.3,2.175-1.846a2.155,2.155,0,0,1,1.526-.5c.424.126.8.765.978,1.258a4.872,4.872,0,0,1,.048,1.562q0,12.886,0,25.773v2.031c.256.174.356.3.465.307,3.9.306,3.9.305,3.9,4.206,0,7.738-.041,15.478.031,23.215.016,1.705-.509,2.287-2.243,2.283q-29.315-.07-58.63,0c-1.742,0-2.336-.588-2.244-2.289.11-2.027.021-4.065.027-6.1.009-2.592.1-2.685,2.63-2.712C-3550.292-1009.969-3549.774-1009.964-3548.878-1009.964Zm-1.7,2.721v5.7h57.435v-24.09h-5.542c0,1.906.006,3.67,0,5.433-.022,5.769.572,5.053-4.99,5.084-2.867.016-5.735,0-8.676,0-.045.735-.095,1.245-.106,1.756-.051,2.41-.167,2.53-2.622,2.535-2.493.006-4.985,0-7.478,0h-7.568c-.321,3.579-.321,3.579-3.716,3.58Zm29.866-34.924a49.066,49.066,0,0,0,5.335-.062c.59-.07,1.1-.845,1.642-1.3a15.171,15.171,0,0,0-1.707-1.5,1.771,1.771,0,0,0-1.158-.028c-5.373,1.055-9.142-.918-11.473-5.876a3.59,3.59,0,0,0-3.942-2.322c-1.869.294-2.654,1.7-3.2,3.338-1.488,4.465-3.016,8.917-4.534,13.372-1.019,2.989-.336,4.52,2.608,5.7,2.913,1.17,5.819,2.361,8.766,3.438a3.9,3.9,0,0,1,2.764,3.217c.53,2.892,1.178,5.763,1.736,8.65.243,1.259.843,2.2,2.208,1.9,1.346-.293,1.555-1.4,1.274-2.649-.616-2.743-1.188-5.5-1.8-8.241-1.488-6.708-.036-4.938-6.283-7.6-5.49-2.341-5.135-1.187-3.074-6.829.964-2.637,1.928-4.952-.88-7.052-.331-.247-.1-1.251-.123-1.9a5.864,5.864,0,0,1,2.1.216,4.58,4.58,0,0,1,1.435,1.583C-3526.855-1042.932-3524.112-1041.114-3520.712-1042.167Zm-10.883,16.746c.546,6.865-5.309,10.268-8.391,15.311h6.962c.37-3.411-.521-3.42,3.695-3.4.973.005,1.946,0,3.091,0-.625-3.053-1.381-5.894-1.74-8.786C-3528.24-1024.415-3529.325-1025.2-3531.594-1025.421Zm-5.354-2.552c-.338.427-.461.516-.487.627a6.483,6.483,0,0,0-.2,1.154,11.678,11.678,0,0,1-3.973,8.613,53.909,53.909,0,0,0-4.1,4.5c-.811.911-1,1.9.021,2.74.965.792,1.835.358,2.542-.5q2.5-3.029,4.986-6.071c.87-1.064,2.053-2.014,2.517-3.235a22.153,22.153,0,0,0,1.351-6.208C-3534.255-1026.822-3535.99-1027.417-3536.948-1027.974Zm39.314-19.444v-7.625l-6.169,3.834Zm-42.445,3.415,1.425-4.384-3.665,1.48Z" transform="translate(3560.494 1070.261)" fill="#fff"/>
        <path id="Trazado_195298" data-name="Trazado 195298" d="M-3499.226-1086.718a6.04,6.04,0,0,1,6.043,6.34,5.976,5.976,0,0,1-6.189,5.979,6.011,6.011,0,0,1-6.134-6.239A6,6,0,0,1-3499.226-1086.718Zm-.081,2.694a3.384,3.384,0,0,0-3.484,3.429,3.34,3.34,0,0,0,3.412,3.48,3.372,3.372,0,0,0,3.5-3.4A3.454,3.454,0,0,0-3499.307-1084.024Z" transform="translate(3531.457 1086.719)" fill="#fff"/>
        <path id="Trazado_195299" data-name="Trazado 195299" d="M-3564.23-1016.863c1.832,0,3.671-.1,5.489.056.588.049,1.123.747,1.682,1.148-.546.5-1.079,1.423-1.643,1.443-3.658.131-7.324.122-10.983,0-.537-.017-1.048-.852-1.571-1.308.576-.448,1.119-1.22,1.734-1.281C-3567.772-1016.978-3566-1016.864-3564.23-1016.863Z" transform="translate(3571.255 1044.457)" fill="#fff"/>
        <path id="Trazado_195300" data-name="Trazado 195300" d="M-3560.086-996.873a42.793,42.793,0,0,1-4.5-.056c-.53-.056-.992-.746-1.485-1.147.49-.493.961-1.391,1.471-1.414,3.065-.134,6.142-.133,9.207,0,.512.022.987.91,1.479,1.4-.488.407-.946,1.111-1.47,1.164A46.887,46.887,0,0,1-3560.086-996.873Z" transform="translate(3568.118 1033.979)" fill="#fff"/>
        <path id="Trazado_195301" data-name="Trazado 195301" d="M-3557.184-981.938a33.68,33.68,0,0,1,3.9.051c.482.056,1.3.755,1.255,1.046-.091.564-.668,1.475-1.077,1.494-2.856.131-5.723.124-8.58.008-.416-.017-1.184-.935-1.105-1.282a1.961,1.961,0,0,1,1.319-1.258A35.528,35.528,0,0,1-3557.184-981.938Z" transform="translate(3566.135 1023.316)" fill="#fff"/>
      </g>
    </g>
  </g>
</svg>
