<svg xmlns="http://www.w3.org/2000/svg" width="108.419" height="108.419" viewBox="0 0 108.419 108.419">
  <g id="Grupo_155306" data-name="Grupo 155306" transform="translate(-283.455 -9923.487)">
    <circle id="Elipse_5974" data-name="Elipse 5974" cx="54.209" cy="54.209" r="54.209" transform="translate(283.455 9923.487)" fill="#baa1e1"/>
    <g id="Grupo_155205" data-name="Grupo 155205" transform="translate(304.797 9940.45)">
      <path id="Trazado_97027" data-name="Trazado 97027" d="M-2567.549,1752.243a1.647,1.647,0,0,1,.728,1.617c-.034.773.006,1.548-.012,2.322s-.467,1.283-1.1,1.278-1.061-.5-1.073-1.294.027-1.6-.013-2.395a1.537,1.537,0,0,1,.744-1.528Z" transform="translate(2602.148 -1752.243)" fill="#fff"/>
      <path id="Trazado_97028" data-name="Trazado 97028" d="M-2701.981,1867.2c0,1.266.008,2.4,0,3.537a2.414,2.414,0,0,1-2.687,2.7q-4.619.009-9.238,0a2.412,2.412,0,0,1-2.681-2.7c-.008-1.137,0-2.274,0-3.529-.546,0-1.045.011-1.543,0a2.451,2.451,0,0,1-2.57-2.341,21.243,21.243,0,0,1,.012-2.757,2.439,2.439,0,0,1,1.256-2.007.964.964,0,0,0,.354-.685c.041-.968-.015-1.941.035-2.908a.837.837,0,0,0-.6-.921,23.956,23.956,0,0,1-8.749-6.823,24.369,24.369,0,0,1-5.517-14.405,24.273,24.273,0,0,1,5.482-16.958,24.061,24.061,0,0,1,15.927-8.986,23.778,23.778,0,0,1,11.033,1.068,1.537,1.537,0,0,0,1.426-.036,1.659,1.659,0,0,1,2,.374,13.229,13.229,0,0,1,1.027,1.03.713.713,0,0,0,.933.244.719.719,0,0,0,.484-.837c-.022-.484-.026-.971,0-1.454a1.849,1.849,0,0,1,1.911-1.868q1.891-.028,3.782,0a1.806,1.806,0,0,1,1.885,1.872,15.372,15.372,0,0,0,.03,1.6.945.945,0,0,0,.5.635.968.968,0,0,0,.8-.117,12.7,12.7,0,0,0,1.041-1.011,1.854,1.854,0,0,1,2.831.011q1.329,1.293,2.609,2.636a1.833,1.833,0,0,1-.013,2.667c-.312.338-.631.673-.975.977a.751.751,0,0,0-.258.992c.194.468.485.522.9.5.46-.023.921-.02,1.381,0a1.813,1.813,0,0,1,1.845,1.772c.045,1.356.046,2.716,0,4.073a1.81,1.81,0,0,1-1.861,1.754c-.461.014-.923.027-1.382,0a.765.765,0,0,0-.891.517c-.2.468-.025.707.28.988.356.329.7.676,1.021,1.036a1.8,1.8,0,0,1,.037,2.5c-.909.975-1.835,1.94-2.83,2.824a7.106,7.106,0,0,1-1.67.8c-.048.571-.1,1.337-.181,2.1-.093.857-.541,1.277-1.233,1.2-.666-.077-.979-.612-.918-1.475.075-1.064.123-2.129.165-3.194a5.237,5.237,0,0,0-.08-.769c-1.062.114-1.133.19-1.137,1.123,0,.485.013.971-.023,1.453a1.745,1.745,0,0,1-1.641,1.649q-2.107.059-4.218,0a1.81,1.81,0,0,1-1.7-1.772,15.24,15.24,0,0,1,0-1.527c.012-.388-.03-.668-.477-.843a.722.722,0,0,0-.936.231,11.742,11.742,0,0,1-1.082,1.077,1.743,1.743,0,0,1-2.5,0c-1.012-.94-1.981-1.928-2.921-2.941a1.769,1.769,0,0,1,0-2.337,5.527,5.527,0,0,1,.911-.936c.669-.5.7-1.033.154-1.7-.617,0-1.295.015-1.972,0a1.813,1.813,0,0,1-1.836-1.849c-.022-1.309-.027-2.619,0-3.928a1.809,1.809,0,0,1,1.794-1.817c.508-.021,1.019-.02,1.527,0,.372.015.627-.044.776-.457.137-.381.194-.662-.161-.957a11.3,11.3,0,0,1-.978-.975,1.87,1.87,0,0,1,.009-2.83,9.722,9.722,0,0,1,1.022-.8l-.137-.363c-1.66-.291-3.309-.717-4.981-.849a21.727,21.727,0,0,0-15.634,4.649,21.551,21.551,0,0,0-8.517,14.932c-1.078,9.625,2.58,17.116,10.675,22.417a22.94,22.94,0,0,0,3.038,1.544,1.432,1.432,0,0,1,.949,1.465c-.023,1.4-.007,2.8-.007,4.246h1.439v-7.677c-1.742-.44-2.045-.828-2.045-2.609,0-.727-.017-1.456.012-2.182a1.77,1.77,0,0,1,1.768-1.756c.92-.029,1.843-.026,2.764,0a1.815,1.815,0,0,1,1.849,1.77c.048.968.05,1.941,0,2.909-.049,1.024-.609,1.5-2.083,1.884v7.651h3.276v-.74c0-2.716,0-5.431,0-8.146,0-.848.435-1.32,1.133-1.285.67.034,1.042.513,1.044,1.394q.011,4,.006,8v.775h2.235v-4.662c0-1.091.036-2.184-.021-3.272a1.815,1.815,0,0,0-.433-1.093c-2.536-2.606-5.106-5.18-7.668-7.761a2.747,2.747,0,0,0-.27-.215c-1.444.829-1.984.755-3.138-.415-.494-.5-1-.991-1.477-1.506a1.82,1.82,0,0,1-.011-2.611q.893-.957,1.845-1.858a1.833,1.833,0,0,1,2.822,0c.443.414.858.857,1.286,1.286,1.351,1.352,1.4,1.988.164,3.625.418.365.881.722,1.29,1.131,2.23,2.228,4.438,4.477,6.672,6.7a3.606,3.606,0,0,1,1.131,2.728c-.026,2.376-.008,4.752-.008,7.128v.813h1.543V1847.6c-.111-.019-.22-.045-.332-.058a1.844,1.844,0,0,1-1.773-1.855c-.041-.9-.043-1.795-.011-2.691a1.846,1.846,0,0,1,1.928-1.927c.848-.03,1.7-.023,2.546.005a1.83,1.83,0,0,1,1.932,1.913c.029.751.012,1.5.009,2.255-.006,1.508-.518,2.112-2.073,2.367v5.939c1.264-.794,2.419-1.431,3.478-2.2a22.146,22.146,0,0,0,6.824-8.091c.535-1.066,1.074-1.37,1.754-1.035s.732.953.19,2.017a24.342,24.342,0,0,1-11.59,11.3.967.967,0,0,0-.671,1.1,14.85,14.85,0,0,1,.009,1.745,2.164,2.164,0,0,0,.85,2.152c1.3.964,1.279,4.815.065,5.908a3.876,3.876,0,0,1-1.675.732A7.933,7.933,0,0,1-2701.981,1867.2Zm.39-38.144,2.282,2.3c1.018-.914,1.792-2.226,3.6-1.673,2.167.663,2.551,2.192,2.265,4.15h3.273c-.1-1.682-.092-3.166,1.849-3.983,1.991-.838,2.965.4,3.992,1.466l2.355-2.251c-1.2-1.092-2.329-2.115-1.532-4.082.8-1.984,2.363-1.914,3.973-1.861v-3.259c-1.672.115-3.156.083-3.969-1.84-.84-1.987.384-3.005,1.461-4.046l-2.286-2.3c-1.06,1.164-2.072,2.3-4.047,1.458-1.936-.826-1.861-2.356-1.813-3.952h-3.264c.217,1.834.021,3.326-2.035,4.059-1.893.675-2.765-.567-3.738-1.522l-2.337,2.246c1.2,1.082,2.27,2.141,1.471,4.09s-2.339,1.877-3.931,1.828v3.262c1.742-.145,3.227-.034,3.989,1.946C-2699.3,1827-2700.441,1827.978-2701.591,1829.058Zm-7.689,35.969v0c2.833,0,5.665-.01,8.5.008.554,0,.81-.176.779-.751a11.3,11.3,0,0,1,.005-1.452c.049-.652-.188-.9-.87-.893-2.227.034-4.455.013-6.682.013-3.39,0-6.78.012-10.169-.011-.631,0-.893.2-.853.836a10.274,10.274,0,0,1,0,1.379c-.046.645.176.9.866.89C-2714.9,1865.008-2712.09,1865.027-2709.281,1865.027Zm5.049,5.24h-10.129c-.087.99-.087.991.809.991,2.854,0,5.708-.028,8.561.015C-2704.228,1871.285-2704.039,1871.018-2704.232,1870.268Zm.031-3h-10.208l.055.719h10.152Zm-11.081-26.412,1.476-1.421-1.442-1.387-1.366,1.447Zm13.65,4.464h1.957v-2h-1.957Zm-11.675,4.411v-2.005h-1.952v2.005Z" transform="translate(2743.026 -1798.952)" fill="#fff"/>
      <path id="Trazado_97029" data-name="Trazado 97029" d="M-2581.5,1960.391c-1.9-.533-2.133-.852-2.133-2.835,0-.6-.02-1.211.007-1.815a1.875,1.875,0,0,1,1.989-1.939c.823-.01,1.646-.012,2.469,0a1.835,1.835,0,0,1,1.949,1.889c.03.7.012,1.4.012,2.105,0,1.707-.362,2.165-2.107,2.577v1.4q0,2.4,0,4.792c0,1.035-.379,1.551-1.115,1.541-.713-.011-1.064-.5-1.066-1.5q-.006-2.759-.005-5.518C-2581.5,1960.844-2581.5,1960.607-2581.5,1960.391Zm2.047-2.323v-2.047h-1.937v2.047Z" transform="translate(2614.637 -1924.412)" fill="#fff"/>
      <path id="Trazado_97030" data-name="Trazado 97030" d="M-2649.155,1936.9c.436,0,.871-.011,1.306,0a1.828,1.828,0,0,1,1.893,1.8,28.607,28.607,0,0,1-.009,2.9,1.77,1.77,0,0,1-1.766,1.764,26.252,26.252,0,0,1-2.829.007,1.8,1.8,0,0,1-1.783-1.831c-.042-.893-.036-1.791-.009-2.685a1.871,1.871,0,0,1,2.035-1.96C-2649.929,1936.892-2649.542,1936.9-2649.155,1936.9Zm.981,2.214h-1.95v2.047h1.95Z" transform="translate(2673.347 -1909.976)" fill="#fff"/>
      <path id="Trazado_97031" data-name="Trazado 97031" d="M-2614.893,1886.021c-.459,0-.92.015-1.379,0a1.787,1.787,0,0,1-1.777-1.745c-.033-.99-.032-1.984,0-2.975a1.739,1.739,0,0,1,1.715-1.719c.966-.042,1.935-.042,2.9,0a1.792,1.792,0,0,1,1.761,1.773c.045.966.047,1.937,0,2.9a1.832,1.832,0,0,1-1.917,1.77c-.435.008-.871,0-1.306,0Zm1.007-2.21V1881.8h-1.949v2.009Z" transform="translate(2644.048 -1860.99)" fill="#fff"/>
      <path id="Trazado_97032" data-name="Trazado 97032" d="M-2778.716,1893.7a5.883,5.883,0,0,1,.62.163c.934.393,1.876.768,2.792,1.2a1.021,1.021,0,0,1,.59,1.379,1.053,1.053,0,0,1-1.436.6c-.943-.367-1.869-.783-2.784-1.215a.938.938,0,0,1-.573-1.25A3.459,3.459,0,0,1-2778.716,1893.7Z" transform="translate(2782.018 -1873.083)" fill="#fff"/>
      <path id="Trazado_97033" data-name="Trazado 97033" d="M-2794.924,1959.233c.929.117,1.914.218,2.891.371a1.062,1.062,0,0,1,.954,1.163,1.114,1.114,0,0,1-1.23.976c-.985-.092-1.968-.211-2.944-.366a1.077,1.077,0,0,1-.99-1.2A1.162,1.162,0,0,1-2794.924,1959.233Z" transform="translate(2796.254 -1929.058)" fill="#fff"/>
      <path id="Trazado_97034" data-name="Trazado 97034" d="M-2693.976,1791.632a3.136,3.136,0,0,1,.769.606c.546.734,1.033,1.513,1.516,2.291a1.108,1.108,0,0,1-.227,1.6,1.089,1.089,0,0,1-1.565-.39c-.552-.789-1.089-1.594-1.579-2.423C-2695.527,1792.532-2695.059,1791.658-2693.976,1791.632Z" transform="translate(2709.966 -1785.891)" fill="#fff"/>
      <path id="Trazado_97035" data-name="Trazado 97035" d="M-2789.646,2022.639c.726.02,1.155.283,1.26.9a.977.977,0,0,1-.769,1.216c-1.056.241-2.126.437-3.2.573a.961.961,0,0,1-1.1-.843.971.971,0,0,1,.734-1.234C-2791.667,2022.993-2790.594,2022.823-2789.646,2022.639Z" transform="translate(2793.885 -1983.223)" fill="#fff"/>
      <path id="Trazado_97036" data-name="Trazado 97036" d="M-2633.557,1762.65c.173.179.61.448.763.83a23.111,23.111,0,0,1,.848,2.765,1.081,1.081,0,0,1-.731,1.436,1.1,1.1,0,0,1-1.36-.875c-.283-.872-.556-1.749-.79-2.635C-2635.046,1763.342-2634.6,1762.682-2633.557,1762.65Z" transform="translate(2658.405 -1761.133)" fill="#fff"/>
      <path id="Trazado_97037" data-name="Trazado 97037" d="M-2740.672,1840.005c.016.95-.888,1.54-1.569,1.057a26.381,26.381,0,0,1-2.615-2.187.87.87,0,0,1-.018-1.308c.291-.256.968-.49,1.192-.333a33.509,33.509,0,0,1,2.845,2.349C-2740.711,1839.693-2740.7,1839.931-2740.672,1840.005Z" transform="translate(2752.609 -1824.801)" fill="#fff"/>
      <path id="Trazado_97038" data-name="Trazado 97038" d="M-2767.387,2079.036a4.781,4.781,0,0,1,.962.935.87.87,0,0,1-.356,1.2c-.986.553-2,1.069-3.027,1.536a.846.846,0,0,1-1.172-.427c-.139-.351-.172-1.046.023-1.177C-2769.848,2080.368-2768.656,2079.753-2767.387,2079.036Z" transform="translate(2774.762 -2031.398)" fill="#fff"/>
      <path id="Trazado_97039" data-name="Trazado 97039" d="M-2729.549,2129.642c.249.2.654.369.785.663a1.2,1.2,0,0,1-.053,1.06,28.3,28.3,0,0,1-2.495,2.407.928.928,0,0,1-1.361-.183.93.93,0,0,1-.063-1.32c.775-.823,1.617-1.586,2.453-2.351A2.567,2.567,0,0,1-2729.549,2129.642Z" transform="translate(2742.205 -2074.627)" fill="#fff"/>
      <path id="Trazado_97050" data-name="Trazado 97050" d="M-2496.32,1862.636a7.546,7.546,0,0,1,9.766-7.261,1.107,1.107,0,0,1,.9,1.41,1.105,1.105,0,0,1-1.534.683,5.34,5.34,0,0,0-4.34.509,5.436,5.436,0,0,0-2.168,6.781,5.31,5.31,0,0,0,6.647,2.922,5.405,5.405,0,0,0,3.461-6.151c-.046-.213-.108-.423-.146-.637a1.086,1.086,0,0,1,.784-1.352,1.077,1.077,0,0,1,1.329.829,7.537,7.537,0,0,1-.15,4.92,7.541,7.541,0,0,1-9.574,4.442A7.634,7.634,0,0,1-2496.32,1862.636Z" transform="translate(2540.042 -1840.057)" fill="#fff"/>
      <path id="Trazado_97051" data-name="Trazado 97051" d="M-2467.132,1888.36a3.833,3.833,0,0,1-3.831-3.835,3.841,3.841,0,0,1,3.8-3.793,3.807,3.807,0,0,1,3.815,3.838A3.8,3.8,0,0,1-2467.132,1888.36Zm1.589-3.84a1.6,1.6,0,0,0-1.629-1.6,1.653,1.653,0,0,0-1.594,1.651,1.643,1.643,0,0,0,1.648,1.595A1.6,1.6,0,0,0-2465.542,1884.52Z" transform="translate(2518.382 -1862.002)" fill="#fff"/>
    </g>
  </g>
</svg>
