<svg xmlns="http://www.w3.org/2000/svg" width="108.419" height="108.419" viewBox="0 0 108.419 108.419">
  <g id="Grupo_155307" data-name="Grupo 155307" transform="translate(-579.101 -9921.208)">
    <circle id="Elipse_5896" data-name="Elipse 5896" cx="54.209" cy="54.209" r="54.209" transform="translate(579.101 9921.208)" fill="#baa1e1"/>
    <g id="Grupo_154900" data-name="Grupo 154900" transform="translate(607.823 9941.481)">
      <path id="Trazado_114962" data-name="Trazado 114962" d="M-1034.87,1393.608a15.068,15.068,0,0,1-1.61.184q-19.428.016-38.856.011c-.225,0-.45,0-.674-.016a1.073,1.073,0,0,1-1.138-1.2c-.018-1.1-.034-2.2.005-3.294.022-.6-.206-.787-.784-.766-.922.034-1.847.017-2.77,0-.89-.018-1.272-.4-1.283-1.29-.015-1.1-.005-2.2-.005-3.294q0-25.006,0-50.011c0-1.559.274-1.831,1.82-1.831h38.782c1.481,0,1.773.3,1.774,1.8,0,.948.013,1.9-.007,2.844-.009.439.127.625.6.61.9-.03,1.8-.009,2.695,0,1.156.009,1.526.377,1.526,1.519,0,3.718.008,7.437-.01,11.155a1.234,1.234,0,0,0,.515,1.069,29.047,29.047,0,0,1,9.036,12.082,19.542,19.542,0,0,1,.863,9.654c-.265,2.073-.562,4.153-.643,6.238a13.023,13.023,0,0,0,1.391,6.3,21.022,21.022,0,0,0,1.4,2.2c.852,1.29,1.718,2.571,2.566,3.863.633.965.519,1.485-.452,2.11q-4.468,2.873-8.942,5.736c-1.146.733-1.594.642-2.332-.468-1.008-1.516-2.006-3.038-3.011-4.556C-1034.573,1394.012-1034.751,1393.775-1034.87,1393.608Zm-8.534-18.424a3.929,3.929,0,0,0-.514-.628c-.448-.365-.913-.7-.439-1.229l-.733-.182a3.2,3.2,0,0,1,.594-.522,3.891,3.891,0,0,1,.818-.229l-.059-.257-1.782.388a2.3,2.3,0,0,1-.274-.526c-.216-.957-.861-1.049-1.72-1.045-6.389.033-12.778.019-19.167.019-1.291,0-1.813-.332-1.81-1.145,0-.77.532-1.095,1.771-1.095q9.733,0,19.466.01c.56,0,.9-.1,1.106-.707a2.354,2.354,0,0,1,2.033-1.656,18.242,18.242,0,0,1,2.152-.016v-31.916h-37.765v1.094q0,24.894,0,49.789c0,.967,0,.966.987.966q17.744,0,35.489,0c1.609,0,1.329.146,1.349-1.346a33.717,33.717,0,0,1,.069-4.409c.29-1.977.2-3.742-1.393-5.159a2.878,2.878,0,0,1-.2-.217c.361-.393.745-.808.409-1.373a3.692,3.692,0,0,0-.716-.69l-.237.163C-1042.908,1373.7-1043.281,1374.47-1043.4,1375.184Zm8.919-21.412-.262.148c-.014.188-.039.376-.04.565-.005,1.547-.043,3.1.016,4.64a2.264,2.264,0,0,0,.5,1.316,8.9,8.9,0,0,1,2.059,3.933,23.353,23.353,0,0,1,.623,3.826,13.321,13.321,0,0,1-1.946,8.511,1.72,1.72,0,0,1-1.562.835,2.457,2.457,0,0,1-1.984-1.172c-.882-1.293-1.671-2.651-2.474-4-.46-.769-.826-1.6-1.318-2.344a2.971,2.971,0,0,0-2.463-1.48c-.536-.016-.816.235-.831.735-.045,1.5.857,2.583,1.7,3.665s1.755,2.074,2.6,3.136c.079.1-.1.4-.167.651l.732.119c0,1.6-.062,3.188.015,4.772.1,2.028.275,4.138,1.691,5.7a57.246,57.246,0,0,0,4.628,4.141c2.107-1.346,4.607-2.936,7.089-4.553a.644.644,0,0,0,.116-.6,20.5,20.5,0,0,1-1.115-12.241,21.211,21.211,0,0,0,.288-7.069,20.256,20.256,0,0,0-4.342-9.24C-1032.019,1356.368-1033.291,1355.1-1034.484,1353.772Zm-5.309,34.59a16.772,16.772,0,0,1-1.672.168q-15.68.015-31.36.009c-2.122,0-2.091,0-2.111,2.126-.007.736.246.9.941.9q18.037-.029,36.075-.015h.783l.124-.232Zm2.538-16.547.154-.05V1339.7h-2.5v1c0,8.5.016,17.008-.02,25.511a4.463,4.463,0,0,0,.884,2.962A19.863,19.863,0,0,1-1037.255,1371.815Zm15.256,20.231-2.214-3.327-7.889,4.9,2.284,3.439Zm-12.763-18.083c1.366-2.079,1.1-8.469,0-9.573Z" transform="translate(1081.987 -1332.103)" fill="#fff"/>
      <path id="Trazado_114968" data-name="Trazado 114968" d="M-766.642,1557.272V1547.7C-765.545,1548.8-765.276,1555.193-766.642,1557.272Z" transform="translate(813.868 -1515.412)" fill="#fff"/>
      <path id="Trazado_114969" data-name="Trazado 114969" d="M-827.591,1607.928l.023.019c.122-.713.5-1.485-.567-1.919l.237-.163a3.685,3.685,0,0,1,.716.69C-826.846,1607.12-827.23,1607.535-827.591,1607.928Z" transform="translate(866.152 -1564.867)" fill="#fff"/>
      <path id="Trazado_114970" data-name="Trazado 114970" d="M-1029.5,1382.743a11.875,11.875,0,0,0,1.231.8,4.057,4.057,0,0,1,2.235,3.24c.111.663.258,1.32.349,1.985a1.116,1.116,0,0,1-.906,1.327,1.153,1.153,0,0,1-1.307-.957,20,20,0,0,0-.481-2.259,3.951,3.951,0,0,0-.9-1.272,4.228,4.228,0,0,0-.875-.568c-.854-.542-1.674-1.19-2.8-.765a.919.919,0,0,1-.519,0c-1.822-.468-2.92.9-4.1,1.79-.509.384-.514,1.448-.726,2.209-.086.31-.1.641-.173.955a1.045,1.045,0,0,1-1.211.869.959.959,0,0,1-.964-1.111,21.346,21.346,0,0,1,1.021-4.026c.244-.61,1.051-1.009,1.633-1.466a13.741,13.741,0,0,1,1.216-.766,5.014,5.014,0,0,1-.961-4.707,4.584,4.584,0,0,1,1.83-2.476,4.876,4.876,0,0,1,5.956.368C-1028.074,1377.618-1027.917,1379.777-1029.5,1382.743Zm-3.675-5.8a2.575,2.575,0,0,0-2.547,2.518,2.58,2.58,0,0,0,2.582,2.561,2.583,2.583,0,0,0,2.51-2.554A2.6,2.6,0,0,0-1033.171,1376.944Z" transform="translate(1046.857 -1368.319)" fill="#fff"/>
      <path id="Trazado_114971" data-name="Trazado 114971" d="M-1021.235,1501.393q-6.7,0-13.4,0a4.416,4.416,0,0,1-.745-.028,1.167,1.167,0,0,1-1.02-1.193,1.193,1.193,0,0,1,1.155-1.063c.174-.013.349-.005.524-.005h26.791c1.221,0,1.752.345,1.755,1.133s-.567,1.157-1.743,1.157Z" transform="translate(1043.225 -1474.092)" fill="#fff"/>
      <path id="Trazado_114973" data-name="Trazado 114973" d="M-1021.274,1656.241h-13.473c-1.087-.009-1.61-.376-1.6-1.123s.535-1.127,1.632-1.125c4.811.007,9.623.032,14.434.034q6.355,0,12.711-.035c.651,0,1.208.127,1.395.841.219.84-.347,1.447-1.324,1.444q-5.239-.015-10.478-.036C-1019.079,1656.238-1020.176,1656.241-1021.274,1656.241Z" transform="translate(1043.185 -1605.786)" fill="#fff"/>
      <path id="Trazado_114981" data-name="Trazado 114981" d="M-1021.274,1656.241h-13.473c-1.087-.009-1.61-.376-1.6-1.123s.535-1.127,1.632-1.125c4.811.007,9.623.032,14.434.034q6.355,0,12.711-.035c.651,0,1.208.127,1.395.841.219.84-.347,1.447-1.324,1.444q-5.239-.015-10.478-.036C-1019.079,1656.238-1020.176,1656.241-1021.274,1656.241Z" transform="translate(1043.185 -1610.434)" fill="#fff"/>
      <path id="Trazado_114974" data-name="Trazado 114974" d="M-980.158,1540.149h-9.881c-.275,0-.55.01-.823-.014a1.091,1.091,0,0,1-1.064-1.125,1.083,1.083,0,0,1,1.033-1.085,5.914,5.914,0,0,1,.822-.012l20.211,0a4.428,4.428,0,0,1,.448.01,1.073,1.073,0,0,1,1.046,1.134,1.026,1.026,0,0,1-1.089,1.078c-1.472.027-2.944.017-4.416.018Q-977.014,1540.151-980.158,1540.149Z" transform="translate(1005.415 -1507.082)" fill="#fff"/>
      <path id="Trazado_114975" data-name="Trazado 114975" d="M-915.949,1383.072q2.58,0,5.159,0c.934,0,1.467.412,1.467,1.118s-.5,1.157-1.448,1.159q-5.27.008-10.541-.033c-.83-.006-1.279-.443-1.268-1.148.01-.681.482-1.086,1.322-1.091C-919.488,1383.066-917.718,1383.073-915.949,1383.072Z" transform="translate(946.452 -1375.438)" fill="#fff"/>
      <path id="Trazado_114976" data-name="Trazado 114976" d="M-915.962,1462.764c-1.744,0-3.489,0-5.233,0-.883,0-1.348-.411-1.342-1.145.006-.7.451-1.1,1.3-1.107q5.308-.017,10.615,0a1.186,1.186,0,0,1,1.334,1.1c0,.686-.529,1.144-1.372,1.148C-912.423,1462.771-914.193,1462.765-915.962,1462.764Z" transform="translate(946.416 -1441.273)" fill="#fff"/>
      <path id="Trazado_114977" data-name="Trazado 114977" d="M-915.985,1424.1c-1.744,0-3.488,0-5.231,0-.9,0-1.372-.395-1.377-1.109s.487-1.118,1.371-1.119q5.231-.006,10.463,0c.9,0,1.41.4,1.426,1.074.018.728-.493,1.151-1.42,1.154C-912.5,1424.1-914.241,1424.1-915.985,1424.1Z" transform="translate(946.464 -1408.42)" fill="#fff"/>
      <path id="Trazado_114978" data-name="Trazado 114978" d="M-1025.875,1540.57a1.152,1.152,0,0,1-1.2-1.159,1.171,1.171,0,0,1,1.244-1.125,1.134,1.134,0,0,1,1.193,1.163A1.137,1.137,0,0,1-1025.875,1540.57Z" transform="translate(1035.302 -1507.408)" fill="#fff"/>
      <path id="Trazado_114979" data-name="Trazado 114979" d="M-1024.749,1577.429a1.122,1.122,0,0,1-1.179,1.168,1.194,1.194,0,0,1-1.271-1.108,1.234,1.234,0,0,1,1.21-1.184A1.156,1.156,0,0,1-1024.749,1577.429Z" transform="translate(1035.405 -1539.733)" fill="#fff"/>
      <path id="Trazado_114980" data-name="Trazado 114980" d="M-925.661,1628.487l1.383-.063.009.188c-.739.219-1.156.174-1.372-.147Z" transform="translate(949.072 -1584.047)" fill="#fff"/>
    </g>
  </g>
</svg>
