<svg xmlns="http://www.w3.org/2000/svg" width="45.168" height="112.682" viewBox="0 0 45.168 112.682">
  <g id="Grupo_154297" data-name="Grupo 154297" transform="translate(0 0)">
    <g id="Grupo_152551" data-name="Grupo 152551" transform="translate(0 112.683) rotate(-90)">
      <rect id="Rectángulo_45220" data-name="Rectángulo 45220" width="104.895" height="31.235" transform="translate(112.682 31.235) rotate(180)" fill="#e8e8e8"/>
      <g id="Grupo_152556" data-name="Grupo 152556" transform="translate(0 17.303)">
        <rect id="Rectángulo_45221" data-name="Rectángulo 45221" width="5.308" height="5.308" transform="translate(78.953 22.558)" fill="#7f4fc7"/>
        <rect id="Rectángulo_45222" data-name="Rectángulo 45222" width="5.308" height="5.308" transform="translate(67.674 22.558)" fill="#7f4fc7"/>
        <rect id="Rectángulo_45223" data-name="Rectángulo 45223" width="5.308" height="5.308" transform="translate(56.395 22.558)" fill="#7f4fc7"/>
        <rect id="Rectángulo_45224" data-name="Rectángulo 45224" width="5.308" height="5.308" transform="translate(45.116 22.558)" fill="#7f4fc7"/>
        <rect id="Rectángulo_45225" data-name="Rectángulo 45225" width="5.308" height="5.308" transform="translate(33.837 22.558)" fill="#7f4fc7"/>
        <rect id="Rectángulo_45226" data-name="Rectángulo 45226" width="5.308" height="5.308" transform="translate(22.558 22.558)" fill="#7f4fc7"/>
        <rect id="Rectángulo_45227" data-name="Rectángulo 45227" width="5.308" height="5.308" transform="translate(11.279 22.558)" fill="#7f4fc7"/>
        <rect id="Rectángulo_45228" data-name="Rectángulo 45228" width="5.308" height="5.308" transform="translate(0 22.558)" fill="#7f4fc7"/>
        <rect id="Rectángulo_45232" data-name="Rectángulo 45232" width="5.308" height="5.308" transform="translate(78.953 11.279)" fill="#7f4fc7"/>
        <rect id="Rectángulo_45233" data-name="Rectángulo 45233" width="5.308" height="5.308" transform="translate(67.674 11.279)" fill="#7f4fc7"/>
        <rect id="Rectángulo_45234" data-name="Rectángulo 45234" width="5.308" height="5.308" transform="translate(56.395 11.279)" fill="#7f4fc7"/>
        <rect id="Rectángulo_45235" data-name="Rectángulo 45235" width="5.308" height="5.308" transform="translate(45.116 11.279)" fill="#7f4fc7"/>
        <rect id="Rectángulo_45236" data-name="Rectángulo 45236" width="5.308" height="5.308" transform="translate(33.837 11.279)" fill="#7f4fc7"/>
        <rect id="Rectángulo_45237" data-name="Rectángulo 45237" width="5.308" height="5.308" transform="translate(22.558 11.279)" fill="#7f4fc7"/>
        <rect id="Rectángulo_45238" data-name="Rectángulo 45238" width="5.308" height="5.308" transform="translate(11.279 11.279)" fill="#7f4fc7"/>
        <rect id="Rectángulo_45239" data-name="Rectángulo 45239" width="5.308" height="5.308" transform="translate(0 11.279)" fill="#7f4fc7"/>
        <rect id="Rectángulo_45243" data-name="Rectángulo 45243" width="5.308" height="5.308" transform="translate(78.953)" fill="#7f4fc7"/>
        <rect id="Rectángulo_45244" data-name="Rectángulo 45244" width="5.308" height="5.308" transform="translate(67.674)" fill="#7f4fc7"/>
        <rect id="Rectángulo_45245" data-name="Rectángulo 45245" width="5.308" height="5.308" transform="translate(56.395)" fill="#7f4fc7"/>
        <rect id="Rectángulo_45246" data-name="Rectángulo 45246" width="5.308" height="5.308" transform="translate(45.116)" fill="#7f4fc7"/>
        <rect id="Rectángulo_45247" data-name="Rectángulo 45247" width="5.308" height="5.308" transform="translate(33.837)" fill="#7f4fc7"/>
        <rect id="Rectángulo_45248" data-name="Rectángulo 45248" width="5.308" height="5.308" transform="translate(22.558)" fill="#7f4fc7"/>
        <rect id="Rectángulo_45249" data-name="Rectángulo 45249" width="5.308" height="5.308" transform="translate(11.279)" fill="#7f4fc7"/>
        <rect id="Rectángulo_45250" data-name="Rectángulo 45250" width="5.308" height="5.308" fill="#7f4fc7"/>
      </g>
    </g>
  </g>
</svg>
