<svg xmlns="http://www.w3.org/2000/svg" width="79" height="79" viewBox="0 0 79 79">
  <g id="Grupo_155272" data-name="Grupo 155272" transform="translate(9141.403 9003.324)">
    <g id="Icon" transform="translate(-9141.096 -9003.562)">
      <circle id="Base" cx="39.5" cy="39.5" r="39.5" transform="translate(-0.308 0.238)" fill="#fff"/>
      <g id="_2u8svH.tif" data-name="2u8svH.tif" transform="translate(328.177 -912.165)">
        <g id="Grupo_154294" data-name="Grupo 154294" transform="translate(-311.062 926)">
          <path id="Trazado_194627" data-name="Trazado 194627" d="M-278.179,973.51c-.3-.089-.606-.171-.905-.27a5.1,5.1,0,0,1-2.931-2.387.723.723,0,0,0-.744-.418q-13.837.014-27.674.008h-.595c-.013-.15-.032-.272-.032-.394,0-1.9-.007-3.8.007-5.7a.848.848,0,0,1,.189-.546q3.617-3.656,7.259-7.287a2,2,0,0,1,.161-.129l4.578,3.817c.71-.715,1.405-1.417,2.1-2.117q3.041-3.049,6.088-6.091a.631.631,0,0,0,.183-.7c-.3-1.249-.546-2.509-.827-3.837h-2.907V936.726c-.394,0-.754,0-1.113,0a1.939,1.939,0,0,1-1.716-2.891q2-3.479,4.14-6.88c.263-.417.832-.641,1.259-.954h.956a3.131,3.131,0,0,1,1.665,1.545q1.706,2.934,3.488,5.823a2.229,2.229,0,0,1-.021,2.761c.18-.1.246-.124.3-.163a14.134,14.134,0,0,1,10.451-2.107,13.457,13.457,0,0,1,10.774,10.015c.15.647.262,1.3.392,1.955v2.49a2.721,2.721,0,0,0-.092.366,13.536,13.536,0,0,1-1.955,5.59,19.681,19.681,0,0,1-3.768,4.108,5.252,5.252,0,0,0-.928,1.354.731.731,0,0,0,.153.912,1.753,1.753,0,0,1,.369.712,2.3,2.3,0,0,1-.925,2.6c.477,1.3.259,2.385-.726,2.976a1.051,1.051,0,0,0-.55,1.1,5.257,5.257,0,0,1-2.118,4.391,6.623,6.623,0,0,1-2.46,1.081Zm6.155-13.809a4.666,4.666,0,0,1,1.773-2.715c.474-.426.957-.844,1.416-1.286a11.9,11.9,0,0,0,.294-16.851,12.058,12.058,0,0,0-11.108-3.473,11.907,11.907,0,0,0-8.563,17.411,14.1,14.1,0,0,0,3.536,4.1,4.783,4.783,0,0,1,1.841,2.812Zm-17.624-24.5c.818,0,1.58,0,2.341,0,.707,0,.87-.28.512-.88q-1.875-3.139-3.757-6.274c-.387-.645-.866-.643-1.257.006q-1.355,2.253-2.7,4.511c-.385.642-.778,1.28-1.149,1.931-.208.365-.04.661.377.7.158.016.318,0,.478,0h2.114v10.7h1.554c.021-.1.043-.177.05-.254a13.411,13.411,0,0,1,1.228-4.345,2.292,2.292,0,0,0,.2-.909C-289.638,938.681-289.648,936.974-289.648,935.2Zm1.508,33.7c.01-.106.021-.168.021-.23q0-6.365,0-12.73a.685.685,0,0,0-.074-.361c-.507-.763-1.028-1.517-1.6-2.355-.358.384-.7.781-1.075,1.144a.945.945,0,0,0-.316.747q.015,6.652.008,13.3c0,.154.014.309.022.48Zm-4.587-12.678c-.981.989-1.888,1.885-2.767,2.808a1.051,1.051,0,0,0-.263.657c-.017,2.921-.012,5.841-.012,8.762v.443h3.042Zm-9.2,12.677a.7.7,0,0,0,.036-.131q0-4.4,0-8.8a.608.608,0,0,0-.184-.4c-.413-.373-.848-.721-1.317-1.113-.431.448-.871.867-1.26,1.328a1.2,1.2,0,0,0-.281.7c-.02,2.647-.013,5.295-.011,7.942,0,.154.014.309.022.481Zm20.72-1.5a3.934,3.934,0,0,0,1.906,4.061,3.625,3.625,0,0,0,4.126-.235,3.959,3.959,0,0,0,1.562-3.827Zm-2.82-3.427a2.313,2.313,0,0,1-.44-3.5.715.715,0,0,0,.084-.478c-.2-1.3-1.32-1.845-2.175-2.693v11.592h3.792c0-.475.016-.921-.01-1.364a.522.522,0,0,0-.211-.362A2.3,2.3,0,0,1-284.026,963.967Zm-13.31,4.937v-8.093l-1.386,1.52-1.6-1.308V968.9Zm19.871-6.121c1.765,0,3.531.005,5.3,0a.791.791,0,0,0,.868-.762.8.8,0,0,0-.862-.77c-.111,0-.223,0-.334,0h-8.97c-.414,0-.828-.012-1.24,0a.786.786,0,0,0-.814.856c.062.428.4.673.951.675Q-280.018,962.788-277.465,962.783Zm-29.035,6.112V961.6c-.811.814-1.526,1.605-2.321,2.3a2.006,2.006,0,0,0-.729,1.782c.06,1.06.015,2.126.015,3.208Zm29.087-3.046h1.383c1.049,0,2.1.009,3.148-.006a.78.78,0,0,0,.816-.763.8.8,0,0,0-.818-.764c-.127-.008-.254,0-.382,0h-6.726c-.652,0-1.3-.006-1.956,0a.689.689,0,0,0-.763.58,1.141,1.141,0,0,0,.293.777,1,1,0,0,0,.663.169C-280.307,965.856-278.86,965.849-277.413,965.849Zm-10.7-27.322,1.73-1.873-1.73.116Z" transform="translate(311.062 -926)" fill="#12263f"/>
          <path id="Trazado_194628" data-name="Trazado 194628" d="M-270.158,1016.452v10.7h-6.105v-10.7c-.392,0-.751,0-1.11,0a1.938,1.938,0,0,1-1.726-2.885q2-3.479,4.125-6.887a2.055,2.055,0,0,1,3.494-.019q2.142,3.423,4.152,6.928a1.936,1.936,0,0,1-1.713,2.863C-269.39,1016.456-269.74,1016.452-270.158,1016.452Zm-4.575-1.529v10.689h3.063v-10.689c.794,0,1.555,0,2.315,0,.714,0,.881-.275.526-.871q-1.886-3.158-3.78-6.311c-.369-.615-.853-.606-1.229.021q-1.893,3.155-3.779,6.313c-.329.551-.168.842.465.847C-276.374,1014.928-275.6,1014.923-274.733,1014.923Z" transform="translate(282.395 -998.063)" fill="#12263f"/>
          <path id="Trazado_194629" data-name="Trazado 194629" d="M10.5,1079.939v-1.55h1.5v1.54a3.116,3.116,0,0,1,2.333,2.952l-1.512.079a1.572,1.572,0,0,0-1.16-1.489,1.511,1.511,0,0,0-1.846.952,1.435,1.435,0,0,0,.932,1.836c.462.17.935.307,1.4.468a3,3,0,0,1,.1,5.739c-.072.028-.141.062-.237.1v1.546H10.526v-1.526a3.2,3.2,0,0,1-2.29-3.774h1.5c0,.272-.011.539,0,.8a1.53,1.53,0,0,0,3.016.291,1.457,1.457,0,0,0-1-1.685c-.447-.165-.9-.3-1.355-.454a3,3,0,0,1-.1-5.752Z" transform="translate(22.385 -1063.792)" fill="#12263f"/>
          <path id="Trazado_194630" data-name="Trazado 194630" d="M-62.19,1045.261l-1.37-.541a10.253,10.253,0,0,1,9.9-6.624v1.5a9.163,9.163,0,0,0-5.115,1.479A8.935,8.935,0,0,0-62.19,1045.261Z" transform="translate(87.267 -1027.349)" fill="#12263f"/>
          <path id="Trazado_194631" data-name="Trazado 194631" d="M79.474,1186.026l-1.235-.9c.479-.477.905-.944,1.375-1.362a12.349,12.349,0,0,0,3.062-3.437c.18-.352.347-.711.543-1.113l1.385.515C83.758,1182.534,81.419,1184.1,79.474,1186.026Z" transform="translate(-40.949 -1154.955)" fill="#12263f"/>
          <path id="Trazado_194632" data-name="Trazado 194632" d="M-71.6,1124.3l1.513.31-.181,1.363h-1.551Z" transform="translate(94.731 -1105.303)" fill="#12263f"/>
          <path id="Trazado_194633" data-name="Trazado 194633" d="M136.052,1150.217l-.189,1.663-1.523-.294.169-1.37Z" transform="translate(-91.677 -1128.74)" fill="#12263f"/>
        </g>
      </g>
    </g>
  </g>
</svg>
