<svg id="Grupo_154287" data-name="Grupo 154287" xmlns="http://www.w3.org/2000/svg" xmlns:xlink="http://www.w3.org/1999/xlink" width="87.339" height="87.338" viewBox="0 0 87.339 87.338">
  <defs>
    <radialGradient id="radial-gradient" cx="0.076" cy="0.019" r="1.465" gradientTransform="translate(0.001)" gradientUnits="objectBoundingBox">
      <stop offset="0" stop-color="#f6f6f7"/>
      <stop offset="0.477" stop-color="#f9f9fa"/>
      <stop offset="0.715" stop-color="#fff"/>
    </radialGradient>
  </defs>
  <g id="Grupo_18423" data-name="Grupo 18423" transform="translate(0 0)">
    <g id="Grupo_18421" data-name="Grupo 18421">
      <g id="Grupo_18420" data-name="Grupo 18420">
        <g id="Grupo_18419" data-name="Grupo 18419">
          <path id="Trazado_40936" data-name="Trazado 40936" d="M281.962,2189.389a43.669,43.669,0,1,1-43.669-43.668A43.669,43.669,0,0,1,281.962,2189.389Z" transform="translate(-194.623 -2145.721)" fill="#fff"/>
        </g>
      </g>
    </g>
    <path id="Trazado_40937" data-name="Trazado 40937" d="M281.7,2189.1a43.669,43.669,0,1,0-43.669,43.67A43.5,43.5,0,0,0,281.7,2189.1Z" transform="translate(-194.361 -2145.436)" fill="url(#radial-gradient)"/>
    <path id="Trazado_40938" data-name="Trazado 40938" d="M269.1,2186.859a33.332,33.332,0,1,0-33.333,33.333A33.209,33.209,0,0,0,269.1,2186.859Z" transform="translate(-191.968 -2143.046)" fill="none" stroke="#2194e5" stroke-miterlimit="10" stroke-width="4"/>
    <g id="Grupo_18422" data-name="Grupo 18422" transform="translate(7.736 24.517)">
      <path id="Trazado_40939" data-name="Trazado 40939" d="M275.732,2164.488a43.675,43.675,0,0,1-75.187,43.488,43.536,43.536,0,0,0,75.187-43.488Z" transform="translate(-200.545 -2164.488)" fill="#eceef0"/>
    </g>
  </g>
  <g id="yFnX6p.tif" transform="translate(-263.349 -1154.728)">
    <g id="Grupo_154295" data-name="Grupo 154295" transform="translate(291.749 1178.274)">
      <path id="Trazado_194634" data-name="Trazado 194634" d="M301.543,1178.274h9.875a5.822,5.822,0,0,1,.984.769.705.705,0,0,0,.616.307c1.886-.01,3.772.02,5.658-.013a2.417,2.417,0,0,1,2.558,2.545c-.055,2.822-.016,5.646-.017,8.469,0,.619-.184.906-.586.921s-.623-.29-.623-.923q0-4.174,0-8.348c0-1.06-.352-1.408-1.423-1.408h-5.856v1.492h.506c1.19,0,2.381-.007,3.571,0a1.474,1.474,0,0,1,1.541.981,2.725,2.725,0,0,1,.109.827q.009,7.847,0,15.693v.5h1.548c0-.934,0-1.841,0-2.749,0-1.258,0-2.515,0-3.773,0-.473.319-.766.731-.67.376.088.481.366.48.728-.007,2.1-.01,4.2.006,6.3a.842.842,0,0,0,.239.531,1.52,1.52,0,0,1,.532,1.247c-.045.451.321.409.544.553s.349.051.511-.107a1.5,1.5,0,0,1,2.3.029c.457.451.909.907,1.363,1.362a1.57,1.57,0,0,1,.1,2.538.422.422,0,0,0-.036.373c.1.207.262.551.394.549a1.777,1.777,0,0,1,1.752,1.143v3.212a1.629,1.629,0,0,1-1.632,1.106c-.41-.031-.414.266-.546.493-.142.243-.033.38.132.548a1.506,1.506,0,0,1-.008,2.3c-.45.458-.907.91-1.361,1.363a1.58,1.58,0,0,1-2.593.06.541.541,0,0,0-.4-.082c-.368.062-.529.254-.515.679a1.477,1.477,0,0,1-1.558,1.562q-1.084.005-2.167,0a2.338,2.338,0,0,1-.556-.044,1.538,1.538,0,0,1-1.143-1.63c0-.25,0-.442-.3-.563a.531.531,0,0,0-.689.144,1.51,1.51,0,0,1-2.381,0,2.544,2.544,0,0,1-.253-.257.814.814,0,0,0-.731-.305q-9.029.012-18.058.005a2.276,2.276,0,0,1-2.407-2.377q0-16.316,0-32.632a2.521,2.521,0,0,1,.046-.557,2.31,2.31,0,0,1,2.408-1.822c1.94-.007,3.879,0,5.819-.006.133,0,.344-.026.385-.108A2.264,2.264,0,0,1,301.543,1178.274Zm-1.238,5.051h-3.979c-.575,0-.576,0-.576.583q0,7.729,0,15.458c0,.184.023.421-.076.54a.911.911,0,0,1-.591.349c-.178,0-.386-.225-.516-.4a.864.864,0,0,1-.057-.468q0-7.769,0-15.538a1.553,1.553,0,0,1,1.778-1.767c1.177,0,2.355,0,3.532,0,.14,0,.281-.013.422-.021v-1.47h-5.912c-1,0-1.367.369-1.367,1.384q0,16.06,0,32.121c0,1.049.374,1.422,1.427,1.423h16.579c.14,0,.279-.012.335-.015l-.107-1.5H296.252a1.544,1.544,0,0,1-1.746-1.754q0-4.7.007-9.4a2.866,2.866,0,0,1,.02-.4.59.59,0,0,1,.6-.542.624.624,0,0,1,.616.574,2.883,2.883,0,0,1,.007.361q0,4.658,0,9.315c0,.6.006.609.6.609q7.527,0,15.053,0c.138,0,.275-.016.412-.025l.024-.157a2.075,2.075,0,0,0-.447-.108,1.562,1.562,0,0,1-1.738-1.769c0-.583,0-1.165,0-1.765h-2.346c-.134,0-.268.005-.4,0a.6.6,0,0,1-.631-.629.57.57,0,0,1,.624-.586c.9-.013,1.793,0,2.689-.015a.712.712,0,0,0,.448-.178,1.544,1.544,0,0,1,1.263-.5c.382.036.535-.125.563-.518h-.431q-2.188,0-4.376,0a.694.694,0,0,1-.751-.414c-.165-.435.151-.828.681-.833,1.124-.01,2.248,0,3.372,0h.867a1.748,1.748,0,0,1,.649-1.743c.452-.417.873-.868,1.309-1.3a1.515,1.515,0,0,1,2.384-.032c.169.165.31.228.519.1s.535-.1.488-.507a1.345,1.345,0,0,1,.382-1.143.842.842,0,0,0,.263-.667q-.011-8.03-.006-16.061c0-.08,0-.161,0-.241.008-.229-.087-.348-.33-.347-1.4,0-2.808,0-4.2,0a1.847,1.847,0,0,1-2.042,1.245c-2.77,0-5.54-.014-8.309.008A1.884,1.884,0,0,1,300.305,1183.325Zm23.858,33.345a2.6,2.6,0,0,0,.341-.237c.374-.363.739-.737,1.109-1.1.722-.718.736-.631.009-1.351-.458-.453-.472-.56-.19-1.118a2.172,2.172,0,0,0,.25-.544,1.205,1.205,0,0,1,1.572-1.087c.319.049.464-.124.457-.448-.01-.481,0-.963,0-1.445-.008-1.1.15-1.1-1.044-1.074a.694.694,0,0,1-.756-.571,2.453,2.453,0,0,0-.266-.709,1.16,1.16,0,0,1,.328-1.811c.262-.188.238-.413.006-.639-.461-.447-.909-.907-1.364-1.361-.4-.4-.454-.4-.866.014-.67.668-.67.668-1.508.281a1.558,1.558,0,0,0-.367-.156,1.188,1.188,0,0,1-1.1-1.55c.047-.3-.128-.439-.431-.436q-1.043.008-2.087,0c-.3,0-.487.125-.436.428.153.922-.285,1.3-1.115,1.66-.857.371-1.455.442-2.015-.368-.16-.231-.376-.215-.578-.01q-.762.771-1.532,1.533a.362.362,0,0,0,.011.589c.182.177.357.362.54.538a.677.677,0,0,1,.141.839q-.264.6-.489,1.225a.671.671,0,0,1-.685.5c-.268,0-.535,0-.8,0s-.422.125-.421.413c0,.723,0,1.445,0,2.168a.345.345,0,0,0,.4.39c.294,0,.589-.005.883.005a.666.666,0,0,1,.656.489c.15.413.328.817.515,1.214a.643.643,0,0,1-.132.8c-.208.208-.415.418-.623.626a.346.346,0,0,0,0,.557c.512.51,1.025,1.019,1.531,1.534a.369.369,0,0,0,.615-.019c.183-.195.38-.377.566-.569a.654.654,0,0,1,.835-.143,11.551,11.551,0,0,0,1.178.5.694.694,0,0,1,.516.72c0,.268.006.535,0,.8s.116.424.4.423c.722,0,1.445,0,2.167,0a.348.348,0,0,0,.394-.394c0-.254.007-.509,0-.763a.689.689,0,0,1,.561-.764,3.44,3.44,0,0,0,.676-.246c1.14-.583,1.069-.323,1.77.343C323.9,1216.46,324.022,1216.553,324.163,1216.67Zm-17.724-33.331q2.207,0,4.415,0c.462,0,.632-.165.636-.623q.01-1.284,0-2.569c0-.485-.17-.656-.651-.657q-4.355,0-8.709,0c-.486,0-.653.167-.656.652q-.008,1.265,0,2.529c0,.513.16.668.671.669Q304.293,1183.341,306.44,1183.339Z" transform="translate(-291.749 -1178.274)" fill="#12263f"/>
      <path id="Trazado_194635" data-name="Trazado 194635" d="M366.228,1478.291c.707,0,1.414.006,2.121-.007a.451.451,0,0,0,.288-.153c.3-.343.574-.705.871-1.049a.6.6,0,0,1,.91-.143.612.612,0,0,1,.029.924,5.132,5.132,0,0,0-.966,1.263,4.939,4.939,0,0,0,.03,1.542c.012.829.008,1.659,0,2.489a1.491,1.491,0,0,1-1.567,1.6q-1.705.022-3.411,0a1.454,1.454,0,0,1-1.545-1.534q-.031-1.725,0-3.452a1.481,1.481,0,0,1,1.591-1.535c.548,0,1.1,0,1.645,0Zm1.26,1.251c-.077-.033-.11-.06-.144-.06-.922,0-1.844,0-2.766-.006-.315,0-.365.181-.363.445.008,1.056.011,2.112,0,3.167,0,.326.108.455.441.451q1.583-.02,3.167,0c.328,0,.457-.111.451-.441-.014-.721,0-1.443-.006-2.165a2.941,2.941,0,0,0-.047-.339c-.481.589-.909,1.118-1.344,1.642a.631.631,0,0,1-1.058.085c-.306-.279-.6-.567-.9-.859a.613.613,0,1,1,.85-.873c.166.146.325.3.5.457Z" transform="translate(-357.244 -1452.769)" fill="#12263f"/>
      <path id="Trazado_194636" data-name="Trazado 194636" d="M366.33,1374.237c.668,0,1.336.008,2-.008a.5.5,0,0,0,.317-.171c.291-.331.558-.684.843-1.02a.619.619,0,0,1,.913-.134.6.6,0,0,1,.043.891,5.161,5.161,0,0,0-.986,1.3,5.3,5.3,0,0,0,.031,1.62c.012.8.008,1.6,0,2.407a1.5,1.5,0,0,1-1.609,1.6q-1.685,0-3.369,0a1.437,1.437,0,0,1-1.537-1.451q-.049-1.8,0-3.61a1.432,1.432,0,0,1,1.542-1.443c.6,0,1.2,0,1.8,0Zm1.918,2.394-.092-.016c-.441.537-.874,1.079-1.324,1.609a.615.615,0,0,1-1.028.054q-.444-.406-.873-.828a.632.632,0,0,1-.1-.921c.265-.288.6-.275.952.039.153.137.3.281.468.437l1.285-1.582c-1.056,0-2.015,0-2.974,0-.246,0-.36.121-.359.374q.007,1.664,0,3.328c0,.254.115.376.357.377,1.109,0,2.219.01,3.328-.011.122,0,.342-.175.345-.274C368.259,1378.356,368.247,1377.493,368.247,1376.631Z" transform="translate(-357.228 -1357.11)" fill="#12263f"/>
      <path id="Trazado_194637" data-name="Trazado 194637" d="M364.487,1276.789c0-.575-.005-1.151,0-1.726a1.457,1.457,0,0,1,1.536-1.535c1.282.006,2.565.033,3.847.041a.392.392,0,0,0,.249-.146c.3-.345.574-.705.869-1.051a.614.614,0,0,1,.91-.158.623.623,0,0,1,.043.925c-.288.369-.6.722-.884,1.091a.553.553,0,0,0-.133.313c.01.532.057,1.064.065,1.6.012.789.007,1.579,0,2.368a1.442,1.442,0,0,1-1.464,1.523q-1.785.031-3.572,0a1.433,1.433,0,0,1-1.467-1.517C364.481,1277.94,364.487,1277.365,364.487,1276.789Zm4.546-2.033c-1.078,0-2.063-.01-3.046.016-.1,0-.275.225-.277.348-.022,1.11-.013,2.221-.012,3.332a.327.327,0,0,0,.369.371c1.111,0,2.221,0,3.332,0,.281,0,.378-.153.378-.4q0-.5,0-1,0-.748,0-1.5a18.783,18.783,0,0,0-1.379,1.56c-.386.471-.687.489-1.14.069-.294-.273-.593-.542-.875-.827a.612.612,0,1,1,.837-.89c.18.151.346.32.535.5Z" transform="translate(-358.632 -1264.527)" fill="#12263f"/>
      <path id="Trazado_194638" data-name="Trazado 194638" d="M474.938,1338.093c1.283,0,2.565,0,3.848,0,.144,0,.338-.017.422.064.167.16.382.388.374.579s-.24.4-.421.544c-.107.082-.308.055-.467.055q-3.768,0-7.535,0c-.067,0-.134,0-.2,0-.464-.028-.712-.26-.7-.651.013-.367.267-.59.711-.592C472.293,1338.09,473.616,1338.093,474.938,1338.093Z" transform="translate(-455.896 -1325.233)" fill="#12263f"/>
      <path id="Trazado_194639" data-name="Trazado 194639" d="M478.795,1442.854c1.231,0,2.462-.016,3.693.013a1.066,1.066,0,0,1,.688.3.561.561,0,0,1-.29.876,1.368,1.368,0,0,1-.434.057q-3.693,0-7.386,0c-.484,0-.742-.167-.8-.5-.077-.429.21-.74.717-.743C476.253,1442.849,477.524,1442.854,478.795,1442.854Z" transform="translate(-459.568 -1421.562)" fill="#12263f"/>
      <path id="Trazado_194640" data-name="Trazado 194640" d="M474.872,1309.248h-4.007a.578.578,0,0,1-.64-.48.557.557,0,0,1,.322-.664.828.828,0,0,1,.347-.064q3.987-.005,7.974,0a.617.617,0,0,1,.7.6c0,.365-.258.607-.69.609C477.543,1309.252,476.207,1309.248,474.872,1309.248Z" transform="translate(-455.85 -1297.596)" fill="#12263f"/>
      <path id="Trazado_194641" data-name="Trazado 194641" d="M478.654,1414.037c-1.257,0-2.514,0-3.772,0a.657.657,0,0,1-.688-.378.606.606,0,0,1,.613-.838c.749-.01,1.5,0,2.247,0q2.708,0,5.417,0c.5,0,.792.32.69.747-.088.366-.355.469-.695.469Q480.56,1414.035,478.654,1414.037Z" transform="translate(-459.466 -1393.947)" fill="#12263f"/>
      <path id="Trazado_194642" data-name="Trazado 194642" d="M593.692,1525.617a3.531,3.531,0,1,1-3.554,3.516A3.511,3.511,0,0,1,593.692,1525.617Zm-.033,1.213a2.316,2.316,0,1,0,2.323,2.327A2.334,2.334,0,0,0,593.659,1526.829Z" transform="translate(-566.13 -1497.67)" fill="#12263f"/>
    </g>
  </g>
</svg>
