<svg xmlns="http://www.w3.org/2000/svg" width="108.419" height="108.419" viewBox="0 0 108.419 108.419">
  <g id="Grupo_155279" data-name="Grupo 155279" transform="translate(-897.062 -2589.237)">
    <circle id="Elipse_5897" data-name="Elipse 5897" cx="54.209" cy="54.209" r="54.209" transform="translate(897.062 2589.237)" fill="#baa1e1"/>
    <g id="WGXxTz.tif" transform="translate(927.719 2608.762)">
      <g id="Grupo_154920" data-name="Grupo 154920" transform="translate(0 0)">
        <path id="Trazado_195249" data-name="Trazado 195249" d="M-974.093,219.384c2.79,2.805,5.559,5.632,8.385,8.4a3.123,3.123,0,0,1,1.045,2.483c-.057,4.09-.023,8.18-.023,12.271v.778l.139.02c.144-.277.295-.551.431-.832,1.383-2.842,2.744-5.694,4.15-8.524a5.2,5.2,0,0,1,5.217-2.9,5.265,5.265,0,0,1,4.506,3.822,5.39,5.39,0,0,1-.479,3.976q-5.384,11.039-10.746,22.089c-.969,1.992-1.951,3.977-2.892,5.983a3.314,3.314,0,0,0-.313,1.347c-.022,5.013-.013,10.026-.014,15.039,0,1.293-.3,1.594-1.564,1.594q-19.972,0-39.943.014a1.616,1.616,0,0,1-1.558-.759v-64.8Zm-31.435,2.129V282.8h38.66V269.559c-.238.155-.4.251-.556.365-1.557,1.163-3.1,2.349-4.679,3.477a2.453,2.453,0,0,1-1.287.432c-1.844.047-3.689.02-5.534.02q-4.824,0-9.648,0c-.927,0-1.442-.561-1.225-1.332.183-.65.688-.762,1.288-.761q6.769.014,13.537.005h.846c0-.241,0-.385,0-.53-.049-2.294-.124-4.587-.129-6.881a4.06,4.06,0,0,1,.36-1.712c2.236-4.667,4.519-9.311,6.766-13.972a3.074,3.074,0,0,0,.3-1.281c.02-5.411.013-10.823.013-16.234v-.848c-2.544,0-4.985,0-7.426,0-1.064,0-1.392-.312-1.4-1.369-.011-2.02,0-4.04,0-6.06v-1.363Zm44.755,19.018c-.173.326-.307.561-.425.8-3.048,6.265-5.994,12.583-9.186,18.772a13.616,13.616,0,0,0-1.7,8.353,18.119,18.119,0,0,1,.014,2.292c1.772-1.327,3.356-2.488,4.905-3.693a3.165,3.165,0,0,0,.876-1.068q5.384-10.992,10.728-22c.116-.238.213-.485.333-.761Zm.888-1.931,5.626,2.735c.657-1.4,1.343-2.695,1.887-4.052a3,3,0,0,0-1.48-3.749,2.978,2.978,0,0,0-3.915.926C-958.566,235.767-959.174,237.191-959.884,238.6Zm-13.585-15.374v4.94h4.889Z" transform="translate(1007.753 -219.384)" fill="#fff"/>
        <path id="Trazado_195250" data-name="Trazado 195250" d="M-960.572,401.964c.8,0,1.593-.012,2.389,0a1.036,1.036,0,0,1,1.136,1.106q.038,2.464,0,4.928a1.051,1.051,0,0,1-1.184,1.135q-2.426.017-4.852,0c-.746-.005-1.139-.343-1.152-1.07q-.045-2.5,0-5c.013-.766.4-1.089,1.2-1.1C-962.214,401.956-961.393,401.964-960.572,401.964Zm1.348,5.065V404.1h-2.844v2.926Z" transform="translate(970.781 -374.575)" fill="#fff"/>
        <path id="Trazado_195251" data-name="Trazado 195251" d="M-960.632,483.968c-.8,0-1.592.007-2.389,0-.864-.009-1.228-.346-1.239-1.218q-.03-2.389,0-4.779c.012-.823.386-1.171,1.205-1.176q2.389-.015,4.777,0a1.07,1.07,0,0,1,1.217,1.181q.03,2.389,0,4.779c-.009.83-.417,1.2-1.261,1.213C-959.089,483.974-959.86,483.968-960.632,483.968Zm1.4-2.12v-2.926h-2.861v2.926Z" transform="translate(970.796 -438.179)" fill="#fff"/>
        <path id="Trazado_195252" data-name="Trazado 195252" d="M-960.629,558.793c-.821,0-1.643.01-2.464,0-.741-.012-1.128-.346-1.14-1.081q-.042-2.5,0-5a1,1,0,0,1,1.138-1.086q2.426-.02,4.853,0a1.054,1.054,0,0,1,1.2,1.123q.038,2.464,0,4.928c-.011.742-.435,1.11-1.2,1.12C-959.036,558.8-959.832,558.793-960.629,558.793Zm1.405-2.111v-2.926h-2.841v2.926Z" transform="translate(970.778 -501.781)" fill="#fff"/>
        <path id="Trazado_195253" data-name="Trazado 195253" d="M-879.5,421q-3.735,0-7.469,0c-.882,0-1.327-.361-1.322-1.051s.452-1.036,1.338-1.036c5,0,10.009,0,15.013-.008.622,0,1.15.178,1.235.808a1.637,1.637,0,0,1-.42,1.085c-.144.176-.545.194-.83.2C-874.474,421-876.989,421-879.5,421Z" transform="translate(906.213 -388.976)" fill="#fff"/>
        <path id="Trazado_195254" data-name="Trazado 195254" d="M-883.2,346.194c-1.293,0-2.586.006-3.879,0-.8-.005-1.238-.4-1.217-1.079.019-.64.443-1,1.214-1.006q3.954-.009,7.907,0a1.082,1.082,0,0,1,1.2,1.039,1.085,1.085,0,0,1-1.2,1.044C-880.517,346.2-881.859,346.194-883.2,346.194Z" transform="translate(906.216 -325.396)" fill="#fff"/>
        <path id="Trazado_195255" data-name="Trazado 195255" d="M-883.179,495.856c-1.293,0-2.586.005-3.879,0-.813,0-1.247-.385-1.238-1.058s.446-1.026,1.268-1.027q3.879-.007,7.758,0c.789,0,1.283.4,1.3,1.021.016.646-.5,1.063-1.329,1.066C-880.593,495.86-881.886,495.856-883.179,495.856Z" transform="translate(906.213 -452.611)" fill="#fff"/>
        <path id="Trazado_195256" data-name="Trazado 195256" d="M-956.673,340c.729-.953,1.329-1.749,1.941-2.534.485-.623,1.1-.769,1.606-.4a1.1,1.1,0,0,1,.1,1.649c-.836,1.117-1.678,2.229-2.541,3.326a1.071,1.071,0,0,1-1.834.111c-.521-.5-1.029-1.015-1.532-1.535-.559-.578-.6-1.18-.123-1.643.455-.445,1.07-.389,1.641.174C-957.169,339.39-956.96,339.668-956.673,340Z" transform="translate(966.638 -319.246)" fill="#fff"/>
      </g>
    </g>
  </g>
</svg>
