<svg xmlns="http://www.w3.org/2000/svg" width="112" height="112" viewBox="0 0 112 112">
  <g id="Grupo_155284" data-name="Grupo 155284" transform="translate(2612.677 9167.604)">
    <circle id="Elipse_5902" data-name="Elipse 5902" cx="56" cy="56" r="56" transform="translate(-2612.677 -9167.604)" fill="#baa1e1"/>
    <g id="KlZfd9" transform="translate(-534.609 -8271.84)">
      <g id="Grupo_154924" data-name="Grupo 154924" transform="translate(-2053.795 -874.63)">
        <path id="Trazado_195276" data-name="Trazado 195276" d="M-2011.25-810.939h-36.686a1.469,1.469,0,0,0-.277-.127,6.726,6.726,0,0,1-5.233-4.721c-.136-.416-.234-.844-.35-1.266v-47.64a3.925,3.925,0,0,0,.131-.483,6.745,6.745,0,0,1,6.219-5.624c1.5-.054,3.007-.043,4.51-.019a.842.842,0,0,0,.913-.557,5.435,5.435,0,0,1,3.26-2.918c.375-.129.762-.224,1.144-.335h16.177a.993.993,0,0,0,.226.1,5.611,5.611,0,0,1,4.319,3.37.757.757,0,0,0,.578.306c1.527.03,3.057-.018,4.583.038a6.732,6.732,0,0,1,6.448,6.659q.024,23.238-.008,46.476a6.537,6.537,0,0,1-2.769,5.392A8.647,8.647,0,0,1-2011.25-810.939Zm2.294-29.96q0-11.43,0-22.86a3.144,3.144,0,0,0-3.355-3.4q-2.037-.018-4.075.017a.688.688,0,0,0-.528.284,5.514,5.514,0,0,1-2.874,2.914.666.666,0,0,0-.432.732c-.006.784-.016,1.57-.078,2.351a5.372,5.372,0,0,1-4.991,4.834c-2.778.083-5.561.07-8.34.005a5.2,5.2,0,0,1-4.834-3.683,17.058,17.058,0,0,1-.378-3.508.744.744,0,0,0-.48-.766,5.288,5.288,0,0,1-2.724-2.726.694.694,0,0,0-.773-.461c-1.252.022-2.5.007-3.757.005a3.171,3.171,0,0,0-3.508,3.5q0,22.8,0,45.593a3.178,3.178,0,0,0,3.447,3.439h34.132a3.211,3.211,0,0,0,3.548-3.538Q-2008.955-829.533-2008.956-840.9Zm-20.611-26.214v0c2.439,0,4.879.034,7.317-.027a2.706,2.706,0,0,0,1.533-.6,1.646,1.646,0,0,0,.38-2.037,1.944,1.944,0,0,0-1.957-1.147c-4.815,0-9.629-.007-14.444.015a2.671,2.671,0,0,0-1.265.323,1.784,1.784,0,0,0-.822,2.027,1.92,1.92,0,0,0,1.941,1.439C-2034.445-867.107-2032.006-867.114-2029.567-867.114Zm-5.584,3.714c0,.586,0,1.112,0,1.638a3.2,3.2,0,0,0,.029.505,1.787,1.787,0,0,0,1.8,1.557q3.813.024,7.626,0a1.645,1.645,0,0,0,1.721-1.466,16.991,16.991,0,0,0,.02-2.232Z" transform="translate(2053.795 874.63)" fill="#fff"/>
        <path id="Trazado_195277" data-name="Trazado 195277" d="M-1635.412-774.93h-1.019a2.813,2.813,0,0,1-1.333-1.517c-.977-2.679-2.01-5.338-2.985-8.018a8.127,8.127,0,0,1-.707-2.6c-.043-13.259-.028-26.518-.023-39.776,0-.487.015-.976.061-1.461a5.459,5.459,0,0,1,5.026-5.025,5.549,5.549,0,0,1,5.746,3.7c.113.313.221.628.331.942v42.418a2.394,2.394,0,0,0-.144.271c-1.191,3.151-2.4,6.3-3.555,9.46A2.723,2.723,0,0,1-1635.412-774.93Zm-2.4-42.27v.814q0,13.493,0,26.987a1.637,1.637,0,0,0,.016.505c.044.128.188.313.292.315,1.138.023,2.278.014,3.45.014V-817.2Zm3.8-3.732c0-2.378.036-4.685-.016-6.991a1.857,1.857,0,0,0-1.908-1.754,1.856,1.856,0,0,0-1.847,1.823c-.044,2.267-.008,4.535,0,6.8,0,.033.047.067.086.12Zm-1.884,38.914,1.038-2.836h-2.092Z" transform="translate(1694.008 838.62)" fill="#fff"/>
        <path id="Trazado_195278" data-name="Trazado 195278" d="M-1895.977-694.862q-4.616,0-9.232,0a1.875,1.875,0,0,1-1.822-1.328,1.8,1.8,0,0,1,.868-2.071,2.412,2.412,0,0,1,1.087-.265q9.168-.023,18.337-.007a1.87,1.87,0,0,1,1.973,1.519,1.815,1.815,0,0,1-1.233,2.047,2.82,2.82,0,0,1-.872.105Q-1891.424-694.855-1895.977-694.862Z" transform="translate(1925.783 720.971)" fill="#fff"/>
        <path id="Trazado_195279" data-name="Trazado 195279" d="M-1895.911-577.8q-4.649,0-9.3,0a1.763,1.763,0,0,1-1.688-1.041,1.732,1.732,0,0,1,.2-1.913,1.788,1.788,0,0,1,1.479-.732q9.266-.008,18.531,0a1.846,1.846,0,0,1,1.935,1.85,1.814,1.814,0,0,1-1.929,1.836c-3.078.01-6.156,0-9.234,0Z" transform="translate(1925.782 618.835)" fill="#fff"/>
        <path id="Trazado_195280" data-name="Trazado 195280" d="M-1897.657-639.836c2.462,0,4.924-.006,7.385,0a1.879,1.879,0,0,1,1.85,1.374,1.815,1.815,0,0,1-.878,2.008,2.51,2.51,0,0,1-1.151.271q-7.258.026-14.516.009a1.873,1.873,0,0,1-2-1.421,1.8,1.8,0,0,1,1.119-2.107,2.694,2.694,0,0,1,.931-.133c2.419-.01,4.839-.006,7.258-.006Z" transform="translate(1925.703 669.748)" fill="#fff"/>
        <path id="Trazado_195281" data-name="Trazado 195281" d="M-1898.857-522.652c2.015,0,4.03,0,6.045,0a1.818,1.818,0,0,1,1.984,1.838,1.847,1.847,0,0,1-1.945,1.834q-6.14.015-12.28,0a1.852,1.852,0,0,1-1.865-1.5,1.8,1.8,0,0,1,1.267-2.079,2.873,2.873,0,0,1,.813-.085c1.994-.007,3.988,0,5.981,0Z" transform="translate(1925.644 567.488)" fill="#fff"/>
        <path id="Trazado_195282" data-name="Trazado 195282" d="M-1813.5-460.777c-1.209,0-2.418.022-3.626-.005a1.847,1.847,0,0,1-1.65-2.857,1.786,1.786,0,0,1,1.6-.865q3.626-.034,7.252-.006a1.878,1.878,0,0,1,1.977,1.882,1.83,1.83,0,0,1-1.994,1.837c-1.187.015-2.375,0-3.563,0Z" transform="translate(1848.971 516.763)" fill="#fff"/>
        <path id="Trazado_195283" data-name="Trazado 195283" d="M-1991.1-639.843c.656,0,1.313-.018,1.969,0a1.77,1.77,0,0,1,1.722,1.691,1.663,1.663,0,0,1-1.475,1.884,35.914,35.914,0,0,1-4.369.014,1.692,1.692,0,0,1-1.534-1.965,1.78,1.78,0,0,1,1.781-1.627c.635-.017,1.271,0,1.906,0Z" transform="translate(2002.312 669.758)" fill="#fff"/>
        <path id="Trazado_195284" data-name="Trazado 195284" d="M-1991.122-577.856c-.614,0-1.229.012-1.843,0a1.8,1.8,0,0,1-1.821-1.8,1.815,1.815,0,0,1,1.814-1.883q1.875-.028,3.75,0a1.819,1.819,0,0,1,1.822,1.874,1.793,1.793,0,0,1-1.816,1.806C-1989.85-577.846-1990.486-577.857-1991.122-577.856Z" transform="translate(2002.303 618.885)" fill="#fff"/>
        <path id="Trazado_195285" data-name="Trazado 195285" d="M-1991.069-694.955c-.614,0-1.228.007-1.841,0a1.806,1.806,0,0,1-1.854-1.764,1.788,1.788,0,0,1,1.779-1.9c1.269-.032,2.54-.028,3.809,0a1.794,1.794,0,0,1,1.791,1.892,1.8,1.8,0,0,1-1.842,1.777C-1989.841-694.948-1990.455-694.955-1991.069-694.955Z" transform="translate(2002.284 721.063)" fill="#fff"/>
        <path id="Trazado_195286" data-name="Trazado 195286" d="M-1991.136-518.975c-.594,0-1.189.018-1.783,0a1.819,1.819,0,0,1-1.864-1.908,1.8,1.8,0,0,1,1.925-1.763q1.783-.009,3.566,0a1.767,1.767,0,0,1,1.89,1.794,1.8,1.8,0,0,1-1.825,1.875C-1989.861-518.951-1990.5-518.976-1991.136-518.975Z" transform="translate(2002.3 567.49)" fill="#fff"/>
      </g>
    </g>
  </g>
</svg>
