<svg xmlns="http://www.w3.org/2000/svg" width="112" height="112" viewBox="0 0 112 112">
  <g id="Grupo_155285" data-name="Grupo 155285" transform="translate(3527.208 8648.766)">
    <circle id="Elipse_5903" data-name="Elipse 5903" cx="56" cy="56" r="56" transform="translate(-3527.208 -8648.766)" fill="#baa1e1"/>
    <g id="OcY0UE.tif" transform="translate(-574.257 -7828.362)">
      <g id="Grupo_154925" data-name="Grupo 154925" transform="translate(-2932.726 -806.658)">
        <path id="Trazado_195287" data-name="Trazado 195287" d="M-2932.726-714.731a27.626,27.626,0,0,1,.812-2.717,10.624,10.624,0,0,1,6.522-6.211c.177-.063.347-.147.542-.231a7.789,7.789,0,0,1-.805-6.646,6.08,6.08,0,0,1,6.568-4.243,6.187,6.187,0,0,1,5.405,5.752,7.262,7.262,0,0,1-1.176,5.149,11.555,11.555,0,0,1,4.94,2.973c.214-5.475,2.868-9.056,7.956-10.916a7.313,7.313,0,0,1-1.155-4.657,6.2,6.2,0,0,1,6.205-6.261,6.2,6.2,0,0,1,6.125,6.266,7.2,7.2,0,0,1-1.161,4.642c5.08,1.851,7.751,5.441,7.964,10.93a11.49,11.49,0,0,1,4.893-2.965,7.807,7.807,0,0,1-.821-6.667,6.079,6.079,0,0,1,6.565-4.247,6.2,6.2,0,0,1,5.41,5.749,7.43,7.43,0,0,1-1.013,4.984,33.675,33.675,0,0,1,3.838,2.351,10.074,10.074,0,0,1,3.913,7.942c.067,3.763.023,7.528.016,11.292a4.387,4.387,0,0,1-4.612,4.593c-.289,0-.577,0-.951,0,0,.737.013,1.414,0,2.09a1.46,1.46,0,0,1-1.471,1.571,1.472,1.472,0,0,1-1.452-1.6c-.014-2.469,0-4.937-.005-7.406v-.819h-8.8v22c0,.073,0,.147,0,.22.02,1.112.61,1.837,1.482,1.822s1.445-.73,1.446-1.855q.006-7.479.007-14.958a3.09,3.09,0,0,1,.125-1.006,1.436,1.436,0,0,1,1.518-.906,1.451,1.451,0,0,1,1.261,1.328c.046.755.034,1.514.035,2.272q0,6.526,0,13.052c0,1.327.514,2.058,1.449,2.073s1.471-.738,1.472-2.044c0-1.2-.009-2.4,0-3.593a1.507,1.507,0,0,1,1.465-1.667,1.488,1.488,0,0,1,1.461,1.661c.01,1.442.03,2.885-.012,4.326a4.156,4.156,0,0,1-2.437,3.8,4.162,4.162,0,0,1-4.377-.29.7.7,0,0,0-.951-.039,4.132,4.132,0,0,1-4.5.288,4.193,4.193,0,0,1-2.374-3.923c-.022-5.133-.009-10.266-.009-15.4v-1c-.423,0-.826.007-1.228,0a4.381,4.381,0,0,1-4.34-4.347c-.021-1.219,0-2.439,0-3.691l-2.638.174v.858c0,5.157.016,10.315-.01,15.472a4.3,4.3,0,0,1-4.749,4.4,6.331,6.331,0,0,1-2.1-.75c-.343-.167-.54-.261-.895-.017a4.149,4.149,0,0,1-4.5.317,4.218,4.218,0,0,1-2.4-3.98c-.018-5.133-.007-10.266-.007-15.4v-.9l-2.646-.182c0,1.03-.056,2.079.01,3.121a4.5,4.5,0,0,1-4.882,4.925c-.192-.016-.387,0-.692,0v.88c0,5.182.017,10.363-.012,15.545a4.288,4.288,0,0,1-4.716,4.361,6.213,6.213,0,0,1-2.107-.734c-.366-.178-.574-.274-.956-.012a4.13,4.13,0,0,1-4.435.309,4.242,4.242,0,0,1-2.43-3.89c-.029-.879-.017-1.76,0-2.64a1.487,1.487,0,0,1,1.489-1.637,1.47,1.47,0,0,1,1.438,1.606c.014.709,0,1.418,0,2.126.005,1.231.578,1.984,1.489,1.962.9-.021,1.439-.744,1.439-1.935q0-7.369,0-14.739a6.781,6.781,0,0,1,.014-.733,1.494,1.494,0,0,1,1.421-1.333,1.465,1.465,0,0,1,1.473,1.349c.048.755.034,1.514.034,2.272q0,6.526,0,13.052c0,1.323.521,2.058,1.456,2.066s1.465-.742,1.465-2.051q0-10.6,0-21.191v-.778h-8.8v1.321c0,2.64,0,5.279,0,7.919a1.47,1.47,0,0,1-.892,1.467,1.24,1.24,0,0,1-1.544-.286,2.325,2.325,0,0,1-.477-1.246c-.069-.971-.021-1.949-.021-3.032-.342,0-.648,0-.954,0a4.372,4.372,0,0,1-4.458-3.21,2.109,2.109,0,0,0-.164-.307Zm40.177-.274c0-.331,0-.594,0-.857,0-1.613-.014-3.226.009-4.839a1.459,1.459,0,0,1,1.253-1.489,1.436,1.436,0,0,1,1.568.937,3.093,3.093,0,0,1,.1.939q.009,5.389,0,10.777v.768c1.854.173,2.623-.313,2.629-1.677.019-3.666.051-7.332-.011-11a7.8,7.8,0,0,0-5.744-7.464,18.3,18.3,0,0,0-8.066-.067,7.744,7.744,0,0,0-6.112,7.83c-.02,3.421,0,6.843,0,10.264,0,1.8.789,2.43,2.646,2.063v-.783q0-5.389,0-10.778c0-1.143.54-1.813,1.45-1.825s1.477.654,1.481,1.785c.006,1.564,0,3.128,0,4.692v.72Zm-19.939,14.134c1.777.238,2.621-.276,2.628-1.629.02-3.714.067-7.431-.021-11.143a7.521,7.521,0,0,0-6.071-7.378,24.319,24.319,0,0,0-6.772-.192,7.375,7.375,0,0,0-6.956,7.015c-.285,3.963-.11,7.961-.089,11.943a1.414,1.414,0,0,0,1.4,1.434,10.627,10.627,0,0,0,1.219.008c0-1.441,0-2.828,0-4.215,0-2.566-.01-5.132.007-7.7a1.46,1.46,0,0,1,1.491-1.558,1.455,1.455,0,0,1,1.429,1.539c.019.708.005,1.417.006,2.126,0,1.165,0,2.33,0,3.52h8.8c0-.418,0-.8,0-1.185,0-1.515-.019-3.031.012-4.545a1.441,1.441,0,0,1,1.443-1.454,1.449,1.449,0,0,1,1.468,1.423c.019.292.01.586.01.88C-2912.488-708.292-2912.488-704.6-2912.488-700.87Zm31.082.069v-.877q0-5.279,0-10.558c0-1.344.489-2.033,1.449-2.046.99-.014,1.483.676,1.484,2.076q0,2.2,0,4.4v.7h8.8v-.834c0-1.613-.014-3.226.009-4.839a1.46,1.46,0,0,1,1.251-1.49,1.435,1.435,0,0,1,1.569.935,3.075,3.075,0,0,1,.1.939q.01,5.389,0,10.778v.768c1.851.177,2.622-.311,2.629-1.674.019-3.666.053-7.332-.012-11a7.67,7.67,0,0,0-6.241-7.564,25.963,25.963,0,0,0-6.421-.167,7.411,7.411,0,0,0-7.105,6.865c-.3,4.034-.139,8.1-.125,12.159a1.429,1.429,0,0,0,1.49,1.423C-2882.191-700.776-2881.849-700.8-2881.406-700.8Zm-19.939-11.15v.888q0,10.521,0,21.042c0,1.368.538,2.131,1.485,2.112.931-.018,1.444-.755,1.445-2.077q0-7.332,0-14.663a5.181,5.181,0,0,1,.022-.732,1.494,1.494,0,0,1,1.479-1.267,1.492,1.492,0,0,1,1.4,1.269,5.333,5.333,0,0,1,.022.732q.01,7.331.018,14.663c0,1.328.511,2.058,1.447,2.076s1.475-.735,1.475-2.041q0-10.594,0-21.188v-.813Zm7.6-24.024a7.56,7.56,0,0,0,0-.8,3.265,3.265,0,0,0-3.2-3.022,3.226,3.226,0,0,0-3.194,3.02,7.345,7.345,0,0,0,.1,2.109,3.145,3.145,0,0,0,4.53,2.119A3.318,3.318,0,0,0-2893.744-735.976Zm-22.879,7.935a7.409,7.409,0,0,0,0-.878,3.259,3.259,0,0,0-3.18-2.965,3.21,3.21,0,0,0-3.2,2.933,7.235,7.235,0,0,0,.088,2.181,3.142,3.142,0,0,0,4.582,2.1A3.3,3.3,0,0,0-2916.623-728.041Zm45.744,0a7.408,7.408,0,0,0,0-.878,3.259,3.259,0,0,0-3.179-2.966,3.21,3.21,0,0,0-3.2,2.932,7.228,7.228,0,0,0,.088,2.181,3.144,3.144,0,0,0,4.646,2.071A3.3,3.3,0,0,0-2870.878-728.04Z" transform="translate(2932.726 752.128)" fill="#fff"/>
        <path id="Trazado_195288" data-name="Trazado 195288" d="M-2740.842-806.658a1.929,1.929,0,0,1,1.037,2c-.054,1.213-.012,1.214,1.135,1.7,1.257.529,2.51,1.068,3.771,1.587a4.041,4.041,0,0,1,2.677,4.047,11.873,11.873,0,0,1-.1,1.965,1.371,1.371,0,0,1-1.458,1.164,1.379,1.379,0,0,1-1.356-1.285,19.655,19.655,0,0,1-.068-1.972,1.164,1.164,0,0,0-.8-1.176c-1.623-.663-3.23-1.365-4.856-2.02a1.2,1.2,0,0,0-.816,0c-1.626.654-3.232,1.359-4.857,2.018a1.182,1.182,0,0,0-.811,1.238,13.617,13.617,0,0,1-.1,2.039,1.357,1.357,0,0,1-1.385,1.163,1.3,1.3,0,0,1-1.385-1.148,14.868,14.868,0,0,1,.134-3.476,3.545,3.545,0,0,1,2.348-2.525c1.459-.613,2.914-1.238,4.385-1.823.448-.178.694-.4.6-.907-.033-.189.013-.392-.009-.585a1.838,1.838,0,0,1,1.027-2Z" transform="translate(2777.056 806.658)" fill="#fff"/>
        <path id="Trazado_195289" data-name="Trazado 195289" d="M-2891.806-386.823a1.462,1.462,0,0,1-1.466,1.427,1.486,1.486,0,0,1-1.45-1.453,1.485,1.485,0,0,1,1.512-1.463A1.464,1.464,0,0,1-2891.806-386.823Z" transform="translate(2900.305 449.77)" fill="#fff"/>
        <path id="Trazado_195290" data-name="Trazado 195290" d="M-2500.575-399.082a1.5,1.5,0,0,1-1.453,1.455,1.515,1.515,0,0,1-1.462-1.529,1.462,1.462,0,0,1,1.5-1.393A1.441,1.441,0,0,1-2500.575-399.082Z" transform="translate(2566.548 460.208)" fill="#fff"/>
      </g>
    </g>
  </g>
</svg>
