<svg xmlns="http://www.w3.org/2000/svg" width="112" height="112" viewBox="0 0 112 112">
  <g id="Grupo_155288" data-name="Grupo 155288" transform="translate(2614.518 8648.766)">
    <circle id="Elipse_5906" data-name="Elipse 5906" cx="56" cy="56" r="56" transform="translate(-2614.518 -8648.766)" fill="#baa1e1"/>
    <g id="Fs2lJS.tif" transform="translate(752.887 -9884.512)">
      <g id="Grupo_154929" data-name="Grupo 154929" transform="translate(-3348.479 1252.557)">
        <path id="Trazado_195317" data-name="Trazado 195317" d="M-3033.927,1420.209v.9q0,6.242,0,12.485a3.435,3.435,0,0,1-1.493,3.207,4.676,4.676,0,0,1-2.205.662c-3.146.071-6.3.046-9.445.024a3.555,3.555,0,0,1-3.679-3.719c-.01-4.251,0-8.5-.005-12.754v-.8c-1.323,0-2.574,0-3.826,0-1.277,0-1.561-.278-1.562-1.533,0-7-.015-13.992.007-20.988a8.9,8.9,0,0,1,3.691-7.7,6.554,6.554,0,0,1,3.921-1.219c4.116.008,8.232-.019,12.348.012,3.442.025,6.308,2.443,7.247,6.13a12.155,12.155,0,0,1,.368,2.931c.03,6.973.019,13.947.016,20.92,0,1.137-.309,1.442-1.446,1.446C-3031.268,1420.213-3032.548,1420.209-3033.927,1420.209Zm3.381-2.128c.011-.2.029-.374.029-.548,0-6.749.023-13.5-.029-20.245a7.487,7.487,0,0,0-.609-2.8,5.315,5.315,0,0,0-5.33-3.565c-3.957.052-7.917.025-11.875.011a4.968,4.968,0,0,0-3.9,1.807,7.34,7.34,0,0,0-1.712,5.052q-.01,9.82,0,19.638v.638h3.347v-.788q0-4.893,0-9.785a3.338,3.338,0,0,1,.014-.606.929.929,0,0,1,1.053-.822.88.88,0,0,1,.95.848,7.76,7.76,0,0,1,.02.809q0,11.743,0,23.485c0,.855-.014,1.71.006,2.565.022.873.479,1.563,1.162,1.591,1.34.057,2.684.017,4.1.017v-.844q0-7.086,0-14.172a3.276,3.276,0,0,1,.027-.672.943.943,0,0,1,1.063-.819.887.887,0,0,1,.946.856,7.964,7.964,0,0,1,.031.808q0,6.985,0,13.97v.882c1.411,0,2.714.023,4.016-.01a1.3,1.3,0,0,0,1.194-1.182,5.939,5.939,0,0,0,.029-.808q0-12.89.006-25.779a3.7,3.7,0,0,1,.083-.867.871.871,0,0,1,.958-.677.882.882,0,0,1,.962.674,3.247,3.247,0,0,1,.08.8q.01,4.893.006,9.785v.76Z" transform="translate(3095.671 -1370.349)" fill="#fff"/>
        <path id="Trazado_195318" data-name="Trazado 195318" d="M-3348.479,1393.247a25.765,25.765,0,0,1,18.888-24.738,25.249,25.249,0,0,1,20.538,2.827c.45.274.814.589.706,1.177-.154.831-.885,1.072-1.73.648a42.438,42.438,0,0,0-4.365-2.085,23.731,23.731,0,0,0-31.487,17.384,23.638,23.638,0,0,0,15.593,27.161,23.244,23.244,0,0,0,21.374-3,24.556,24.556,0,0,0,2.507-2.146c.658-.6,1.219-.717,1.693-.264.516.493.436,1.033-.27,1.734a23.337,23.337,0,0,1-12.457,6.524,25.36,25.36,0,0,1-21.289-5.17,24.913,24.913,0,0,1-9.483-16.959c-.033-.267-.09-.533-.107-.8C-3348.412,1394.775-3348.443,1394.011-3348.479,1393.247Z" transform="translate(3348.479 -1351.955)" fill="#fff"/>
        <path id="Trazado_195319" data-name="Trazado 195319" d="M-3007.944,1269.558a8.43,8.43,0,0,1-8.289-8.581,8.571,8.571,0,0,1,8.44-8.418,8.382,8.382,0,0,1,8.264,8.656A8.49,8.49,0,0,1-3007.944,1269.558Zm-6.2-8.419a6.424,6.424,0,0,0,6.3,6.484,6.471,6.471,0,0,0,6.255-6.548,6.4,6.4,0,0,0-6.286-6.426A6.371,6.371,0,0,0-3014.146,1261.139Z" transform="translate(3061.156 -1252.557)" fill="#fff"/>
        <path id="Trazado_195320" data-name="Trazado 195320" d="M-3183.24,1458.072v-9.7c0-.18-.007-.36,0-.539a.982.982,0,0,1,1.042-1.064.914.914,0,0,1,1,1.014c.032,1.168.017,2.339.018,3.507,0,2.092.007,4.183-.009,6.275a.67.67,0,0,0,.488.74,3.727,3.727,0,0,1,2.07,4.9.757.757,0,0,0,.237.968q3.331,3.3,6.635,6.626c.1.1.2.187.285.287a.994.994,0,0,1,.033,1.494,1.019,1.019,0,0,1-1.5-.071c-1.419-1.41-2.829-2.831-4.244-4.246-.9-.906-1.819-1.805-2.715-2.721a.643.643,0,0,0-.812-.194,3.84,3.84,0,0,1-5.084-2.089,3.807,3.807,0,0,1,2.285-5.043C-3183.426,1458.185-3183.351,1458.134-3183.24,1458.072Zm2.835,3.739a1.759,1.759,0,0,0-1.773-1.805,1.793,1.793,0,0,0-1.837,1.822,1.817,1.817,0,0,0,1.821,1.789A1.8,1.8,0,0,0-3180.405,1461.811Z" transform="translate(3208.044 -1420.509)" fill="#fff"/>
        <path id="Trazado_195321" data-name="Trazado 195321" d="M-3321.206,1541.509a3.009,3.009,0,0,1-3.065-3.081,3,3,0,0,1,3.035-3.036,3.07,3.07,0,0,1,3.083,3.084A3.026,3.026,0,0,1-3321.206,1541.509Zm.986-3.041a.98.98,0,0,0-.954-1.008.972.972,0,0,0-1.026.928.977.977,0,0,0,.974,1.053A1.011,1.011,0,0,0-3320.219,1538.469Z" transform="translate(3327.544 -1497.151)" fill="#fff"/>
        <path id="Trazado_195322" data-name="Trazado 195322" d="M-3177.782,1391.893a3.076,3.076,0,0,1,3.1,3.05,3.073,3.073,0,0,1-3.053,3.036,3.231,3.231,0,0,1-3.092-3.115A3.071,3.071,0,0,1-3177.782,1391.893Zm1.008,3.062a.985.985,0,0,0-.933-1.022,1.044,1.044,0,0,0-1.02,1.026,1,1,0,0,0,.975.984A1.011,1.011,0,0,0-3176.774,1394.954Z" transform="translate(3203.492 -1373.053)" fill="#fff"/>
        <path id="Trazado_195323" data-name="Trazado 195323" d="M-3173.9,1681.907a3.107,3.107,0,0,1-3.024,3.084,3.117,3.117,0,0,1-3.092-3.017,3.176,3.176,0,0,1,3.142-3.129A3.1,3.1,0,0,1-3173.9,1681.907Zm-2.181.018a.985.985,0,0,0-.986-.983.927.927,0,0,0-.966.976.929.929,0,0,0,.975.971A.925.925,0,0,0-3176.08,1681.926Z" transform="translate(3202.794 -1621.207)" fill="#fff"/>
        <path id="Trazado_195324" data-name="Trazado 195324" d="M-3085.051,1673.323c-.249.264-.463.674-.771.766a1.253,1.253,0,0,1-1.076-.218,11.118,11.118,0,0,1-1.24-1.821.782.782,0,0,1,.227-1.13c.325-.189.933-.354,1.148-.186A5.753,5.753,0,0,1-3085.051,1673.323Z" transform="translate(3123.463 -1614.133)" fill="#fff"/>
        <path id="Trazado_195325" data-name="Trazado 195325" d="M-3086.363,1419.98c1.023-.026,1.531.768,1.114,1.526a13.89,13.89,0,0,1-1.111,1.676.925.925,0,0,1-1.368.187.893.893,0,0,1-.341-1.282,17.932,17.932,0,0,1,1.192-1.781A1.4,1.4,0,0,1-3086.363,1419.98Z" transform="translate(3123.406 -1397.342)" fill="#fff"/>
        <path id="Trazado_195326" data-name="Trazado 195326" d="M-3247.969,1671.711a5.786,5.786,0,0,1-.324.745c-.321.51-.649,1.018-1,1.5a.971.971,0,0,1-1.365.268.935.935,0,0,1-.38-1.327,8.849,8.849,0,0,1,1.2-1.762,1.327,1.327,0,0,1,1.131-.213C-3248.4,1671.019-3248.2,1671.451-3247.969,1671.711Z" transform="translate(3264.336 -1614.323)" fill="#fff"/>
        <path id="Trazado_195327" data-name="Trazado 195327" d="M-3299.232,1477.343c-.017.928-.728,1.456-1.4,1.169a11.6,11.6,0,0,1-1.775-.951.921.921,0,0,1-.34-1.294.967.967,0,0,1,1.3-.526,10.742,10.742,0,0,1,1.83.988C-3299.394,1476.879-3299.3,1477.225-3299.232,1477.343Z" transform="translate(3309.048 -1445.49)" fill="#fff"/>
        <path id="Trazado_195328" data-name="Trazado 195328" d="M-3246.708,1422.385c-.292.269-.545.674-.884.767a1.227,1.227,0,0,1-1.05-.3,6.124,6.124,0,0,1-1.067-1.777,1.3,1.3,0,0,1,.246-1.125,1.372,1.372,0,0,1,1.084-.2C-3247.937,1419.837-3246.815,1421.783-3246.708,1422.385Z" transform="translate(3263.102 -1397.123)" fill="#fff"/>
        <path id="Trazado_195329" data-name="Trazado 195329" d="M-3301.648,1615.881a5.589,5.589,0,0,1,.882.849.8.8,0,0,1-.276,1.129,9.477,9.477,0,0,1-1.89,1.007,1,1,0,0,1-1.291-.577.943.943,0,0,1,.437-1.274C-3303.13,1616.634-3302.448,1616.3-3301.648,1615.881Z" transform="translate(3310.293 -1566.756)" fill="#fff"/>
      </g>
    </g>
  </g>
</svg>
