<svg xmlns="http://www.w3.org/2000/svg" width="112" height="112" viewBox="0 0 112 112">
  <g id="Grupo_155282" data-name="Grupo 155282" transform="translate(3221.951 9166.969)">
    <circle id="Elipse_5900" data-name="Elipse 5900" cx="56" cy="56" r="56" transform="translate(-3221.951 -9166.969)" fill="#baa1e1"/>
    <g id="bPkKrn.tif" transform="translate(-1576.635 -8536.316)">
      <g id="Grupo_154922" data-name="Grupo 154922" transform="translate(-1626.18 -609.616)">
        <path id="Trazado_195259" data-name="Trazado 195259" d="M-1556.639-606.953v37.291c-.681,1.971-2.067,2.718-4.136,2.686-5.068-.077-10.138-.025-15.206-.025h-.847c0,2.058-.01,4.017.009,5.977,0,.4-.1.573-.513.653-.715.139-1.416.359-2.163.555l1.336,2.257-6.034,6.056-2.254-1.337c-.066.189-.127.338-.171.492-.2.71-.192,1.7-.662,2.054s-1.433.11-2.179.113c-1.2.006-2.406,0-3.69,0,.98,3.371.493,6.713.634,10.049h-33.655c0-1.887-.021-3.729,0-5.57a16.341,16.341,0,0,1,7.2-13.756,42.435,42.435,0,0,1,4.417-2.442c-.025-.022-.123-.115-.228-.2a8.961,8.961,0,0,1-.583-13.844,1.545,1.545,0,0,0,.386-1.022q.03-14.471.021-28.942a5.232,5.232,0,0,1,.1-1.178,3.55,3.55,0,0,1,2.554-2.536h52.992A3.9,3.9,0,0,1-1556.639-606.953Zm-6.776,33.228v-29.109h-44.816c0,8.115,0,16.175-.008,24.234,0,.415.194.479.539.546a8.7,8.7,0,0,1,5.712,3.716,1.243,1.243,0,0,0,1.172.627q18.293-.025,36.587-.013Zm-47.054-31.353h49.307v33.6h-39.447c.1.779.2,1.487.3,2.243h39.813c1.263,0,1.62-.359,1.62-1.627q0-17.452,0-34.9c0-1.253-.362-1.606-1.64-1.606h-50.533c-1.32,0-1.665.341-1.665,1.65q0,13.667,0,27.334v.78a7.192,7.192,0,0,1,1.515-.4c.706-.023.742-.39.742-.945q-.019-12.616-.009-25.232Zm7.846,35.842a6.787,6.787,0,0,0-6.738-6.734,6.788,6.788,0,0,0-6.717,6.685,6.789,6.789,0,0,0,6.7,6.771A6.79,6.79,0,0,0-1602.624-569.235Zm18.791,2.258c.776,3.556-.123,6.5-3.038,8.6a7.273,7.273,0,0,1-8.19.539c-3.587-1.979-4.744-5.169-3.935-9.168a7.206,7.206,0,0,1-.881-.006c-.572-.074-.841.125-1.028.71a8.526,8.526,0,0,1-2.906,4.113c-.154.123-.3.261-.481.423a17.061,17.061,0,0,1,10.192,8.952c.078.16.272.372.416.375,1.583.027,3.167.017,4.744.017.215-.834.4-1.6.615-2.364a.748.748,0,0,1,.269-.441c.636-.339,1.27-.68,1.971-.061a11.594,11.594,0,0,0,1.188.735.54.54,0,0,0,.832-.1c.551-.6,1.155-1.157,1.725-1.743.453-.466,1.187-.914,1.247-1.434s-.552-1.125-.883-1.684a1.415,1.415,0,0,1,.981-2.291c.628-.156,1.256-.315,1.876-.471v-4.706Zm-34.467,15.709v8.886h7.207l-6.561-15.258a14.764,14.764,0,0,0-5.264,6.641c-1.131,2.8-1.086,5.717-.98,8.638h3.348v-8.933c.632,0,1.189,0,1.746,0C-1618.667-551.292-1618.533-551.279-1618.3-551.267Zm23.446,8.918c.581-6.2-.949-11.461-6.194-15.294l-6.568,15.278h7.264v-8.892h2.226v8.908ZM-1591.41-567c-1.542,0-3.084.017-4.625-.011-.41-.007-.643.138-.677.51a12.091,12.091,0,0,0-.154,2.755,5.523,5.523,0,0,0,6.845,4.41,5.612,5.612,0,0,0,3.929-7.173.615.615,0,0,0-.694-.5C-1588.326-566.984-1589.868-567-1591.41-567Zm-12.4,7.853c-.932,2.861-2.86,4.454-5.376,4.483-2.764.031-4.667-1.453-5.708-4.478l-.776.367,6.323,14.7,6.318-14.7Zm-8.76-.642a3.224,3.224,0,0,0,3.265,2.884,3.19,3.19,0,0,0,3.164-2.9A11.313,11.313,0,0,0-1612.572-559.789Z" transform="translate(1626.18 609.616)" fill="#fff"/>
        <path id="Trazado_195260" data-name="Trazado 195260" d="M-1245.194-271.849h-13.352v-2.179h13.352Z" transform="translate(1310.189 321.17)" fill="#fff"/>
        <path id="Trazado_195261" data-name="Trazado 195261" d="M-1258.624-239.932v-2.155h13.363v2.155Z" transform="translate(1310.256 293.715)" fill="#fff"/>
        <path id="Trazado_195262" data-name="Trazado 195262" d="M-1242.572-210.3h2.135v2.172h-2.135Z" transform="translate(1296.459 266.395)" fill="#fff"/>
        <path id="Trazado_195263" data-name="Trazado 195263" d="M-1208.452-207.891h-2.126v-2.176h2.126Z" transform="translate(1268.959 266.193)" fill="#fff"/>
        <path id="Trazado_195264" data-name="Trazado 195264" d="M-1176.51-209.986v2.126h-2.176v-2.126Z" transform="translate(1241.547 266.124)" fill="#fff"/>
        <path id="Trazado_195265" data-name="Trazado 195265" d="M-1464.177-538.725v4.382h-17.9v-11.116h17.863v4.4h4.5v-4.388h17.917v11.14h-7.755v2.255h7.765v11.17h-17.863V-532h7.762v-2.255h-7.768v-4.467Zm20.139,2.169V-543.2h-13.375v6.647Zm-13.4,13.447h13.4v-6.636h-13.4Zm-9.012-20.1h-13.375v6.646h13.375Z" transform="translate(1502.316 554.471)" fill="#fff"/>
        <path id="Trazado_195266" data-name="Trazado 195266" d="M-1466.424-415.47H-1482v-2.179h15.58Z" transform="translate(1502.257 444.615)" fill="#fff"/>
        <path id="Trazado_195267" data-name="Trazado 195267" d="M-1442.236-385.86h10v2.172h-10Z" transform="translate(1468.075 417.292)" fill="#fff"/>
        <path id="Trazado_195268" data-name="Trazado 195268" d="M-1447.969-447.445h-2.15v-2.163h2.15Z" transform="translate(1474.851 472.085)" fill="#fff"/>
        <path id="Trazado_195269" data-name="Trazado 195269" d="M-1416.036-447.449h-2.151v-2.164h2.151Z" transform="translate(1447.406 472.089)" fill="#fff"/>
        <path id="Trazado_195270" data-name="Trazado 195270" d="M-1386.2-449.741h2.138v2.175h-2.138Z" transform="translate(1419.915 472.199)" fill="#fff"/>
        <path id="Trazado_195271" data-name="Trazado 195271" d="M-1258.441-513.693h4.367v2.177h-4.367Z" transform="translate(1310.099 527.168)" fill="#fff"/>
        <path id="Trazado_195272" data-name="Trazado 195272" d="M-1288.291-511.316h-2.15v-2.163h2.15Z" transform="translate(1337.604 526.984)" fill="#fff"/>
        <path id="Trazado_195273" data-name="Trazado 195273" d="M-1281.518-417.649v2.156h-8.877v-2.156Z" transform="translate(1337.564 444.615)" fill="#fff"/>
        <path id="Trazado_195274" data-name="Trazado 195274" d="M-1450.24-511.383v-2.154h10v2.154Z" transform="translate(1474.955 527.034)" fill="#fff"/>
      </g>
    </g>
  </g>
</svg>
