<svg xmlns="http://www.w3.org/2000/svg" width="112" height="112" viewBox="0 0 112 112">
  <g id="Grupo_155289" data-name="Grupo 155289" transform="translate(3523.951 8154.09)">
    <circle id="Elipse_5907" data-name="Elipse 5907" cx="56" cy="56" r="56" transform="translate(-3523.951 -8154.09)" fill="#baa1e1"/>
    <g id="lLq63p.tif" transform="translate(-87.136 -7131.287)">
      <g id="Grupo_154928" data-name="Grupo 154928" transform="translate(-3419.685 -993.836)">
        <path id="Trazado_195302" data-name="Trazado 195302" d="M-3416.49-993.836h27.4c.386.325.777.644,1.157.975,3.1,2.7,6.188,5.42,9.309,8.1a2.346,2.346,0,0,1,.9,1.955c-.025,5.217-.013,10.435-.013,15.652v.8h6.532v-.8q0-7.243,0-14.486c0-1.3.438-1.742,1.723-1.743q2.058,0,4.115,0h.726c0-.857.057-1.618-.012-2.368a2.709,2.709,0,0,1,2.827-2.847c5.979.037,11.957.013,17.935.015a2.62,2.62,0,0,1,2.833,2.827q.007,3.683,0,7.366a2.608,2.608,0,0,1-2.884,2.885q-8.906,0-17.812,0a2.587,2.587,0,0,1-2.887-2.871c0-.768,0-1.537,0-2.3h-3.9v14.3h3.9c0-.816.055-1.6-.011-2.365a2.718,2.718,0,0,1,2.868-2.873c5.958.027,11.916.01,17.874.011a2.645,2.645,0,0,1,2.852,2.819q.01,3.806,0,7.611a2.567,2.567,0,0,1-2.7,2.692c-6.06,0-12.121-.033-18.181.026a2.727,2.727,0,0,1-2.712-2.7c.042-.831.007-1.666.007-2.523h-3.9V-949.3h3.9c0-.871.056-1.652-.012-2.422a2.72,2.72,0,0,1,2.831-2.84c5.978.044,11.957.017,17.935.018a2.614,2.614,0,0,1,2.829,2.826c.005,2.414-.067,4.831.022,7.242a2.865,2.865,0,0,1-3.087,3.071c-3.889-.05-7.78-.015-11.67-.015-2.027,0-4.054.013-6.081,0a2.639,2.639,0,0,1-2.767-2.784c0-.811,0-1.622,0-2.482-1.725,0-3.379.012-5.033-.01a2.142,2.142,0,0,1-.925-.234c-.6-.313-.609-.91-.609-1.5q0-7.243,0-14.486v-.758h-6.531v.831q0,9.729,0,19.458c0,.307,0,.614-.029.92a3.857,3.857,0,0,1-3.852,3.627q-17.106.017-34.212,0a3.814,3.814,0,0,1-2.236-.729,4.608,4.608,0,0,1-1.616-2.457v-48.742c.23-.464.427-.948.7-1.387A4.319,4.319,0,0,1-3416.49-993.836Zm25.625,2.646c-.265-.015-.444-.034-.624-.034q-11.948,0-23.9,0c-1.23,0-1.668.44-1.668,1.667q0,23.2,0,46.409c0,1.259.447,1.7,1.7,1.7q16.616,0,33.232,0c1.272,0,1.748-.476,1.748-1.735q0-9.945,0-19.889c0-.2-.018-.4-.026-.574-.081-.035-.117-.065-.154-.065-2.907-.007-5.815-.007-8.722-.02-.375,0-.4.214-.461.5a9.214,9.214,0,0,1-9.712,7.347,9.2,9.2,0,0,1-8.294-10.995,9.288,9.288,0,0,1,9.881-7.3,9.2,9.2,0,0,1,8.108,7.336c.092.418.241.517.635.515,2.764-.015,5.529-.007,8.293-.009.136,0,.273-.021.409-.032v-15.687h-8.76c-1.244,0-1.69-.443-1.692-1.7,0-2.23,0-4.461,0-6.691Zm47.148,22.295h-18.235v7.758h18.235Zm-.014,17.014h-18.229v7.745h18.229Zm0-26.264v-7.81h-18.24v7.81Zm-61.517,13.04a6.51,6.51,0,0,0,6.461,6.627,6.57,6.57,0,0,0,6.625-6.424,6.614,6.614,0,0,0-6.52-6.673A6.535,6.535,0,0,0-3405.253-965.1Zm17.037-19.611h5.588l-5.588-4.882Z" transform="translate(3419.685 993.836)" fill="#fff"/>
        <path id="Trazado_195303" data-name="Trazado 195303" d="M-3272-650.576h-19.583v-2.61H-3272Z" transform="translate(3307.347 695.103)" fill="#fff"/>
        <path id="Trazado_195304" data-name="Trazado 195304" d="M-3271.956-886.978v2.525h-19.593v-2.525Z" transform="translate(3307.316 900.127)" fill="#fff"/>
        <path id="Trazado_195305" data-name="Trazado 195305" d="M-3366.337-650.605V-653.2h5.187v2.595Z" transform="translate(3372.901 695.116)" fill="#fff"/>
        <path id="Trazado_195306" data-name="Trazado 195306" d="M-3361.082-886.94v2.529h-5.19v-2.529Z" transform="translate(3372.844 900.094)" fill="#fff"/>
        <path id="Trazado_195307" data-name="Trazado 195307" d="M-2886.965-770.08h2.582v2.552h-2.582Z" transform="translate(2952.517 797.613)" fill="#fff"/>
        <path id="Trazado_195308" data-name="Trazado 195308" d="M-2929.546-770.028H-2927v2.553h-2.549Z" transform="translate(2989.858 797.568)" fill="#fff"/>
        <path id="Trazado_195309" data-name="Trazado 195309" d="M-2844.363-767.382v-2.53h2.564v2.53Z" transform="translate(2915.157 797.466)" fill="#fff"/>
        <path id="Trazado_195310" data-name="Trazado 195310" d="M-2887.067-631.761h2.592v2.552h-2.592Z" transform="translate(2952.606 676.315)" fill="#fff"/>
        <path id="Trazado_195311" data-name="Trazado 195311" d="M-2926.958-629.078h-2.533v-2.55h2.533Z" transform="translate(2989.809 676.198)" fill="#fff"/>
        <path id="Trazado_195312" data-name="Trazado 195312" d="M-2844.414-629.081v-2.539h2.552v2.539Z" transform="translate(2915.202 676.191)" fill="#fff"/>
        <path id="Trazado_195313" data-name="Trazado 195313" d="M-2884.475-905.853h-2.579v-2.578h2.579Z" transform="translate(2952.594 918.94)" fill="#fff"/>
        <path id="Trazado_195314" data-name="Trazado 195314" d="M-2929.542-908.623h2.537v2.583h-2.537Z" transform="translate(2989.854 919.108)" fill="#fff"/>
        <path id="Trazado_195315" data-name="Trazado 195315" d="M-2841.614-905.9h-2.542v-2.587h2.542Z" transform="translate(2914.975 918.989)" fill="#fff"/>
        <path id="Trazado_195316" data-name="Trazado 195316" d="M-3280.69-788.768l1.959,1.948c-.467.451-.937.9-1.4,1.353-1.2,1.194-2.4,2.4-3.605,3.587-.866.855-1.491.851-2.362,0-.786-.772-1.567-1.548-2.321-2.294l1.867-1.888,1.534,1.637Z" transform="translate(3304.57 814.002)" fill="#fff"/>
      </g>
    </g>
  </g>
</svg>
