<svg xmlns="http://www.w3.org/2000/svg" width="112" height="112" viewBox="0 0 112 112">
  <g id="Grupo_155281" data-name="Grupo 155281" transform="translate(3527.208 9167.441)">
    <circle id="Elipse_5899" data-name="Elipse 5899" cx="56" cy="56" r="56" transform="translate(-3527.208 -9167.441)" fill="#baa1e1"/>
    <g id="Zz7HNo.tif" transform="translate(-1420.529 -9069.855)">
      <g id="Grupo_154921" data-name="Grupo 154921" transform="translate(-2079.999 -82)">
        <path id="Trazado_195257" data-name="Trazado 195257" d="M-2061.692,41.559h-9.445a2.031,2.031,0,0,1-1.17-1.778q-.378-6.447-.776-12.892-.262-4.234-.554-8.467c-.013-.192-.024-.482-.141-.553-.969-.589-.87-1.568-.927-2.476-.131-2.073-.229-4.149-.346-6.223a7.125,7.125,0,0,0-.109-.706c-.61,2.834-1.077,5.642-1.541,8.451a1.8,1.8,0,0,1-1.016,1.476,1.536,1.536,0,0,1-1.627-.187,1.8,1.8,0,0,1-.6-1.961c1.24-7.391,2.5-14.78,3.721-22.175.393-2.386,1.094-4.576,3.153-6.075.4-.291.81-.568,1.22-.854a8.262,8.262,0,0,1-.037-12.171,8.135,8.135,0,0,1,11.139.206,8.225,8.225,0,0,1-.289,11.957c.212.14.418.274.621.411a7.472,7.472,0,0,1,3.469,5.036q1,5.8,2,11.6c.166.961.35,1.918.557,3.047.557-1.421,1-2.665,1.527-3.869,1.62-3.684,3.807-6.915,7.314-9.086a1.009,1.009,0,0,0,.312-.747c.024-2.154.007-4.307.017-6.461a21.969,21.969,0,0,1,.08-3.075,8.089,8.089,0,0,1,8.354-6.943,8.076,8.076,0,0,1,7.772,8.2c.008,2.905.011,5.81-.009,8.715a1.172,1.172,0,0,0,.476,1,17.087,17.087,0,0,1,2.5,2.462c3.865,5.2,4.47,10.965,2.786,17.1a2.705,2.705,0,0,0,.033,1.495,49.471,49.471,0,0,1,2.6,14.937c.058,2.829-.017,5.66.019,8.489a2.05,2.05,0,0,1-1.2,2.121h-30.733a2.359,2.359,0,0,1-1.07-2.279c.044-2.051-.028-4.1-.033-6.157a51.71,51.71,0,0,1,2.131-15.462c1.383-4.494,3.312-8.679,6.718-12.042a1.1,1.1,0,0,0,.219-.739c-.046-2.177-.116-4.353-.186-6.53a4.215,4.215,0,0,0-.117-.582c-.541.507-1.019.907-1.441,1.361a21.592,21.592,0,0,0-4.988,9.693c-.653,2.6-.983,5.293-1.394,7.953-.207,1.342-1.268,2.171-2.328,1.587a2.1,2.1,0,0,1-.939-1.232c-.42-1.926-.719-3.878-1.062-5.821l-.535-3.029a1.1,1.1,0,0,0-.221.659c-.15,2.472-.28,4.946-.46,7.416a1.748,1.748,0,0,1-.442,1.136,1.77,1.77,0,0,0-.6,1.443q-.616,10.227-1.229,20.453A2.365,2.365,0,0,1-2061.692,41.559Zm37.763-8.1c.026-.37.042-.492.043-.614a47.658,47.658,0,0,0-1.885-13.987,26.339,26.339,0,0,0-5.107-9.993,2.153,2.153,0,0,0-1.84-.866c-3.02.06-6.042.04-9.062.009a1.636,1.636,0,0,0-1.351.6,22.212,22.212,0,0,0-3.842,6.132A43.63,43.63,0,0,0-2050.3,30.1c-.052,1.061-.008,2.126-.008,3.383a14.189,14.189,0,0,0,1.866-.584,5.923,5.923,0,0,1,5.537.041,3,3,0,0,0,2.929.012,5.88,5.88,0,0,1,5.666.023,2.869,2.869,0,0,0,2.793,0,6.026,6.026,0,0,1,5.74-.026A10.306,10.306,0,0,0-2023.928,33.456Zm-37.5-18.691c.021-.276.035-.449.046-.623q.354-5.806.707-11.612c.175-2.972.345-5.944.492-8.918a3.364,3.364,0,0,0-1.418-2.824c-.059.064-.11.094-.117.131-.076.417-.151.835-.215,1.254a50.266,50.266,0,0,1-2.54,8.991,3.723,3.723,0,0,0-.3,1.151q-.034,5.97,0,11.94a.671.671,0,0,0,.437.487C-2063.391,14.789-2062.445,14.765-2061.427,14.765Zm-6.66-.034v-.9c0-3.678.011-7.356-.013-11.034a5.879,5.879,0,0,0-.282-1.6c-.729-2.461-1.52-4.9-2.22-7.374-.279-.982-.38-2.014-.577-3.107a3.577,3.577,0,0,0-1.49,3.076c.033.524.031,1.051.062,1.575q.509,8.612,1.025,17.224c.043.712.118,1.423.179,2.143Zm1.718-38.564a4.832,4.832,0,0,0-4.9,4.8,4.856,4.856,0,0,0,4.712,4.851,4.832,4.832,0,0,0,4.972-4.808A4.823,4.823,0,0,0-2066.369-23.833Zm29.339,6.8c-1.249,0-2.5.029-3.747-.014a.794.794,0,0,0-.917.633,4.849,4.849,0,0,0,1.679,5.431,4.767,4.767,0,0,0,5.721.063,4.851,4.851,0,0,0,1.753-5.47.781.781,0,0,0-.893-.658C-2034.63-17-2035.831-17.03-2037.03-17.03Zm13.106,53.968c-1.3-.412-2.461-.733-3.585-1.153a2.852,2.852,0,0,0-2.45.1,5.989,5.989,0,0,1-5.869.011,2.711,2.711,0,0,0-2.651-.014,6.261,6.261,0,0,1-5.951.016,3.414,3.414,0,0,0-2.074-.178c-1.263.283-2.48.779-3.777,1.206v1.285h26.357Zm-17.4-32.267h8.424V-.308h-8.424Zm-23.418,13.442V34.037h1.241l.989-15.925Zm-3.386,15.933V18.125h-2.209c.333,5.337.662,10.614.993,15.92Zm42.364-24c.6-4.26-1.324-9.685-3.69-11.355-.073,2.112-.151,4.212-.212,6.313a.877.877,0,0,0,.16.543C-2028.262,7.068-2027,8.573-2025.768,10.048ZM-2041.2-3.7h8.175a4.216,4.216,0,0,0-4.222-2.986A4.166,4.166,0,0,0-2041.2-3.7Zm-26.146-2.777.847,3.014.148,0,.834-3.012Zm2.49-4.285h-3.166l.168.908H-2065C-2064.954-10.146-2064.915-10.39-2064.856-10.763Zm.156,48.173c-.143.924-.143.924.891.787v-.787Zm-4.456.01.148.859.924-.046c-.019-.307-.033-.545-.049-.813Z" transform="translate(2079.999 35.379)" fill="#fff"/>
        <path id="Trazado_195258" data-name="Trazado 195258" d="M-1934.785-82c.3.105.6.214.9.316a6.116,6.116,0,0,1,2.8,9.68c-2.144,2.465-4.561,4.695-6.887,7a1.5,1.5,0,0,1-2.227-.018c-2.275-2.248-4.629-4.431-6.744-6.825a6.133,6.133,0,0,1,3.21-9.991,3.377,3.377,0,0,0,.406-.159h2.1c.643.251,1.282.509,1.929.748a.649.649,0,0,0,.41.016c.674-.242,1.34-.507,2.008-.764Zm-4.256,13.448c1.75-1.76,3.5-3.477,5.2-5.238a2.824,2.824,0,0,0,.088-3.992,2.873,2.873,0,0,0-4.043-.2,1.657,1.657,0,0,1-2.522.03,2.888,2.888,0,0,0-4.1.194,2.913,2.913,0,0,0,.239,4.112c1.545,1.566,3.105,3.118,4.662,4.673C-1939.382-68.838-1939.228-68.717-1939.041-68.552Z" transform="translate(1968.234 82)" fill="#fff"/>
      </g>
    </g>
  </g>
</svg>
