<svg xmlns="http://www.w3.org/2000/svg" width="112" height="112" viewBox="0 0 112 112">
  <g id="Grupo_155283" data-name="Grupo 155283" transform="translate(2917.091 9167.441)">
    <circle id="Elipse_5901" data-name="Elipse 5901" cx="56" cy="56" r="56" transform="translate(-2917.091 -9167.441)" fill="#baa1e1"/>
    <g id="DRUVec.tif" transform="translate(-486.461 -8187.116)">
      <g id="Grupo_154923" data-name="Grupo 154923" transform="translate(-2413.219 -964.192)">
        <path id="Trazado_195275" data-name="Trazado 195275" d="M-2380.51-964.192h11.4a1.011,1.011,0,0,0,.265.124,9.476,9.476,0,0,1,5.738,3.117,1.359,1.359,0,0,0,.891.365c1.875.033,3.75-.006,5.625.023a9.27,9.27,0,0,1,9.126,8.921c.028.9-.334,1.405-1.041,1.453-.729.049-1.195-.465-1.236-1.366a6.862,6.862,0,0,0-4.694-6.327c-2.281-.745-4.637-.265-6.968-.406.194.9.424,1.663.514,2.446a23.159,23.159,0,0,1,.065,2.472c.008,1.35-.017,2.7.021,4.05a1.236,1.236,0,0,0,.365.8,3.379,3.379,0,0,1,1.221,2.629c0,.725.015,1.451,0,2.175a3.18,3.18,0,0,1-2.463,3.019,8.883,8.883,0,0,1-1.106.106,3.924,3.924,0,0,0-.121.462,10.866,10.866,0,0,1-3.687,6.993,1.159,1.159,0,0,0-.284.781c-.026,1.5.016,3-.024,4.5-.021.776.349,1.07,1.049,1.162,1.459.193,2.922.369,4.37.631,3.5.634,6.959,1.382,9.9,3.57.026.019.091-.014.174-.029,0-1.243-.027-2.492.005-3.74.079-3.022.071-6.052.311-9.062.285-3.581.792-7.144,1.2-10.715a1.117,1.117,0,0,1,1.173-1.1,1.056,1.056,0,0,1,1.06,1.192c-.088,1.37-.225,2.738-.375,4.1-.311,2.828-.806,5.647-.93,8.482-.192,4.418-.14,8.847-.186,13.271a1.573,1.573,0,0,0,.083.731,13.353,13.353,0,0,1,1.251,6.992c-.021.764,0,1.529,0,2.348h.913c2.4,0,4.8-.011,7.2,0a3.18,3.18,0,0,1,3.308,3.3q.006.975,0,1.95a2.979,2.979,0,0,1-1.511,2.675,1,1,0,0,0-.556,1.006c.02,3.375.014,6.751.01,10.126,0,2.4-1.184,3.57-3.6,3.57h-65.484c-2.455,0-3.614-1.161-3.616-3.627,0-3.375,0-6.751-.01-10.126,0-.248-.057-.641-.213-.721a4.092,4.092,0,0,1-1.838-2.169v-3.6a3.761,3.761,0,0,1,4.172-2.406c1.344.087,2.7.017,4.048.017h3.207c0-1.468-.007-2.861,0-4.253a11.132,11.132,0,0,1,1.088-4.776,2.413,2.413,0,0,0,.232-.994c.017-3.174.1-6.352-.018-9.522-.111-3.04-.316-6.087-.691-9.105a95.6,95.6,0,0,1-.985-12.61,9.072,9.072,0,0,1,8.1-9.154c2.2-.249,4.441-.089,6.662-.158a1.49,1.49,0,0,0,.937-.424,9.722,9.722,0,0,1,4.307-2.743C-2381.615-963.917-2381.06-964.047-2380.51-964.192Zm-28.372,62.644v10.274c0,1.532.089,1.623,1.593,1.623h65.11c1.292,0,1.444-.155,1.445-1.472q0-4.8,0-9.6c0-.265-.022-.529-.035-.824Zm10.669-21.074c1.649-.747,3.226-1.607,4.9-2.187a45.522,45.522,0,0,1,9.376-1.865c1.021-.127,1.211-.3,1.213-1.3,0-1.425-.018-2.851.011-4.275a1.26,1.26,0,0,0-.493-1.085,9.838,9.838,0,0,1-3.164-5.148c-.175-.7-.306-1.4-.4-1.84a11.2,11.2,0,0,1-2.5-1.087c-1.7-1.336-1.671-5.531-.051-6.971a.278.278,0,0,1,.058-.048c.437-.2.451-.573.469-1,.119-2.925-.415-5.891.6-8.789-1.873,0-3.693-.083-5.5.018a6.71,6.71,0,0,0-6.144,6.3c0,3.191.246,6.387.508,9.57.223,2.709.753,5.4.912,8.107.194,3.34.146,6.695.2,10.043C-2398.205-923.613-2398.213-923.048-2398.213-922.622Zm13.645-21.422h0c0,.8-.034,1.6.006,2.4a8.726,8.726,0,0,0,2.737,6.507,9.914,9.914,0,0,0,9.45,2.433c3.687-.973,6.444-3.117,7.046-7.088a55.958,55.958,0,0,0,.26-7.1c0-.147-.183-.338-.329-.442a3.426,3.426,0,0,1-1.5-3.016q.021-1.912,0-3.824c-.013-.968-.452-1.387-1.411-1.3a8.115,8.115,0,0,0-1.753.36,14.516,14.516,0,0,1-9.338-.018,7.406,7.406,0,0,0-1.831-.345c-1.11-.074-1.486.319-1.5,1.444-.012,1.374.075,2.758-.061,4.12a3.057,3.057,0,0,1-.853,1.982,2.637,2.637,0,0,0-.935,2.607C-2384.549-944.894-2384.568-944.468-2384.568-944.043Zm9.684,40.183h34.583c.25,0,.551.084.739-.025.334-.192.8-.467.854-.77a6.813,6.813,0,0,0,.007-2.235c-.052-.314-.492-.626-.827-.81a2.006,2.006,0,0,0-.886-.047H-2408.6c-2.369,0-2.369,0-2.366,2.351,0,1.33.213,1.537,1.579,1.537Zm-19.577-18.1a5.807,5.807,0,0,0-.629.256,7.942,7.942,0,0,0-4.342,6.66c-.11,1.655-.02,3.322-.02,4.986h4.991c0-1.135,0-2.229,0-3.323,0-.867.434-1.378,1.135-1.368s1.1.52,1.107,1.4c0,1.092,0,2.184,0,3.279h11.563c.011-.08.025-.109.017-.128q-2.721-6.726-5.457-13.446a.612.612,0,0,0-.479-.319c-1.879.353-3.753.741-5.55,1.105a1.518,1.518,0,0,0-.074.217c-.007,1.2-.008,2.4-.021,3.6-.009.8-.462,1.315-1.129,1.309s-1.106-.518-1.112-1.324C-2394.467-920-2394.461-920.941-2394.461-921.96Zm37.021,11.916V-922.85c-1.728-.352-3.443-.668-5.14-1.064-.619-.144-.875.013-1.1.588-1.679,4.189-3.392,8.365-5.092,12.546-.091.225-.162.458-.26.736Zm-5.671-39.178c0-2.125.123-4.2-.028-6.263a6.8,6.8,0,0,0-6.26-6.306,95.356,95.356,0,0,0-10.634-.025,6.7,6.7,0,0,0-6.407,6.144,58.477,58.477,0,0,0-.043,6.418c1.164.17,1.479-.09,1.483-1.218,0-1.3-.011-2.6,0-3.9a3.238,3.238,0,0,1,3.368-3.343,11.97,11.97,0,0,1,3.082.474,12.485,12.485,0,0,0,7.724-.027,12.023,12.023,0,0,1,1.594-.4c3.216-.586,4.788,1.527,4.623,3.776-.082,1.118-.017,2.248-.013,3.372C-2364.614-949.344-2364.366-949.121-2363.111-949.222Zm-11.7,27.366c1.875-1.456,3.709-2.875,5.531-4.309a.662.662,0,0,0,.207-.476c-.031-1.12-.1-2.239-.137-3.359-.017-.433,0-.868,0-1.4a12.778,12.778,0,0,1-11.14.029c-.025.229-.05.373-.056.518-.058,1.418-.123,2.836-.152,4.255a.779.779,0,0,0,.31.509C-2378.462-924.686-2376.665-923.3-2374.807-921.856Zm24.643,11.806c0-1.673.086-3.322-.019-4.959a7.942,7.942,0,0,0-4.245-6.642,5.715,5.715,0,0,0-.673-.283v11.884Zm-26.76-10.566c-1.77-1.373-3.439-2.673-5.118-3.961a.564.564,0,0,0-.4-.081c-.46.083-.916.2-1.46.32l2.442,6Zm11.168-3.625c-1.3-.787-2.205-.216-3.052.6a4.931,4.931,0,0,1-.414.32l-3.461,2.7,4.529,2.275Zm-7.277,14.193c-.306-1.217-.6-2.389-.9-3.564h-1.76l-.9,3.564Zm-3.8-7.976c.224.488.482.971.669,1.48s.51.635,1.053.687a1.54,1.54,0,0,0,1.913-1.22,6.51,6.51,0,0,1,.417-.944C-2374.426-919.24-2375.159-919.241-2376.835-918.023Zm-1.837,6.537c.79-1.938,1.247-3.791-.368-5.5l-1.555.776Zm8.1-5.5c-1.644,1.726-1.145,3.574-.375,5.514l1.922-4.752Zm-16.32-25.935v-3.941c-.918.008-1.214.261-1.239,1.057-.021.62-.024,1.243,0,1.863C-2388.1-943.162-2387.769-942.9-2386.892-942.924Zm24.147,0c.9.009,1.22-.24,1.253-.984a20.089,20.089,0,0,0,0-2.022c-.041-.725-.417-.982-1.25-.9Z" transform="translate(2413.219 964.192)" fill="#fff"/>
      </g>
    </g>
  </g>
</svg>
