<svg xmlns="http://www.w3.org/2000/svg" width="61" height="61" viewBox="0 0 61 61">
  <g id="Grupo_142439" data-name="Grupo 142439" transform="translate(-0.266 0.499)">
    <circle id="Elipse_4868" data-name="Elipse 4868" cx="30.5" cy="30.5" r="30.5" transform="translate(0.266 -0.499)" fill="#2194e5"/>
    <g id="ykLqxA.tif" transform="translate(2579.851 -445.383)">
      <g id="Grupo_154942" data-name="Grupo 154942" transform="translate(-2567.959 453.509)">
        <path id="Trazado_195335" data-name="Trazado 195335" d="M-2536.787,494.532h-30.29a1.7,1.7,0,0,1-.882-.881V461.6a4.351,4.351,0,0,1,.431-.611q3.516-3.534,7.047-7.054a1.39,1.39,0,0,1,1.037-.429q10.733.008,21.466,0a1.184,1.184,0,0,1,1.275,1.271c.005.4,0,.792,0,1.222h3.287c1.1,0,1.521.42,1.521,1.52q0,8.349,0,16.7a.642.642,0,0,0,.283.6c3.635,2.68,5.264,6.278,4.494,10.733a10.386,10.386,0,0,1-7.72,8.567C-2535.471,494.317-2536.137,494.4-2536.787,494.532Zm-7.906-2.416c-.6-.672-1.212-1.3-1.75-1.994a1.084,1.084,0,0,0-.979-.491c-4.794.019-9.588.009-14.382.016a1.226,1.226,0,0,1-1.215-.677,1.2,1.2,0,0,1,1.157-1.726q6.69,0,13.38,0h.451l-.533-2.406h-.46q-6.409,0-12.819,0a1.2,1.2,0,0,1-1.176-.676,1.2,1.2,0,0,1,1.157-1.727q6.45,0,12.9,0h.416c.2-.835.383-1.609.573-2.406h-.48q-6.65,0-13.3-.007a1.847,1.847,0,0,1-.768-.156,1.153,1.153,0,0,1-.593-1.317,1.2,1.2,0,0,1,1.244-.92q7.392,0,14.783.005a.676.676,0,0,0,.624-.309,10.505,10.505,0,0,1,5.35-3.88c.652-.209,1.326-.35,1.988-.522V455.941h-19.21v.46c0,1.8,0,3.6,0,5.407a1.193,1.193,0,0,1-1.312,1.315q-2.725,0-5.448,0h-.431v28.991Zm6.933-16.813a8.451,8.451,0,0,0-8.4,8.414,8.453,8.453,0,0,0,8.405,8.412,8.455,8.455,0,0,0,8.424-8.435A8.452,8.452,0,0,0-2537.76,475.3Zm3.43-1.919V458.459h-2.351c-.008.13-.02.234-.02.338q0,6.883,0,13.767c0,.067-.021.145.007.2.042.08.109.189.183.2C-2535.784,473.115-2535.054,473.248-2534.33,473.384Zm-26.43-15.6-2.917,2.914h2.917Z" transform="translate(2567.959 -453.509)" fill="#fff"/>
        <path id="Trazado_195336" data-name="Trazado 195336" d="M-2472.291,562.954c0-.783,0-1.527,0-2.271a1.207,1.207,0,0,1,1.336-1.334q2.264,0,4.527,0a1.207,1.207,0,0,1,1.344,1.327c0,1.015,0,2.029,0,3.044v.431c1.038,0,2.037.042,3.032-.01,1.345-.07,1.842.446,1.788,1.79-.055,1.359-.011,2.723-.012,4.085a1.206,1.206,0,0,1-1.321,1.351q-7.091,0-14.181,0a1.2,1.2,0,0,1-1.321-1.31q0-2.9,0-5.807a1.2,1.2,0,0,1,1.295-1.3c1.029,0,2.057,0,3.084,0Zm4.777,5.989v-7.16h-2.354v7.16Zm-7.156-3.577v3.57h2.347v-3.57Zm9.6,3.568h2.354v-2.356h-2.354Z" transform="translate(2484.393 -550.852)" fill="#fff"/>
        <path id="Trazado_195337" data-name="Trazado 195337" d="M-2225.413,761.738a3.146,3.146,0,0,1-1.724,2.836.62.62,0,0,0-.387.489,1.145,1.145,0,0,1-1.1.984,1.145,1.145,0,0,1-1.223-.876.571.571,0,0,0-.459-.457,4.809,4.809,0,0,1-.976-.45,1.192,1.192,0,0,1-.443-1.634,1.2,1.2,0,0,1,1.631-.451,2.515,2.515,0,0,0,1.449.359.834.834,0,0,0,.789-.623c.068-.374-.177-.577-.456-.719-.39-.2-.816-.331-1.2-.543a6.436,6.436,0,0,1-1.366-.879,2.721,2.721,0,0,1,.552-4.26.893.893,0,0,0,.48-.613,1.154,1.154,0,0,1,1.148-.875,1.174,1.174,0,0,1,1.146.884.54.54,0,0,0,.356.418,3.534,3.534,0,0,1,.778.479,1.179,1.179,0,0,1,.225,1.645,1.247,1.247,0,0,1-1.679.283,2,2,0,0,0-.888-.249c-.151-.006-.364.195-.445.355-.038.077.135.34.269.408.485.248,1,.434,1.492.67a3.257,3.257,0,0,1,1.932,2.2C-2225.452,761.341-2225.437,761.568-2225.413,761.738Z" transform="translate(2258.859 -729.903)" fill="#fff"/>
      </g>
    </g>
  </g>
</svg>
