<svg xmlns="http://www.w3.org/2000/svg" width="106.522" height="97.787" viewBox="0 0 106.522 97.787">
  <g id="Grupo_155292" data-name="Grupo 155292" transform="translate(-244 -1111.014)">
    <path id="Polígono_49" data-name="Polígono 49" d="M12.5,0,25,19H0Z" transform="translate(263 1137.277) rotate(90)" fill="#2194e5"/>
    <g id="l5CO9L" transform="translate(3717.564 1526.146)">
      <g id="Grupo_154944" data-name="Grupo 154944" transform="translate(-3467.957 -415.132)">
        <path id="Trazado_195342" data-name="Trazado 195342" d="M-3467.957-341.038c.132-.84.221-1.69.4-2.52a20.566,20.566,0,0,1,10.385-14.055c4.594-2.616,9.153-5.292,13.727-7.942.061-.036.117-.081.211-.145-.425-.709-.857-1.4-1.26-2.109a35.207,35.207,0,0,1-2.885-6.412.647.647,0,0,0-.265-.373,7.057,7.057,0,0,1-3.289-3.391,12.856,12.856,0,0,1-1.545-6.79,6.452,6.452,0,0,1,1.17-3.585,3.519,3.519,0,0,1,2.482-1.385,9.02,9.02,0,0,0-.112-3.4c-.387-3.683-.552-7.37.521-10.965a10.182,10.182,0,0,1,8-7.609,3.172,3.172,0,0,1,.912-.148,3.445,3.445,0,0,0,1.973-.657,22.067,22.067,0,0,1,8.387-2.443,32.511,32.511,0,0,1,7.6.116,21.358,21.358,0,0,1,14.583,8.163,2.2,2.2,0,0,0,2.085,1.025,18.469,18.469,0,0,1,8.073,1.344,16.312,16.312,0,0,1,9.229,9.633c.385,1,.624,2.05.932,3.077a1.454,1.454,0,0,1-.427,1.545,1.531,1.531,0,0,1-1.619.363c-.271-.082-.538-.178-.853-.283.27,1.084.52,2.1.784,3.114a.353.353,0,0,0,.223.186,3.29,3.29,0,0,1,2.365,2.759,9.465,9.465,0,0,1-1.993,7.952,10.772,10.772,0,0,1-1.148,1.006,2.265,2.265,0,0,0-.631.74,27.606,27.606,0,0,1-4.637,8.138c.954.625,1.889,1.242,2.83,1.851,3.537,2.288,7.066,4.588,10.622,6.845a19.273,19.273,0,0,0,2.037.9,20.363,20.363,0,0,1,11.7,14.9c.159.76.233,1.539.347,2.308v2.852a3.256,3.256,0,0,0-.1.357,26.443,26.443,0,0,1-.5,3.118c-2.29,8.092-7.51,13.183-15.707,15.163-.911.22-1.856.3-2.785.449h-2.852c-.876-.134-1.76-.228-2.627-.408a20.233,20.233,0,0,1-10.226-5.444,1.5,1.5,0,0,0-1.158-.457q-21.708.015-43.416.008-8.332,0-16.665,0a4.822,4.822,0,0,1-3.469-1.363,5.366,5.366,0,0,1-1.417-2.65Zm19.208-45.562a5.181,5.181,0,0,0-.344.735,7.394,7.394,0,0,0-.007,3.728,8.233,8.233,0,0,0,1.776,3.88,2.635,2.635,0,0,0,1.188.776,1.794,1.794,0,0,1,1.433,1.259,32.057,32.057,0,0,0,2.643,6.334,25.506,25.506,0,0,0,7.842,9.128,12.87,12.87,0,0,0,6.535,2.387,13.136,13.136,0,0,0,9.369-3.423,27.719,27.719,0,0,0,7.61-10.482c.555-1.26.986-2.575,1.448-3.874a1.805,1.805,0,0,1,1.39-1.311,2.13,2.13,0,0,0,.947-.456,6.826,6.826,0,0,0,1.859-3.288,7.835,7.835,0,0,0,.211-4.727c-.211-.652-.291-.681-.907-.384a1.58,1.58,0,0,1-2.333-1.337c-.18-1.422-.423-2.842-.736-4.24-.23-1.026-.674-2-.923-3.025a2.648,2.648,0,0,1,2.071-3.444,13.915,13.915,0,0,1,1.682-.127c-.56-1.224-1.037-2.445-1.656-3.589-3.157-5.828-8.186-8.892-14.657-9.687a27.3,27.3,0,0,0-7.806.1,16.023,16.023,0,0,0-6.159,2.1,5.719,5.719,0,0,1-2.7.853,6.932,6.932,0,0,0-5.952,4.283c-1.323,2.868-1.23,5.944-1.035,8.983a35.227,35.227,0,0,1,.166,7.728,1.629,1.629,0,0,1-2.5,1.341C-3448.414-386.451-3448.548-386.506-3448.75-386.6Zm36.139,23.451c-.089.1-.15.162-.207.23a23.389,23.389,0,0,1-7.551,6.139,14.263,14.263,0,0,1-11.753.615,21.861,21.861,0,0,1-8.8-6.566c-.312-.365-.506-.365-.89-.141-4.361,2.542-8.722,5.084-13.107,7.585a19.864,19.864,0,0,0-6.223,5.093,16.693,16.693,0,0,0-3.616,9.893c-.086,3.873.009,7.751-.042,11.625a1.742,1.742,0,0,0,1.881,1.9q8.993-.023,17.986-.009h40.134a20.267,20.267,0,0,1-2.758-15.421,20.429,20.429,0,0,1,8.9-12.858Zm42.4,25.267a17.334,17.334,0,0,0-17.4-17.308,17.409,17.409,0,0,0-17.275,17.237,17.421,17.421,0,0,0,17.4,17.45A17.373,17.373,0,0,0-3370.215-337.883Zm-20.2-55.418a13.542,13.542,0,0,0-5.679-7.144,15.219,15.219,0,0,0-8.054-2.1c.6,1.927,1.189,3.814,1.781,5.7a1.629,1.629,0,0,1-.448,1.849,1.674,1.674,0,0,1-1.842.2c-.6-.221-1.225-.359-1.857-.539l1.517,5.555a7.953,7.953,0,0,1,1.274.478c1.577.9,2.042,2.45,2.224,4.106a12.457,12.457,0,0,1-1.132,6.489,7.741,7.741,0,0,1-3.371,3.966,1.262,1.262,0,0,0-.614.693c-.848,1.95-1.688,3.906-2.6,5.828-.415.878-.981,1.684-1.485,2.534,3.1,1.794,6.16,3.559,9.215,5.337,1.937,1.127,3.86,2.279,5.8,3.4a.886.886,0,0,0,.6.026c1.461-.369,2.91-.788,4.377-1.127a22.335,22.335,0,0,1,2.266-.288l-8.387-5.432c-.276.233-.525.474-.8.675a1.554,1.554,0,0,1-2.192-.3,1.558,1.558,0,0,1,.312-2.232,18.835,18.835,0,0,0,3.95-4.367,24.17,24.17,0,0,0,2.97-6.306c.184-.595.491-1.126,1.116-1.227a1.574,1.574,0,0,0,1.248-.947,15.885,15.885,0,0,0,.994-2.638,3.452,3.452,0,0,0-.106-2.354c-1.3.414-2.312-.119-2.376-1.262a17.57,17.57,0,0,0-1.013-4.675,4.444,4.444,0,0,1-.222-2.022C-3392.776-392.569-3391.942-393.111-3390.411-393.3Z" transform="translate(3467.957 415.132)" fill="#fff"/>
        <path id="Trazado_195343" data-name="Trazado 195343" d="M-3219.607-295.08c-.82,1.252-1.623,2.49-2.441,3.719a1.555,1.555,0,0,1-2.309.523,1.467,1.467,0,0,1-.463-2.026c.9-1.419,1.793-2.841,2.787-4.191a3.112,3.112,0,0,1,4.141-.71,35.1,35.1,0,0,0,9.325,3.476,36.91,36.91,0,0,0,7.788.616c.712-.01,1.426-.005,2.139,0a1.535,1.535,0,0,1,1.595,1.465,1.546,1.546,0,0,1-1.506,1.679,58.162,58.162,0,0,1-8.965-.374,35.936,35.936,0,0,1-11.278-3.782C-3219.053-294.819-3219.317-294.94-3219.607-295.08Z" transform="translate(3251.695 311.06)" fill="#fff"/>
        <path id="Trazado_195344" data-name="Trazado 195344" d="M-3209.43,140.878a8.084,8.084,0,0,1-.938-.332q-6.119-3.048-12.229-6.113a1.56,1.56,0,0,1-.958-1.916,1.559,1.559,0,0,1,1.657-1.138,2.8,2.8,0,0,1,.865.308q5.58,2.781,11.148,5.584a.922.922,0,0,0,.951-.025q5.605-2.834,11.23-5.629a1.632,1.632,0,0,1,2.3.614,1.635,1.635,0,0,1-.937,2.239q-6.105,3.052-12.215,6.1A7.6,7.6,0,0,1-3209.43,140.878Z" transform="translate(3250.426 -71.422)" fill="#fff"/>
        <path id="Trazado_195345" data-name="Trazado 195345" d="M-2964.965,306.993c0-.511-.008-1.021,0-1.532a1.608,1.608,0,0,1,1.569-1.631,1.614,1.614,0,0,1,1.6,1.649q.015,1.5,0,3.009a1.585,1.585,0,0,1-1.594,1.65,1.593,1.593,0,0,1-1.58-1.669C-2964.969,307.978-2964.965,307.486-2964.965,306.993Z" transform="translate(3020.141 -224.968)" fill="#fff"/>
        <path id="Trazado_195346" data-name="Trazado 195346" d="M-3324.1,306.91c0-.512-.005-1.024,0-1.536a1.564,1.564,0,0,1,1.435-1.578,1.523,1.523,0,0,1,1.676,1.384,34.156,34.156,0,0,1,.011,3.507,1.546,1.546,0,0,1-1.655,1.416,1.561,1.561,0,0,1-1.466-1.6C-3324.105,307.97-3324.1,307.44-3324.1,306.91Z" transform="translate(3339.882 -224.932)" fill="#fff"/>
        <path id="Trazado_195347" data-name="Trazado 195347" d="M-3177.3,306.958c0,.548.013,1.1,0,1.645a1.551,1.551,0,0,1-1.393,1.506,1.482,1.482,0,0,1-1.675-1.24,27.573,27.573,0,0,1,0-3.827,1.464,1.464,0,0,1,1.673-1.234,1.565,1.565,0,0,1,1.4,1.56C-3177.3,305.9-3177.3,306.428-3177.3,306.958Z" transform="translate(3211.979 -224.939)" fill="#fff"/>
        <path id="Trazado_195348" data-name="Trazado 195348" d="M-3105.654,307c0,.528.007,1.057,0,1.585a1.576,1.576,0,0,1-1.429,1.582,1.47,1.47,0,0,1-1.663-1.3,24.945,24.945,0,0,1-.019-3.652,1.5,1.5,0,0,1,1.648-1.34,1.547,1.547,0,0,1,1.464,1.653C-3105.652,306.017-3105.654,306.509-3105.654,307Z" transform="translate(3148.218 -224.999)" fill="#fff"/>
        <path id="Trazado_195349" data-name="Trazado 195349" d="M-3033.884,307c0,.492,0,.984,0,1.476a1.569,1.569,0,0,1-1.516,1.661,1.576,1.576,0,0,1-1.644-1.548c-.042-1.074-.044-2.152,0-3.225a1.581,1.581,0,0,1,1.609-1.533,1.581,1.581,0,0,1,1.549,1.638C-3033.878,305.984-3033.884,306.494-3033.884,307Z" transform="translate(3084.339 -224.971)" fill="#fff"/>
        <path id="Trazado_195350" data-name="Trazado 195350" d="M-3392.778,306.983a17.036,17.036,0,0,1-.151,2.012,1.487,1.487,0,0,1-1.692,1.14,1.556,1.556,0,0,1-1.356-1.538c-.009-1.024-.006-2.047,0-3.071a1.558,1.558,0,0,1,1.547-1.69,1.625,1.625,0,0,1,1.607,1.664c.016.493,0,.987,0,1.481Z" transform="translate(3403.877 -224.972)" fill="#fff"/>
        <path id="Trazado_195351" data-name="Trazado 195351" d="M-3252.221,306.977c0-.548-.014-1.1,0-1.644a1.544,1.544,0,0,1,1.554-1.511,1.526,1.526,0,0,1,1.548,1.513c.021,1.1.025,2.192,0,3.287a1.536,1.536,0,0,1-1.556,1.508,1.541,1.541,0,0,1-1.556-1.511c-.016-.547,0-1.1,0-1.643Z" transform="translate(3275.895 -224.961)" fill="#fff"/>
        <path id="Trazado_195352" data-name="Trazado 195352" d="M-2797.373,172.856a6.384,6.384,0,0,1,6.29,6.109,6.447,6.447,0,0,1-6.306,6.576c0,.461.006.929,0,1.4a1.6,1.6,0,0,1-1.609,1.7,1.578,1.578,0,0,1-1.542-1.7,11.662,11.662,0,0,0,.008-1.229,20.4,20.4,0,0,1-3.068-1.059,6.074,6.074,0,0,1-3.267-5.285,1.586,1.586,0,0,1,1.49-1.756,1.551,1.551,0,0,1,1.677,1.609,3.131,3.131,0,0,0,3.174,3.077c0-1,0-2,0-3a1.539,1.539,0,0,1,1.528-1.689,1.55,1.55,0,0,1,1.606,1.635c.02.511,0,1.023,0,1.535,0,.491,0,.982,0,1.466a2.942,2.942,0,0,0,2.875-1.8,3.112,3.112,0,0,0-2.692-4.393c-1.347-.087-2.7-.022-4.052-.1a6.415,6.415,0,0,1-5.539-5.3,6.375,6.375,0,0,1,5.784-7.231c.144-.01.286-.043.485-.075,0-.535-.007-1.061,0-1.587a1.523,1.523,0,0,1,1.331-1.483,1.483,1.483,0,0,1,1.738,1.208c.088.591.069,1.2.1,1.864.429.069.873.128,1.311.213a6.3,6.3,0,0,1,4.955,6.08,1.549,1.549,0,0,1-1.5,1.628,1.507,1.507,0,0,1-1.656-1.518,3.247,3.247,0,0,0-3.522-3.213c-1.093.058-2.195-.01-3.281.1a3.039,3.039,0,0,0-2.652,2.892,3.2,3.2,0,0,0,2.344,3.236c.243.06.495.085.818.138,0-1-.009-1.94.005-2.884a2.765,2.765,0,0,1,.116-.908,1.5,1.5,0,0,1,1.769-.936,1.568,1.568,0,0,1,1.251,1.581c.019.913,0,1.827.005,2.741C-2797.389,172.607-2797.38,172.713-2797.373,172.856Z" transform="translate(2879.388 -97.157)" fill="#fff"/>
      </g>
    </g>
  </g>
</svg>
