<svg xmlns="http://www.w3.org/2000/svg" width="61" height="61" viewBox="0 0 61 61">
  <g id="Grupo_142441" data-name="Grupo 142441" transform="translate(-0.253 0.499)">
    <circle id="Elipse_4870" data-name="Elipse 4870" cx="30.5" cy="30.5" r="30.5" transform="translate(0.253 -0.499)" fill="#2194e5"/>
    <g id="e4G3L4.tif" transform="translate(3229.479 -391.56)">
      <g id="Grupo_154943" data-name="Grupo 154943" transform="translate(-3216.79 397.657)">
        <path id="Trazado_195338" data-name="Trazado 195338" d="M-3212.211,440.855a.973.973,0,0,1-.352-.843c.016-2.206-.007-4.413.026-6.618a2.984,2.984,0,0,1,1.691-2.758.474.474,0,0,0,.239-.323c.015-1.615.01-3.23.01-4.906a4.6,4.6,0,0,0-2.485,1.932,12.187,12.187,0,0,0-1.41,4.418c-.386,2.82-.749,5.642-1.13,8.537l-1.169-.14c.075-.63.141-1.237.221-1.843.3-2.252.594-4.505.908-6.756a14.184,14.184,0,0,1,1.45-4.631,5.628,5.628,0,0,1,2.858-2.5,47.019,47.019,0,0,1,6.953-2.365l.45-.124c0-.394.01-.8-.007-1.2a.431.431,0,0,0-.159-.269,6.855,6.855,0,0,1-2.621-5.918c.006-.136,0-.272,0-.361a6.809,6.809,0,0,1-.879-.006,1.787,1.787,0,0,1-1.556-1.766,11.031,11.031,0,0,1,.017-1.684,2.706,2.706,0,0,1,.454-1.139,1,1,0,0,0,.2-.685c-.06-1.078-.18-2.158-.147-3.234a7.857,7.857,0,0,1,2.327-5.689,8.2,8.2,0,0,1,4.586-2.115,16.469,16.469,0,0,1,5.739.079,7.439,7.439,0,0,1,6.376,6.667,17.408,17.408,0,0,1-.046,4.408,1.057,1.057,0,0,0,.143.479,4.8,4.8,0,0,1,.484,1.127,8.826,8.826,0,0,1,.015,1.89,1.742,1.742,0,0,1-2.118,1.617c-.069-.01-.139-.011-.231-.018-.03.538-.043,1.068-.093,1.594a6.587,6.587,0,0,1-2.423,4.6,1.7,1.7,0,0,0-.349,1.521c.045.086.2.129.31.165,1.891.612,3.8,1.171,5.67,1.844a8.58,8.58,0,0,1,3.38,1.905,7.3,7.3,0,0,1,1.8,3.52c.372,1.593.615,3.218.86,4.837.274,1.8.488,3.614.726,5.422.026.194.041.389.067.633l-1.163.166c-.126-.941-.232-1.856-.374-2.765a64.807,64.807,0,0,0-1.265-8.01,13.757,13.757,0,0,0-.755-1.912,4.414,4.414,0,0,0-2.618-2.215c0,1.666,0,3.293.007,4.92a.336.336,0,0,0,.162.245,3.238,3.238,0,0,1,1.827,3.2c.012,2.08,0,4.159.006,6.239a.881.881,0,0,1-.4.824ZM-3190.8,424.2v.511q0,3.1,0,6.2c0,.719-.165.886-.9.887q-7.395,0-14.789,0c-.7,0-.9-.2-.9-.9q0-3.1,0-6.2v-.513c-.526.182-.993.369-1.475.5a.647.647,0,0,0-.553.759c.035,1.77.016,3.54.013,5.311,0,.6-.078.664-.638.864a2.31,2.31,0,0,0-.779.47,2.034,2.034,0,0,0-.553,1.582q-.005,2.845,0,5.69c0,.093.017.187.026.282h24.563c0-.8.006-1.57,0-2.34-.012-1.362-.013-2.725-.056-4.086a1.728,1.728,0,0,0-1.232-1.595c-.644-.211-.7-.288-.7-.951,0-1.8,0-3.6-.007-5.4,0-.144-.062-.377-.157-.415C-3189.533,424.62-3190.144,424.426-3190.8,424.2Zm-16.561-15.545c5.566-2.4,11.057-2.124,16.563.075a35.885,35.885,0,0,0-.025-3.92,5.93,5.93,0,0,0-4.133-5.336,13.615,13.615,0,0,0-7.27-.3,6.148,6.148,0,0,0-3.84,2.317C-3207.675,403.641-3207.59,406.1-3207.365,408.653Zm14.764,4c-1.427-.339-2.8-.651-4.167-.995a9.97,9.97,0,0,0-4.987.078c-1.243.318-2.494.6-3.8.92,0,.765-.008,1.633,0,2.5a5.5,5.5,0,0,0,4.277,5.36,13.421,13.421,0,0,0,3.093.181,5.453,5.453,0,0,0,5.018-3.173C-3192.356,415.943-3192.656,414.234-3192.6,412.65Zm-6.476,16.082c-.1-.119-.171-.2-.24-.289-1.352-1.706-2.708-3.408-4.046-5.123a.434.434,0,0,0-.558-.177c-.628.2-1.259.382-1.9.538-.305.075-.389.219-.386.523.013,1.981.007,3.961.007,5.942v.418h14.177a.422.422,0,0,0,.037-.1c0-2.135.009-4.27,0-6.405a.421.421,0,0,0-.239-.309c-.708-.221-1.429-.4-2.136-.622a.349.349,0,0,0-.451.156c-.8,1.034-1.6,2.061-2.408,3.089C-3197.835,427.151-3198.449,427.932-3199.077,428.732Zm7.958-18.858a19.777,19.777,0,0,0-15.971-.049c.393,1.282.912,1.649,2.16,1.453a22.419,22.419,0,0,0,2.455-.555,11.43,11.43,0,0,1,5.774-.229c1.2.284,2.4.569,3.606.79C-3192.038,411.477-3191.425,411.018-3191.119,409.874Zm-11.629,11.472a1.564,1.564,0,0,0,.39,1.382c1.105,1.339,2.162,2.718,3.254,4.1.093-.108.166-.19.234-.276,1.028-1.314,2.036-2.643,3.093-3.934a1.494,1.494,0,0,0,.311-1.259A11.824,11.824,0,0,1-3202.748,421.346Zm-5.243-10.275c0,.4-.02.832.006,1.264.028.491.43.789.828.6a1.1,1.1,0,0,0,.391-.5c.033-.065-.047-.229-.121-.3C-3207.245,411.773-3207.619,411.427-3207.992,411.071Zm17.783.039c-.362.346-.709.665-1.037,1a.522.522,0,0,0-.148.347.525.525,0,0,0,.555.517.53.53,0,0,0,.621-.49C-3190.181,412.018-3190.208,411.547-3190.208,411.109Z" transform="translate(3216.79 -397.657)" fill="#fff"/>
        <path id="Trazado_195339" data-name="Trazado 195339" d="M-3136.143,814.941v1.019h3.175v-1.019Zm18.607,1.017h3.155v-1.022h-3.155Z" transform="translate(3142.956 -779.683)" fill="#fff"/>
        <path id="Trazado_195340" data-name="Trazado 195340" d="M-3136.143,815h3.175v1.019h-3.175Z" transform="translate(3142.956 -779.737)" fill="#fff"/>
        <path id="Trazado_195341" data-name="Trazado 195341" d="M-2915.9,815.958v-1.022h3.154v1.022Z" transform="translate(2941.318 -779.683)" fill="#fff"/>
      </g>
    </g>
  </g>
</svg>
